<?xml version="1.0" standalone="no"?>
<!DOCTYPE svg PUBLIC "-//W3C//DTD SVG 20010904//EN"
 "http://www.w3.org/TR/2001/REC-SVG-20010904/DTD/svg10.dtd">
<svg version="1.0" xmlns="http://www.w3.org/2000/svg"
 width="1280.000000pt" height="1280.000000pt" viewBox="0 0 1280.000000 1280.000000"
 preserveAspectRatio="xMidYMid meet">
<metadata>
Created by potrace 1.11, written by Peter Selinger 2001-2013
</metadata>
<g transform="translate(0.000000,1280.000000) scale(0.100000,-0.100000)"
fill="#000000" stroke="none">
<path d="M10902 10190 c-45 -42 -36 -170 13 -170 15 0 25 -10 34 -36 7 -19 11
-37 9 -38 -4 -4 -350 -137 -361 -139 -4 -1 -14 13 -22 31 -14 32 -14 34 6 39
17 5 19 11 13 37 -15 71 -55 116 -104 116 -31 0 -44 -8 -60 -39 -26 -51 -4
-157 31 -148 14 4 21 -4 30 -30 6 -19 7 -38 3 -43 -9 -8 -273 -110 -285 -110
-4 0 -10 11 -13 24 -3 13 -9 31 -12 40 -4 11 -1 16 10 16 34 0 5 94 -40 129
-60 47 -124 9 -124 -75 0 -61 18 -97 45 -90 19 5 24 -1 34 -36 13 -42 6 -57
-26 -58 -7 0 -24 -20 -38 -45 -33 -55 -108 -124 -173 -158 -66 -34 -155 -64
-457 -152 -143 -42 -273 -80 -290 -85 -27 -9 -967 -284 -1075 -315 -60 -17
-333 -97 -440 -128 -327 -97 -693 -204 -720 -211 -14 -4 -384 -113 -1065 -313
-159 -47 -305 -89 -323 -95 -32 -9 -97 10 -247 72 -54 22 -274 100 -340 120
-22 7 -44 15 -50 19 -5 3 -14 6 -20 7 -5 1 -37 11 -70 23 -82 28 -285 92 -310
97 -11 2 -31 8 -45 14 -14 5 -68 21 -120 35 -52 15 -126 35 -165 46 -69 19
-422 107 -460 115 -53 10 -119 24 -210 43 -55 12 -115 24 -134 27 -18 3 -43 8
-55 10 -22 4 -41 8 -136 24 -142 24 -296 48 -355 55 -27 3 -61 8 -75 10 -24 5
-47 7 -165 19 -27 3 -90 10 -140 15 -309 33 -595 46 -1040 46 -318 0 -607 -8
-735 -19 -19 -2 -80 -7 -135 -10 -94 -6 -124 -9 -228 -21 -23 -2 -71 -7 -107
-10 -36 -3 -74 -7 -85 -10 -11 -2 -26 -4 -34 -4 -38 -2 33 -357 148 -737 79
-264 262 -790 381 -1099 147 -381 428 -1074 495 -1220 7 -16 52 -120 100 -230
48 -110 97 -222 110 -250 12 -27 65 -144 118 -260 52 -115 123 -268 157 -340
34 -71 76 -159 92 -195 119 -258 431 -864 586 -1135 47 -82 109 -187 139 -233
29 -45 53 -85 53 -87 0 -10 95 -142 114 -158 18 -16 18 -18 3 -13 -12 4 -16 2
-11 -6 5 -8 2 -9 -11 -5 -9 4 -23 3 -30 -3 -7 -6 -17 -10 -21 -9 -20 3 -34 -2
-34 -12 0 -8 5 -8 15 1 9 8 15 9 15 2 0 -21 -23 -25 -37 -6 -12 16 -11 20 9
30 12 7 29 9 37 6 8 -3 4 5 -8 17 -13 13 -26 20 -29 16 -4 -3 -1 -10 7 -14 10
-6 9 -10 -4 -15 -23 -8 -27 -8 -20 4 3 6 1 10 -5 10 -7 0 -9 -7 -6 -16 4 -9 1
-14 -6 -12 -19 7 -17 37 4 44 11 3 17 8 15 11 -3 2 -14 0 -25 -6 -20 -11 -23
-26 -9 -48 5 -8 -2 -11 -25 -10 -22 1 -32 -3 -30 -11 1 -6 -2 -12 -8 -12 -13
0 -13 23 0 36 6 6 8 18 5 27 -5 13 -12 10 -35 -16 l-28 -32 1 28 c1 18 6 25
15 22 7 -3 10 0 7 5 -3 6 -1 10 4 10 6 0 11 4 11 8 0 5 -7 9 -15 9 -8 0 -13
-3 -10 -5 3 -3 -7 -14 -22 -25 -16 -10 -20 -17 -10 -13 9 3 17 2 17 -3 0 -16
-13 -20 -32 -10 -15 8 -17 13 -7 25 7 8 7 14 1 14 -14 0 -23 -28 -12 -35 16
-10 11 -21 -10 -21 -15 0 -18 5 -14 18 3 10 0 18 -6 18 -6 0 -8 -4 -5 -10 3
-5 -3 -10 -14 -10 -12 0 -21 -4 -21 -8 0 -4 -9 -8 -20 -8 -21 0 -22 20 -2 22
7 1 18 2 25 3 8 1 8 4 -3 10 -8 6 -18 7 -22 5 -4 -3 -8 0 -8 5 0 6 -5 11 -11
11 -8 0 -8 -4 0 -14 9 -11 5 -18 -21 -34 -34 -22 -56 -20 -26 2 10 7 14 17 10
21 -4 5 2 5 13 1 17 -6 18 -5 7 6 -11 11 -16 10 -27 -5 -7 -10 -15 -14 -17
-10 -3 4 -3 3 -2 -4 2 -7 -5 -22 -16 -35 -17 -21 -20 -22 -35 -7 -20 19 -29
62 -12 56 7 -2 11 -11 9 -20 -3 -21 17 -32 31 -18 9 9 6 17 -13 31 -14 11 -32
18 -40 17 -10 -1 -14 6 -13 23 2 22 2 23 -6 5 -5 -12 -5 -25 1 -32 15 -19 -7
-17 -22 2 -13 16 -30 11 -29 -8 0 -9 2 -8 6 1 2 6 9 10 13 7 5 -3 7 -12 4 -19
-3 -8 0 -17 5 -21 6 -3 9 -11 6 -16 -7 -11 -26 -12 -24 -1 1 4 1 13 0 21 -1
11 -4 11 -18 0 -14 -12 -16 -12 -11 1 3 8 2 22 -3 31 -10 19 -55 19 -51 0 2
-8 -4 -10 -17 -6 -11 3 -22 1 -26 -5 -3 -5 -11 -10 -18 -10 -8 0 -8 3 1 12 7
7 12 17 12 23 0 5 -5 2 -11 -7 -6 -11 -16 -15 -26 -11 -13 5 -13 3 3 -14 13
-14 23 -17 32 -10 7 5 22 10 35 11 12 1 21 7 20 13 -3 15 35 12 41 -3 3 -7 -4
-20 -15 -30 -21 -19 -27 -6 -6 15 10 11 8 11 -10 0 -16 -9 -19 -17 -12 -26 8
-9 5 -11 -10 -10 -13 1 -19 6 -17 14 3 7 -1 10 -10 6 -7 -3 -14 -9 -14 -15 0
-5 -4 -6 -10 -3 -5 3 -10 1 -10 -5 0 -7 8 -9 22 -4 19 6 21 4 11 -7 -9 -11 -8
-19 3 -33 7 -11 17 -16 21 -12 4 4 0 12 -10 18 -14 7 -16 13 -6 24 6 7 15 11
21 8 5 -3 15 0 23 6 17 14 20 -1 4 -17 -6 -6 -19 -9 -28 -6 -9 3 -2 -4 14 -15
32 -21 45 -20 45 4 0 8 5 14 11 14 5 0 7 -5 3 -12 -4 -6 -3 -9 2 -6 5 3 20 1
34 -5 41 -16 62 -15 68 5 6 23 15 23 37 -2 10 -11 13 -20 7 -20 -7 0 -12 -4
-12 -8 0 -5 7 -9 15 -9 8 0 12 4 10 8 -3 4 2 10 11 13 13 5 14 9 4 21 -15 18
-7 19 21 4 20 -10 20 -11 2 -25 -17 -14 -16 -14 4 -4 21 10 27 7 24 -12 0 -4
5 -5 13 -2 20 8 -31 56 -61 58 -12 0 -21 6 -19 11 1 6 12 8 22 6 38 -7 49 -6
46 7 -1 6 2 12 8 12 13 0 13 -23 -1 -37 -8 -8 -7 -13 1 -18 6 -4 17 -2 23 4 6
6 16 11 21 11 6 0 5 -5 -2 -12 -7 -7 -12 -16 -12 -22 0 -5 6 -1 14 9 8 11 13
22 11 26 -2 3 9 6 24 6 20 0 28 -4 24 -14 -3 -7 -10 -10 -17 -6 -6 4 -5 0 2
-9 7 -9 22 -15 34 -13 14 3 18 0 14 -11 -3 -9 -2 -12 5 -9 13 9 6 30 -11 30
-7 0 -15 5 -17 12 -6 16 18 11 50 -10 15 -10 27 -14 27 -9 0 5 -9 13 -20 18
-20 9 -20 9 1 22 20 13 21 12 15 -3 -6 -16 -4 -16 11 -4 15 12 16 12 10 -4 -9
-24 5 -21 21 4 7 12 16 18 19 15 3 -3 0 -13 -8 -23 -12 -14 -12 -16 0 -8 11 6
13 4 8 -8 -5 -12 0 -14 21 -11 15 3 29 8 32 11 3 3 -5 3 -18 0 -28 -7 -28 4 0
29 17 15 20 16 16 3 -5 -13 -1 -15 19 -11 18 3 24 1 19 -7 -4 -7 2 -15 16 -20
18 -7 28 -4 46 12 19 18 25 19 32 7 7 -12 12 -11 29 4 11 10 18 23 14 29 -3 6
-1 7 5 3 17 -10 15 -17 -14 -50 -23 -26 -26 -27 -38 -11 -11 16 -13 16 -26 -2
-11 -14 -11 -16 0 -6 11 10 16 9 27 -5 12 -16 14 -16 26 0 11 14 16 15 27 5
12 -10 12 -9 2 4 -10 13 -9 19 4 30 14 11 15 10 12 -7 -2 -15 2 -18 20 -17 15
2 21 -1 16 -9 -4 -7 -3 -8 5 -4 17 11 2 28 -20 21 -14 -5 -17 -3 -13 9 3 9 10
14 14 11 14 -9 23 15 11 29 -6 7 -8 16 -4 19 9 10 25 9 19 -1 -2 -4 -1 -14 3
-21 6 -10 13 -10 28 -2 17 9 24 5 47 -27 14 -20 26 -32 26 -26 0 5 -5 15 -12
22 -19 19 2 14 29 -8 28 -22 48 -17 38 9 -13 33 -14 52 -2 48 7 -2 12 -10 12
-18 0 -18 25 -62 32 -56 2 3 -3 16 -11 30 -15 22 -15 25 1 38 15 12 16 12 10
-3 -7 -18 16 -48 36 -48 7 0 1 10 -13 21 -20 17 -21 19 -5 14 11 -4 26 -8 33
-8 7 0 11 -6 8 -14 -8 -20 8 -15 22 7 7 11 17 20 23 20 8 0 8 -4 0 -13 -8 -10
-7 -19 4 -33 8 -10 15 -14 15 -7 0 6 -5 15 -10 18 -8 5 -7 11 1 21 6 7 16 11
21 8 7 -4 6 -9 0 -13 -7 -4 -8 -12 -2 -21 8 -13 10 -13 10 1 0 31 33 32 57 2
13 -15 23 -24 23 -19 0 6 7 1 15 -10 14 -17 16 -17 28 -3 6 9 17 17 22 19 6 2
18 14 29 28 15 18 21 21 27 10 7 -10 9 -10 10 2 1 8 1 18 0 23 -1 9 13 9 22 0
4 -3 2 -12 -5 -20 -6 -7 -8 -16 -5 -19 3 -3 10 3 16 15 9 17 7 25 -16 48 -16
15 -31 27 -36 25 -4 -1 -7 2 -7 8 0 5 -5 10 -11 10 -8 0 -9 -4 0 -13 6 -8 8
-17 4 -20 -10 -11 -45 -8 -38 2 3 5 1 12 -5 16 -14 9 -52 -4 -45 -16 11 -17
-31 -9 -53 11 -25 23 -40 27 -22 5 18 -22 -15 -32 -36 -10 -10 9 -24 13 -33
10 -9 -4 -27 -9 -40 -11 -21 -4 -23 -3 -11 11 20 24 0 18 -22 -7 -15 -17 -18
-19 -14 -6 5 17 -29 46 -41 35 -2 -3 5 -8 16 -12 20 -6 19 -35 -1 -35 -5 0 -6
5 -3 10 3 6 1 10 -5 10 -7 0 -10 -7 -6 -15 6 -17 -2 -19 -23 -6 -8 5 -9 11 -3
15 6 3 10 15 9 26 -1 10 -4 17 -8 14 -4 -2 -10 2 -12 8 -4 9 -6 10 -6 1 -1 -6
3 -15 9 -18 5 -3 10 -11 10 -17 0 -7 -6 -6 -15 2 -10 9 -15 9 -15 1 0 -6 4
-11 8 -11 4 0 8 -10 9 -21 2 -19 -3 -17 -31 15 -19 20 -40 36 -47 36 -8 -1 -5
-6 7 -13 20 -12 22 -37 3 -37 -6 0 -7 5 -4 10 3 6 1 10 -5 10 -7 0 -10 -6 -7
-14 4 -10 0 -14 -14 -13 -22 1 -24 8 -8 24 8 8 8 16 0 30 -10 16 -11 15 -5 -7
6 -22 5 -23 -10 -11 -9 8 -16 9 -16 3 0 -6 5 -12 11 -14 6 -2 1 -12 -12 -23
-22 -20 -22 -20 -15 1 8 26 -12 45 -42 39 -12 -2 -22 0 -22 6 0 5 3 9 8 9 4 0
22 14 41 30 18 17 37 28 42 25 5 -4 9 0 9 7 0 7 55 60 122 118 67 58 156 136
198 175 90 84 452 445 533 533 32 34 63 60 68 57 5 -4 7 0 4 7 -2 7 17 37 44
65 27 29 68 76 92 105 24 29 60 70 79 92 19 23 38 45 42 51 4 5 22 28 41 50
44 53 184 236 272 355 38 52 72 97 75 100 3 3 10 12 15 21 6 9 49 74 96 145
114 172 197 303 280 443 38 64 74 123 79 131 5 8 24 44 43 80 19 36 54 99 76
140 87 157 263 519 361 740 23 52 50 113 60 135 10 22 30 72 45 110 15 39 33
84 41 100 7 17 27 66 44 110 17 44 35 89 39 100 5 11 19 47 31 80 12 33 26 69
30 80 14 34 84 228 86 235 0 3 3 12 6 20 4 8 18 51 33 95 15 44 31 84 36 89 8
9 43 20 244 81 44 13 125 38 180 55 210 66 260 82 270 84 10 2 56 16 330 101
77 24 192 59 255 79 348 107 950 292 1045 321 344 107 1557 479 1595 490 25 7
111 34 192 59 212 67 299 63 532 -24 121 -44 138 -48 202 -45 38 3 80 7 94 9
14 3 50 8 80 11 30 3 66 8 80 10 14 3 50 7 80 10 30 3 73 8 95 11 67 9 88 12
145 19 30 4 66 8 80 10 20 3 108 13 165 20 6 0 46 5 90 10 44 5 82 9 85 10 3
1 37 5 75 9 39 5 77 10 85 11 9 2 43 6 75 10 142 17 235 119 235 257 0 50 -9
76 -170 488 -37 96 -85 220 -106 275 -85 224 -141 252 -344 172 -272 -107
-282 -111 -291 -96 -14 22 -11 66 4 62 15 -6 6 61 -14 93 -39 64 -87 81 -127
44z m-8332 -7300 c0 -5 -4 -10 -10 -10 -5 0 -10 5 -10 10 0 6 5 10 10 10 6 0
10 -4 10 -10z m53 -17 c-1 -11 4 -27 12 -33 18 -15 20 -31 3 -27 -16 3 -38 29
-32 38 4 8 -46 3 -54 -5 -3 -4 0 -12 8 -19 9 -8 11 -8 6 0 -3 6 -2 14 3 17 14
9 20 -18 6 -31 -9 -8 -15 -9 -24 0 -8 8 -17 5 -33 -10 -39 -35 -77 0 -42 39
10 10 24 16 32 13 15 -5 72 21 72 34 0 4 10 8 23 7 16 -1 21 -7 20 -23z m-314
-6 c-9 -7 -14 -17 -12 -24 2 -6 -5 -16 -15 -22 -15 -8 -21 -7 -26 4 -3 8 -11
15 -18 14 -10 0 -10 -2 0 -6 6 -2 12 -10 12 -16 0 -6 -7 -4 -16 5 -25 24 -8
43 21 24 17 -12 26 -13 31 -4 5 7 2 8 -7 3 -8 -5 -3 4 10 18 14 15 27 24 30
21 3 -3 -1 -11 -10 -17z m459 -13 c8 -6 12 -16 9 -21 -4 -6 -1 -13 7 -16 9 -4
12 0 9 13 -3 10 0 21 5 24 6 3 9 -2 7 -11 -1 -10 2 -26 7 -36 14 -28 4 -30
-25 -6 -15 11 -31 18 -36 15 -5 -4 -13 3 -16 15 -5 14 -12 18 -23 14 -9 -3 -6
4 8 17 14 13 27 19 29 13 2 -5 11 -15 19 -21z m208 24 c9 -7 24 -21 34 -30 13
-12 20 -13 24 -5 5 9 8 9 12 -1 5 -10 9 -9 20 5 13 17 15 17 28 1 7 -10 19
-18 26 -18 7 0 19 8 26 18 13 16 15 16 27 0 12 -15 14 -15 27 5 12 20 12 21
-3 8 -10 -7 -17 -9 -17 -3 0 12 30 37 31 26 5 -34 6 -54 1 -49 -3 2 -11 0 -18
-6 -16 -13 -37 -2 -28 13 4 7 2 8 -5 4 -9 -6 -9 -11 -1 -21 11 -14 3 -48 -10
-40 -5 3 -14 -3 -19 -12 -11 -17 -11 -17 -22 0 -5 9 -14 15 -19 12 -5 -3 -11
4 -15 15 -6 20 -11 22 -50 24 -12 1 -19 7 -17 15 3 12 1 12 -14 0 -16 -13 -17
-12 -10 6 7 19 6 19 -16 -1 -25 -23 -58 -28 -58 -9 0 7 -8 19 -17 26 -15 11
-16 11 -5 -1 17 -20 15 -35 -3 -20 -23 19 -13 33 23 35 17 1 35 5 39 8 9 9 12
9 29 -5z m161 -8 c2 -23 -15 -36 -28 -23 -12 12 -1 43 15 43 6 0 12 -9 13 -20z
m-1180 0 c-2 -11 15 -50 23 -50 4 0 6 -8 3 -18 -5 -22 -26 -22 -72 1 -36 18
-51 15 -51 -11 0 -13 -2 -14 -12 -3 -11 10 -10 15 4 25 12 9 14 16 7 23 -7 7
-3 11 15 11 14 0 25 -3 24 -7 -3 -27 3 -31 25 -16 13 8 26 14 28 13 2 -2 -4 3
-13 11 -23 18 -23 27 1 27 11 0 19 -3 18 -6z m1100 -6 c2 -5 -6 -10 -17 -10
-20 0 -25 7 -13 20 9 8 26 3 30 -10z m-1047 -4 c0 -5 -4 -10 -10 -10 -5 0 -10
5 -10 10 0 6 5 10 10 10 6 0 10 -4 10 -10z m845 -9 c-3 -6 -11 -8 -17 -5 -6 4
-5 9 3 15 16 10 23 4 14 -10z m-748 -18 c-8 -7 -37 9 -31 19 3 5 12 4 20 -3 8
-6 13 -14 11 -16z m69 16 c7 -12 -32 -49 -51 -48 -5 0 -2 6 7 13 10 7 15 16
12 19 -8 7 4 27 16 27 5 0 12 -5 16 -11z m514 -5 c0 -8 -5 -12 -10 -9 -6 4 -8
11 -5 16 9 14 15 11 15 -7z m-480 -9 c0 -8 -4 -15 -10 -15 -5 0 -10 7 -10 15
0 8 5 15 10 15 6 0 10 -7 10 -15z m200 5 c0 -4 -9 -15 -20 -25 -17 -15 -20
-16 -15 -3 7 18 -10 34 -20 18 -9 -14 -22 -13 -22 3 0 7 15 12 39 13 21 0 38
-2 38 -6z m-375 -11 c-4 -5 1 -19 11 -30 9 -10 13 -19 7 -19 -5 0 -17 8 -26
18 -13 14 -14 21 -5 30 15 15 21 16 13 1z"/>
<path d="M2480 2833 c-13 -15 -12 -16 3 -10 15 6 17 3 12 -13 -6 -18 -3 -18
21 5 15 14 24 28 21 32 -4 3 -7 1 -7 -5 0 -7 -7 -12 -16 -12 -8 0 -12 5 -9 10
10 16 -9 11 -25 -7z"/>
<path d="M2743 2845 c0 -7 6 -11 14 -8 7 3 13 6 13 8 0 2 -6 5 -13 8 -8 3 -14
-1 -14 -8z"/>
<path d="M2952 2875 c4 -4 3 -16 -3 -26 -5 -11 -7 -19 -5 -19 3 0 10 9 16 19
7 15 7 22 -2 27 -7 4 -10 4 -6 -1z"/>
<path d="M2926 2853 c-6 -14 -5 -15 5 -6 7 7 10 15 7 18 -3 3 -9 -2 -12 -12z"/>
<path d="M3070 2840 c0 -5 5 -10 11 -10 5 0 7 5 4 10 -3 6 -8 10 -11 10 -2 0
-4 -4 -4 -10z"/>
<path d="M3085 2810 c-3 -6 1 -7 9 -4 9 3 16 1 16 -5 0 -6 5 -11 11 -11 8 0 8
5 -1 15 -14 17 -26 19 -35 5z"/>
<path d="M3130 2816 c0 -2 7 -7 16 -10 8 -3 12 -2 9 4 -6 10 -25 14 -25 6z"/>
<path d="M1938 2813 c6 -3 10 -9 6 -14 -8 -14 2 -11 14 4 8 10 6 13 -11 14
-12 0 -16 -1 -9 -4z"/>
<path d="M4055 3040 c3 -5 8 -10 11 -10 2 0 4 5 4 10 0 6 -5 10 -11 10 -5 0
-7 -4 -4 -10z"/>
<path d="M4885 3040 c-3 -6 1 -7 9 -4 18 7 21 14 7 14 -6 0 -13 -4 -16 -10z"/>
<path d="M5593 3035 c0 -8 4 -12 9 -9 5 3 6 10 3 15 -9 13 -12 11 -12 -6z"/>
<path d="M3436 3013 c-6 -14 -5 -15 5 -6 7 7 10 15 7 18 -3 3 -9 -2 -12 -12z"/>
<path d="M3636 3015 c-9 -26 -7 -32 5 -12 6 10 9 21 6 23 -2 3 -7 -2 -11 -11z"/>
<path d="M4316 3013 c-6 -14 -5 -15 5 -6 7 7 10 15 7 18 -3 3 -9 -2 -12 -12z"/>
<path d="M4633 3015 c0 -8 4 -12 9 -9 5 3 6 10 3 15 -9 13 -12 11 -12 -6z"/>
<path d="M5999 3018 c-5 -18 -6 -38 -1 -34 7 8 12 36 6 36 -2 0 -4 -1 -5 -2z"/>
<path d="M1676 3002 c-3 -5 1 -9 9 -9 8 0 12 4 9 9 -3 4 -7 8 -9 8 -2 0 -6 -4
-9 -8z"/>
<path d="M2775 3000 c3 -5 8 -10 11 -10 2 0 4 5 4 10 0 6 -5 10 -11 10 -5 0
-7 -4 -4 -10z"/>
<path d="M2850 2999 c0 -5 5 -7 10 -4 6 3 10 8 10 11 0 2 -4 4 -10 4 -5 0 -10
-5 -10 -11z"/>
<path d="M3356 2993 c-6 -14 -5 -15 5 -6 7 7 10 15 7 18 -3 3 -9 -2 -12 -12z"/>
<path d="M4060 3006 c0 -2 8 -10 18 -17 15 -13 16 -12 3 4 -13 16 -21 21 -21
13z"/>
<path d="M4370 3000 c0 -5 5 -10 11 -10 5 0 7 5 4 10 -3 6 -8 10 -11 10 -2 0
-4 -4 -4 -10z"/>
<path d="M5950 3000 c0 -5 5 -10 11 -10 5 0 7 5 4 10 -3 6 -8 10 -11 10 -2 0
-4 -4 -4 -10z"/>
<path d="M6036 2998 c3 -5 10 -6 15 -3 13 9 11 12 -6 12 -8 0 -12 -4 -9 -9z"/>
<path d="M5430 2996 c0 -2 8 -10 18 -17 15 -13 16 -12 3 4 -13 16 -21 21 -21
13z"/>
<path d="M7053 2985 c0 -8 4 -12 9 -9 5 3 6 10 3 15 -9 13 -12 11 -12 -6z"/>
<path d="M7475 2991 c-3 -5 -2 -12 3 -15 5 -3 9 1 9 9 0 17 -3 19 -12 6z"/>
<path d="M1810 2980 c0 -5 5 -10 11 -10 5 0 7 5 4 10 -3 6 -8 10 -11 10 -2 0
-4 -4 -4 -10z"/>
<path d="M2175 2981 c-3 -5 -2 -12 3 -15 5 -3 9 1 9 9 0 17 -3 19 -12 6z"/>
<path d="M2834 2976 c1 -8 5 -18 8 -22 4 -3 5 1 4 10 -1 8 -5 18 -8 22 -4 3
-5 -1 -4 -10z"/>
<path d="M3319 2988 c-10 -33 6 -46 28 -24 4 4 1 6 -7 4 -8 -1 -14 3 -12 10 2
10 -6 19 -9 10z"/>
<path d="M3436 2982 c-3 -5 1 -9 9 -9 8 0 12 4 9 9 -3 4 -7 8 -9 8 -2 0 -6 -4
-9 -8z"/>
<path d="M3712 2980 c2 -8 -2 -14 -9 -13 -12 3 -12 -22 1 -34 4 -4 6 -1 4 7
-1 8 2 14 9 13 12 -3 12 22 -1 34 -4 4 -6 1 -4 -7z"/>
<path d="M3953 2973 c0 -9 4 -10 14 -2 7 6 13 12 13 14 0 1 -6 2 -13 2 -8 0
-14 -6 -14 -14z"/>
<path d="M4112 2980 c2 -9 -3 -14 -12 -12 -8 2 -11 0 -7 -4 13 -14 35 -12 33
2 -1 7 -6 17 -10 21 -4 4 -6 1 -4 -7z"/>
<path d="M4273 2970 c-1 -11 2 -22 6 -24 4 -3 7 4 6 14 -2 27 -10 33 -12 10z"/>
<path d="M4316 2982 c-3 -5 1 -9 9 -9 8 0 12 4 9 9 -3 4 -7 8 -9 8 -2 0 -6 -4
-9 -8z"/>
<path d="M4635 2981 c-3 -5 -2 -12 3 -15 5 -3 9 1 9 9 0 17 -3 19 -12 6z"/>
<path d="M5330 2980 c0 -5 5 -10 11 -10 5 0 7 5 4 10 -3 6 -8 10 -11 10 -2 0
-4 -4 -4 -10z"/>
<path d="M5575 2983 c3 -3 -5 -18 -17 -32 -20 -22 -20 -23 -2 -8 11 9 23 14
27 11 3 -3 4 1 3 10 -1 8 -5 18 -9 21 -4 3 -5 2 -2 -2z"/>
<path d="M5615 2981 c-3 -5 -2 -12 3 -15 5 -3 9 1 9 9 0 17 -3 19 -12 6z"/>
<path d="M6453 2975 c0 -8 4 -12 9 -9 5 3 6 10 3 15 -9 13 -12 11 -12 -6z"/>
<path d="M6560 2980 c-12 -7 -10 -9 7 -7 12 0 19 5 17 9 -6 10 -6 10 -24 -2z"/>
<path d="M6696 2982 c-3 -4 4 -9 15 -9 23 -2 25 3 4 10 -8 4 -16 3 -19 -1z"/>
<path d="M1975 2969 c-4 -6 -5 -12 -2 -15 2 -3 7 2 10 11 7 17 1 20 -8 4z"/>
<path d="M2776 2967 c3 -10 9 -15 12 -12 3 3 0 11 -7 18 -10 9 -11 8 -5 -6z"/>
<path d="M3235 2970 c-4 -6 -10 -8 -15 -5 -4 3 -14 -3 -21 -13 -12 -15 -12
-16 2 -5 9 7 18 11 21 8 3 -3 11 1 18 10 7 8 10 15 7 15 -3 0 -9 -5 -12 -10z"/>
<path d="M3515 2969 c-4 -6 -14 -8 -24 -4 -13 5 -14 4 -3 -6 10 -11 15 -10 29
4 10 9 14 17 11 17 -4 0 -10 -5 -13 -11z"/>
<path d="M3651 2967 c-8 -10 -7 -14 2 -14 8 0 14 6 14 14 0 7 -1 13 -2 13 -2
0 -8 -6 -14 -13z"/>
<path d="M3895 2970 c-4 -6 -10 -8 -14 -6 -4 3 -8 -5 -8 -16 -1 -11 -1 -19 0
-17 1 2 11 14 21 27 11 12 16 22 13 22 -3 0 -9 -5 -12 -10z"/>
<path d="M4210 2976 c0 -2 8 -10 18 -17 15 -13 16 -12 3 4 -13 16 -21 21 -21
13z"/>
<path d="M4993 2965 c0 -8 4 -12 9 -9 5 3 6 10 3 15 -9 13 -12 11 -12 -6z"/>
<path d="M5056 2967 c3 -10 9 -15 12 -12 3 3 0 11 -7 18 -10 9 -11 8 -5 -6z"/>
<path d="M5153 2965 c0 -8 4 -15 9 -15 4 0 8 4 8 9 0 6 -4 12 -8 15 -5 3 -9
-1 -9 -9z"/>
<path d="M5277 2973 c-10 -9 -9 -23 1 -23 5 0 9 7 9 15 0 17 -1 18 -10 8z"/>
<path d="M1393 2963 c4 -3 1 -13 -6 -22 -11 -14 -10 -14 5 -2 16 12 16 31 1
31 -4 0 -3 -3 0 -7z"/>
<path d="M1453 2955 c0 -8 4 -12 9 -9 5 3 6 10 3 15 -9 13 -12 11 -12 -6z"/>
<path d="M1513 2963 c4 -3 1 -13 -6 -22 -11 -14 -10 -14 5 -2 16 12 16 31 1
31 -4 0 -3 -3 0 -7z"/>
<path d="M1630 2960 c0 -5 5 -10 10 -10 6 0 10 5 10 10 0 6 -4 10 -10 10 -5 0
-10 -4 -10 -10z"/>
<path d="M1994 2958 c-4 -7 -4 -10 1 -6 4 4 15 2 24 -5 14 -11 14 -10 2 6 -16
20 -18 21 -27 5z"/>
<path d="M2224 2954 c9 -6 14 -14 11 -17 -3 -4 -2 -5 2 -2 15 12 10 31 -9 31
-17 0 -17 -2 -4 -12z"/>
<path d="M2308 2956 c4 -6 7 -14 7 -18 0 -19 11 -14 11 6 0 12 -6 23 -13 23
-6 0 -9 -5 -5 -11z"/>
<path d="M2937 2955 c-4 -8 -3 -16 1 -19 4 -3 9 4 9 15 2 23 -3 25 -10 4z"/>
<path d="M3097 2955 c-4 -8 -3 -16 1 -19 4 -3 9 4 9 15 2 23 -3 25 -10 4z"/>
<path d="M3559 2953 c-13 -16 -12 -17 4 -4 16 13 21 21 13 21 -2 0 -10 -8 -17
-17z"/>
<path d="M3770 2960 c0 -5 5 -10 11 -10 5 0 7 5 4 10 -3 6 -8 10 -11 10 -2 0
-4 -4 -4 -10z"/>
<path d="M4355 2961 c-3 -5 -2 -12 3 -15 5 -3 9 1 9 9 0 17 -3 19 -12 6z"/>
<path d="M4433 2954 c0 -9 4 -11 12 -4 7 5 14 9 16 7 2 -1 3 0 1 2 -7 11 -29
7 -29 -5z"/>
<path d="M4600 2960 c-12 -7 -10 -9 7 -7 12 0 19 5 17 9 -6 10 -6 10 -24 -2z"/>
<path d="M4936 2953 c-6 -14 -5 -15 5 -6 7 7 10 15 7 18 -3 3 -9 -2 -12 -12z"/>
<path d="M5019 2953 c-12 -16 -12 -17 2 -6 9 7 20 9 24 5 5 -4 5 -1 1 6 -9 16
-11 15 -27 -5z"/>
<path d="M5653 2955 c0 -8 4 -12 9 -9 5 3 6 10 3 15 -9 13 -12 11 -12 -6z"/>
<path d="M5826 2962 c-3 -5 1 -9 9 -9 8 0 12 4 9 9 -3 4 -7 8 -9 8 -2 0 -6 -4
-9 -8z"/>
<path d="M5976 2962 c-3 -5 1 -9 9 -9 8 0 12 4 9 9 -3 4 -7 8 -9 8 -2 0 -6 -4
-9 -8z"/>
<path d="M6150 2960 c0 -5 5 -10 11 -10 5 0 7 5 4 10 -3 6 -8 10 -11 10 -2 0
-4 -4 -4 -10z"/>
<path d="M6416 2962 c-3 -5 1 -9 9 -9 8 0 12 4 9 9 -3 4 -7 8 -9 8 -2 0 -6 -4
-9 -8z"/>
<path d="M6516 2958 c3 -5 10 -6 15 -3 13 9 11 12 -6 12 -8 0 -12 -4 -9 -9z"/>
<path d="M6890 2959 c0 -5 5 -7 10 -4 6 3 10 8 10 11 0 2 -4 4 -10 4 -5 0 -10
-5 -10 -11z"/>
<path d="M7280 2960 c-9 -6 -10 -10 -3 -10 6 0 15 5 18 10 8 12 4 12 -15 0z"/>
<path d="M1159 2955 c-1 -3 -2 -10 -3 -15 0 -6 -8 -15 -16 -20 -9 -6 -10 -10
-3 -10 13 0 26 17 29 38 2 11 -5 18 -7 7z"/>
<path d="M3434 2952 c3 -5 0 -13 -6 -15 -9 -4 -10 -6 -1 -6 17 -1 25 16 12 25
-7 4 -9 3 -5 -4z"/>
<path d="M3999 2953 c-1 -5 -1 -12 0 -17 1 -5 -5 -6 -13 -3 -9 4 -13 0 -11
-11 1 -10 -7 -20 -19 -24 -19 -6 -18 -7 4 -5 14 1 23 6 22 11 -2 5 2 12 9 17
12 7 22 39 13 39 -2 0 -5 -3 -5 -7z"/>
<path d="M4794 2952 c3 -5 0 -13 -6 -15 -10 -4 -10 -6 0 -6 7 -1 11 -5 7 -10
-3 -5 0 -13 7 -17 7 -4 10 -4 6 1 -4 4 0 14 10 22 16 12 16 13 -2 6 -13 -4
-17 -3 -12 5 3 6 1 14 -5 18 -7 4 -9 3 -5 -4z"/>
<path d="M5909 2943 c-13 -16 -12 -17 4 -4 16 13 21 21 13 21 -2 0 -10 -8 -17
-17z"/>
<path d="M6550 2956 c0 -2 8 -10 18 -17 15 -13 16 -12 3 4 -13 16 -21 21 -21
13z"/>
<path d="M7575 2951 c-3 -5 -2 -12 3 -15 5 -3 9 1 9 9 0 17 -3 19 -12 6z"/>
<path d="M1030 2938 c0 -11 12 -10 30 2 12 7 10 9 -8 7 -12 0 -22 -5 -22 -9z"/>
<path d="M1184 2938 c-3 -4 5 -5 17 -3 30 6 36 14 9 12 -12 -1 -24 -5 -26 -9z"/>
<path d="M1265 2940 c-3 -6 1 -7 9 -4 18 7 21 14 7 14 -6 0 -13 -4 -16 -10z"/>
<path d="M1310 2935 c5 -7 6 -16 2 -21 -4 -5 -3 -6 2 -2 5 4 15 0 23 -10 12
-15 13 -14 1 8 -7 14 -12 28 -11 31 1 3 -5 6 -12 6 -10 0 -12 -4 -5 -12z"/>
<path d="M1347 2939 c7 -7 15 -10 18 -7 3 3 -2 9 -12 12 -14 6 -15 5 -6 -5z"/>
<path d="M1840 2935 c-7 -9 -8 -15 -2 -15 5 0 12 7 16 15 3 8 4 15 2 15 -2 0
-9 -7 -16 -15z"/>
<path d="M3245 2940 c-5 -9 10 -50 19 -50 2 0 10 8 17 18 13 16 13 16 -5 2
-18 -14 -19 -13 -13 3 5 12 3 16 -5 11 -8 -5 -9 -2 -5 9 7 18 2 23 -8 7z"/>
<path d="M3353 2935 c0 -8 4 -12 9 -9 4 3 8 9 8 15 0 5 -4 9 -8 9 -5 0 -9 -7
-9 -15z"/>
<path d="M3467 2934 c4 -12 3 -15 -5 -10 -8 5 -10 1 -5 -11 6 -16 5 -17 -13
-3 -14 10 -16 11 -7 0 13 -14 1 -40 -19 -40 -6 0 -5 6 1 14 10 12 8 17 -9 26
-12 6 -24 9 -28 6 -3 -3 0 -6 8 -6 9 0 10 -3 1 -13 -6 -8 -7 -18 -3 -22 4 -5
-2 -5 -13 -1 -11 4 -16 4 -12 -1 5 -4 22 -8 38 -9 21 -1 36 6 54 28 27 32 30
43 15 53 -6 4 -7 -1 -3 -11z m-52 -44 c-3 -5 -11 -10 -16 -10 -6 0 -7 5 -4 10
3 6 11 10 16 10 6 0 7 -4 4 -10z"/>
<path d="M3517 2930 c-9 -11 -13 -20 -7 -20 5 0 14 9 20 20 6 11 9 20 8 20 -2
0 -11 -9 -21 -20z"/>
<path d="M4386 2935 c6 -14 4 -16 -7 -10 -8 5 -11 4 -6 0 10 -12 37 -15 37 -5
0 4 -7 13 -15 20 -13 11 -14 10 -9 -5z"/>
<path d="M4636 2942 c-3 -5 1 -9 9 -9 8 0 12 4 9 9 -3 4 -7 8 -9 8 -2 0 -6 -4
-9 -8z"/>
<path d="M4710 2941 c0 -5 8 -15 18 -22 15 -12 16 -12 5 2 -7 9 -10 19 -6 22
3 4 1 7 -5 7 -7 0 -12 -4 -12 -9z"/>
<path d="M4747 2939 c7 -7 15 -10 18 -7 3 3 -2 9 -12 12 -14 6 -15 5 -6 -5z"/>
<path d="M4956 2942 c-3 -5 1 -9 9 -9 8 0 12 4 9 9 -3 4 -7 8 -9 8 -2 0 -6 -4
-9 -8z"/>
<path d="M5380 2944 c0 -1 6 -7 14 -13 10 -9 15 -8 19 2 3 8 -3 13 -14 13 -11
0 -19 -1 -19 -2z"/>
<path d="M5682 2938 c-15 -15 -15 -28 0 -28 6 0 8 3 5 7 -4 3 -2 12 4 20 14
16 7 17 -9 1z"/>
<path d="M5712 2945 c4 -4 3 -14 -4 -22 -6 -7 -9 -15 -7 -18 3 -2 10 4 17 15
9 15 9 21 -1 26 -6 4 -9 4 -5 -1z"/>
<path d="M5749 2937 c6 -8 7 -18 3 -22 -4 -5 -1 -5 6 -1 10 6 10 11 1 22 -6 8
-14 14 -16 14 -3 0 0 -6 6 -13z"/>
<path d="M6106 2942 c-3 -5 1 -9 9 -9 8 0 15 4 15 9 0 4 -4 8 -9 8 -6 0 -12
-4 -15 -8z"/>
<path d="M6190 2942 c0 -5 7 -9 15 -9 8 0 12 4 9 9 -3 4 -9 8 -15 8 -5 0 -9
-4 -9 -8z"/>
<path d="M7095 2940 c-3 -5 -1 -10 4 -10 6 0 11 5 11 10 0 6 -2 10 -4 10 -3 0
-8 -4 -11 -10z"/>
<path d="M7450 2939 c0 -5 5 -7 10 -4 6 3 10 8 10 11 0 2 -4 4 -10 4 -5 0 -10
-5 -10 -11z"/>
<path d="M7615 2941 c-3 -5 -2 -12 3 -15 5 -3 9 1 9 9 0 17 -3 19 -12 6z"/>
<path d="M7846 2938 c3 -5 10 -6 15 -3 13 9 11 12 -6 12 -8 0 -12 -4 -9 -9z"/>
<path d="M7990 2941 c0 -6 4 -13 10 -16 6 -3 7 1 4 9 -7 18 -14 21 -14 7z"/>
<path d="M719 2938 c-8 -26 -5 -36 9 -31 11 5 13 3 7 -7 -6 -9 -4 -11 5 -5 10
6 10 11 -3 20 -9 7 -14 15 -10 18 3 4 3 7 0 7 -4 0 -7 -1 -8 -2z"/>
<path d="M975 2931 c-3 -6 -14 -8 -25 -6 -11 2 -22 0 -25 -5 -3 -5 4 -7 16 -5
15 3 19 0 15 -10 -8 -23 0 -18 18 10 9 14 14 25 12 25 -3 0 -7 -4 -11 -9z"/>
<path d="M1098 2928 c16 -16 15 -31 0 -22 -7 4 -10 3 -5 -1 4 -5 16 -10 27
-12 19 -3 19 -2 -2 22 -12 14 -24 25 -27 25 -3 0 0 -5 7 -12z"/>
<path d="M1406 2927 c-16 -12 -16 -14 -3 -14 9 0 18 6 21 14 3 7 4 13 3 13 -2
0 -11 -6 -21 -13z"/>
<path d="M1475 2931 c-3 -5 -2 -12 3 -15 5 -3 9 1 9 9 0 17 -3 19 -12 6z"/>
<path d="M1614 2933 c5 -9 0 -13 -13 -13 -24 0 -36 -16 -20 -26 8 -5 9 -3 4 6
-6 10 -2 12 17 8 26 -5 33 12 13 29 -4 4 -5 2 -1 -4z"/>
<path d="M1653 2925 c0 -8 4 -12 9 -9 5 3 6 10 3 15 -9 13 -12 11 -12 -6z"/>
<path d="M1776 2926 c7 -19 30 -21 40 -4 4 7 3 8 -5 4 -6 -4 -19 -2 -27 5 -12
10 -13 9 -8 -5z"/>
<path d="M1870 2925 c0 -8 4 -15 8 -15 5 0 9 7 9 15 0 8 -4 15 -9 15 -4 0 -8
-7 -8 -15z"/>
<path d="M1973 2923 c0 -8 6 -9 19 -2 10 5 18 11 18 12 0 2 -8 3 -18 3 -10 0
-19 -6 -19 -13z"/>
<path d="M2888 2933 c-10 -2 -18 -9 -18 -14 0 -6 8 -5 20 1 11 6 20 13 20 15
0 3 -1 4 -2 4 -2 -1 -11 -3 -20 -6z"/>
<path d="M3077 2919 c4 -13 8 -18 11 -10 2 7 -1 18 -6 23 -8 8 -9 4 -5 -13z"/>
<path d="M3661 2921 c-1 -23 -2 -23 -19 -8 -10 10 -22 17 -26 17 -5 0 2 -9 15
-19 26 -21 44 -14 36 15 -4 15 -5 14 -6 -5z"/>
<path d="M3894 2922 c2 -10 -5 -20 -18 -24 -18 -6 -18 -7 4 -5 14 1 24 8 23
15 -4 16 14 16 20 0 4 -10 6 -10 6 0 1 8 6 10 14 6 6 -4 10 -5 7 -1 -3 3 -9 6
-15 7 -5 1 -17 6 -27 11 -12 7 -16 5 -14 -9z"/>
<path d="M4250 2932 c0 -7 -17 -29 -38 -50 -31 -31 -35 -38 -19 -38 11 1 22
-6 25 -14 5 -13 3 -13 -14 0 -18 14 -18 14 -5 -3 9 -12 17 -15 24 -8 7 7 6 15
-2 25 -10 12 -8 22 15 51 15 19 24 38 20 42 -3 3 -6 1 -6 -5z"/>
<path d="M4462 2932 c2 -8 8 -13 13 -13 6 0 14 -7 18 -15 5 -8 12 -12 18 -9 5
4 9 2 9 -4 0 -5 -5 -12 -10 -14 -6 -3 -5 -4 2 -3 7 2 13 8 13 14 0 7 -3 11 -7
10 -4 -2 -14 6 -22 17 -9 11 -16 16 -16 10 0 -5 -5 -3 -11 5 -7 10 -9 11 -7 2z"/>
<path d="M4518 2933 c7 -3 16 -2 19 1 4 3 -2 6 -13 5 -11 0 -14 -3 -6 -6z"/>
<path d="M4574 2932 c3 -6 -2 -13 -11 -15 -16 -4 -16 -5 -1 -6 21 -1 32 15 17
25 -7 4 -9 3 -5 -4z"/>
<path d="M5060 2934 c0 -13 18 -39 24 -34 2 3 -2 14 -10 24 -8 11 -14 16 -14
10z"/>
<path d="M5097 2929 c7 -7 15 -10 18 -7 3 3 -2 9 -12 12 -14 6 -15 5 -6 -5z"/>
<path d="M5137 2919 c4 -13 8 -18 11 -10 2 7 -1 18 -6 23 -8 8 -9 4 -5 -13z"/>
<path d="M5173 2925 c-3 -9 -3 -18 -1 -21 3 -3 8 4 11 16 6 23 -1 27 -10 5z"/>
<path d="M5240 2918 l-25 -21 24 8 c18 5 22 4 16 -6 -5 -8 -4 -11 0 -6 6 5 16
49 11 47 -1 -1 -12 -10 -26 -22z"/>
<path d="M5422 2920 c-9 -15 -9 -21 1 -26 6 -4 9 -4 5 1 -4 4 -3 14 4 22 6 7
9 15 7 18 -3 2 -10 -4 -17 -15z"/>
<path d="M5456 2927 c3 -10 9 -15 12 -12 3 3 0 11 -7 18 -10 9 -11 8 -5 -6z"/>
<path d="M5567 2926 c-17 -13 -17 -14 1 -18 12 -4 18 1 18 13 0 11 0 19 -1 19
0 0 -8 -7 -18 -14z"/>
<path d="M5813 2927 c0 -19 34 -18 49 1 12 15 11 16 -4 3 -13 -10 -21 -11 -31
-2 -10 8 -14 7 -14 -2z"/>
<path d="M5929 2923 c-13 -16 -12 -17 4 -4 16 13 21 21 13 21 -2 0 -10 -8 -17
-17z"/>
<path d="M6009 2923 c-13 -16 -12 -17 4 -4 16 13 21 21 13 21 -2 0 -10 -8 -17
-17z"/>
<path d="M6513 2925 c0 -8 4 -12 9 -9 5 3 6 10 3 15 -9 13 -12 11 -12 -6z"/>
<path d="M7715 2931 c-3 -5 -2 -12 3 -15 5 -3 9 1 9 9 0 17 -3 19 -12 6z"/>
<path d="M7793 2925 c0 -8 4 -12 9 -9 5 3 6 10 3 15 -9 13 -12 11 -12 -6z"/>
<path d="M8073 2925 c0 -8 4 -12 9 -9 5 3 6 10 3 15 -9 13 -12 11 -12 -6z"/>
<path d="M8230 2936 c0 -2 8 -10 18 -17 15 -13 16 -12 3 4 -13 16 -21 21 -21
13z"/>
<path d="M470 2925 c0 -7 30 -13 34 -7 3 4 -4 9 -15 9 -10 1 -19 0 -19 -2z"/>
<path d="M656 2918 c3 -5 10 -6 15 -3 13 9 11 12 -6 12 -8 0 -12 -4 -9 -9z"/>
<path d="M765 2920 c-3 -6 1 -7 9 -4 18 7 21 14 7 14 -6 0 -13 -4 -16 -10z"/>
<path d="M806 2918 c3 -4 9 -8 15 -8 5 0 9 4 9 8 0 5 -7 9 -15 9 -8 0 -12 -4
-9 -9z"/>
<path d="M870 2920 c0 -5 5 -10 10 -10 6 0 10 5 10 10 0 6 -4 10 -10 10 -5 0
-10 -4 -10 -10z"/>
<path d="M1217 2916 c-5 -13 31 -46 50 -46 4 0 -4 8 -18 18 -14 9 -24 23 -22
30 6 17 -4 15 -10 -2z"/>
<path d="M1690 2919 c0 -7 3 -10 6 -6 3 3 18 1 33 -4 15 -6 22 -6 16 -1 -18
17 -55 24 -55 11z"/>
<path d="M2033 2915 c0 -8 4 -15 9 -15 4 0 8 7 8 15 0 8 -4 15 -8 15 -5 0 -9
-7 -9 -15z"/>
<path d="M2134 2918 c-4 -7 -3 -8 4 -4 7 4 12 2 12 -3 0 -6 5 -11 10 -11 15 0
12 17 -5 23 -8 4 -17 1 -21 -5z"/>
<path d="M2462 2917 c10 -8 15 -17 11 -21 -4 -4 1 -4 10 0 20 7 20 7 -13 23
-22 11 -23 10 -8 -2z"/>
<path d="M2630 2919 c0 -5 5 -7 10 -4 6 3 10 8 10 11 0 2 -4 4 -10 4 -5 0 -10
-5 -10 -11z"/>
<path d="M2730 2925 c0 -7 30 -13 34 -7 3 4 -4 9 -15 9 -10 1 -19 0 -19 -2z"/>
<path d="M2921 2914 c0 -11 3 -14 6 -6 3 7 2 16 -1 19 -3 4 -6 -2 -5 -13z"/>
<path d="M2974 2919 c-4 -7 -3 -9 4 -5 5 3 13 0 15 -6 4 -9 6 -10 6 -1 1 17
-16 25 -25 12z"/>
<path d="M3038 2923 c7 -3 16 -2 19 1 4 3 -2 6 -13 5 -11 0 -14 -3 -6 -6z"/>
<path d="M3134 2919 c-4 -7 -3 -9 4 -5 5 3 13 0 15 -6 4 -9 6 -10 6 -1 1 17
-16 25 -25 12z"/>
<path d="M3197 2919 c7 -7 15 -10 18 -7 3 3 -2 9 -12 12 -14 6 -15 5 -6 -5z"/>
<path d="M3558 2900 c9 -16 21 -30 25 -30 5 0 -1 14 -13 30 -27 39 -34 39 -12
0z"/>
<path d="M3582 2917 c10 -8 15 -17 11 -21 -4 -4 1 -4 12 0 18 7 18 6 6 -9 -9
-11 -10 -17 -2 -17 6 0 11 5 11 11 0 5 5 7 12 3 8 -5 6 -11 -6 -20 -9 -6 -13
-14 -9 -17 5 -3 14 3 20 13 13 20 -1 37 -47 59 -22 11 -23 10 -8 -2z"/>
<path d="M3686 2917 c3 -10 9 -15 12 -12 3 3 0 11 -7 18 -10 9 -11 8 -5 -6z"/>
<path d="M3754 2921 c3 -5 -1 -12 -9 -15 -14 -5 -14 -9 0 -35 8 -16 12 -36 9
-44 -3 -8 -1 -18 5 -22 7 -4 8 1 4 12 -5 15 -4 16 8 7 11 -9 17 -9 28 3 12 13
11 14 -8 8 -19 -6 -31 8 -13 18 4 2 1 2 -6 0 -8 -1 -12 3 -9 9 2 7 13 12 23
10 18 -2 18 -2 0 9 -14 9 -20 8 -26 -1 -6 -9 -9 -9 -12 1 -3 8 4 19 15 25 17
10 18 12 3 17 -10 4 -15 3 -12 -2z"/>
<path d="M3796 2915 c-9 -26 -7 -32 5 -12 6 10 9 21 6 23 -2 3 -7 -2 -11 -11z"/>
<path d="M3837 2914 c3 -9 0 -14 -7 -12 -7 2 -14 -3 -15 -10 -2 -7 -1 -8 2 -2
7 15 23 1 16 -15 -6 -17 22 -21 32 -5 3 5 0 7 -9 4 -10 -4 -13 0 -11 13 2 10
4 22 4 26 1 5 7 5 14 1 6 -4 8 -3 4 1 -13 15 -36 14 -30 -1z"/>
<path d="M4015 2920 c-3 -5 -3 -10 1 -10 4 0 -1 -6 -12 -14 -13 -10 -16 -18
-8 -25 7 -8 16 -7 30 5 18 15 18 15 -3 4 -14 -6 -23 -7 -23 -1 0 5 5 11 12 13
6 2 12 12 14 21 3 19 -2 22 -11 7z"/>
<path d="M4041 2914 c0 -11 3 -14 6 -6 3 7 2 16 -1 19 -3 4 -6 -2 -5 -13z"/>
<path d="M4075 2919 c-4 -6 -5 -12 -2 -15 2 -3 7 2 10 11 7 17 1 20 -8 4z"/>
<path d="M4134 2918 c-4 -7 -4 -10 1 -6 4 4 19 -5 33 -20 18 -18 24 -21 19 -8
-5 14 -3 17 8 13 8 -4 17 -2 19 2 3 5 -5 7 -17 7 -12 -1 -29 4 -39 12 -13 11
-17 11 -24 0z"/>
<path d="M4198 2923 c7 -3 16 -2 19 1 4 3 -2 6 -13 5 -11 0 -14 -3 -6 -6z"/>
<path d="M4310 2920 c0 -6 7 -10 15 -10 8 0 15 2 15 4 0 2 -7 6 -15 10 -8 3
-15 1 -15 -4z"/>
<path d="M4614 2915 c1 -8 6 -18 11 -22 4 -4 5 -3 2 4 -4 6 -2 13 5 15 8 3 6
6 -4 10 -10 4 -15 2 -14 -7z"/>
<path d="M4659 2919 c-12 -8 -12 -10 1 -8 30 3 41 -1 34 -13 -4 -7 -3 -8 4 -4
16 10 15 14 -6 25 -12 6 -23 6 -33 0z"/>
<path d="M4870 2913 c6 -13 15 -23 20 -23 15 0 21 18 9 26 -8 4 -9 3 -5 -4 11
-19 -5 -14 -21 6 -13 15 -13 15 -3 -5z"/>
<path d="M4920 2920 c8 -5 20 -10 25 -10 6 0 3 5 -5 10 -8 5 -19 10 -25 10 -5
0 -3 -5 5 -10z"/>
<path d="M5004 2919 c-3 -6 -2 -15 4 -21 6 -6 12 -6 17 3 6 8 4 10 -5 4 -10
-6 -12 -4 -7 8 7 19 2 23 -9 6z"/>
<path d="M5320 2920 c-9 -6 -10 -10 -3 -10 6 0 15 5 18 10 8 12 4 12 -15 0z"/>
<path d="M5350 2926 c0 -2 7 -7 16 -10 8 -3 12 -2 9 4 -6 10 -25 14 -25 6z"/>
<path d="M6360 2925 c0 -2 6 -8 13 -14 10 -8 14 -7 14 2 0 8 -6 14 -14 14 -7
0 -13 -1 -13 -2z"/>
<path d="M6536 2913 c-6 -14 -5 -15 5 -6 7 7 10 15 7 18 -3 3 -9 -2 -12 -12z"/>
<path d="M6600 2926 c0 -2 8 -10 18 -17 15 -13 16 -12 3 4 -13 16 -21 21 -21
13z"/>
<path d="M6855 2920 c-3 -5 -1 -10 4 -10 6 0 11 5 11 10 0 6 -2 10 -4 10 -3 0
-8 -4 -11 -10z"/>
<path d="M7015 2920 c-3 -5 -1 -10 4 -10 6 0 11 5 11 10 0 6 -2 10 -4 10 -3 0
-8 -4 -11 -10z"/>
<path d="M7196 2918 c3 -5 10 -6 15 -3 13 9 11 12 -6 12 -8 0 -12 -4 -9 -9z"/>
<path d="M8176 2918 c3 -5 10 -6 15 -3 13 9 11 12 -6 12 -8 0 -12 -4 -9 -9z"/>
<path d="M9424 2922 c4 -3 14 -7 22 -8 9 -1 13 0 10 4 -4 3 -14 7 -22 8 -9 1
-13 0 -10 -4z"/>
<path d="M2336 2911 c-4 -5 3 -7 14 -4 23 6 26 13 6 13 -8 0 -17 -4 -20 -9z"/>
<path d="M3290 2893 c-26 -21 -33 -24 -41 -12 -5 8 -9 18 -9 23 0 5 -3 7 -6 4
-11 -11 17 -49 34 -46 11 2 18 -5 20 -21 2 -14 0 -21 -7 -17 -5 4 -15 -2 -20
-13 -14 -26 -14 -28 5 -35 13 -5 14 -3 6 7 -10 12 -2 40 12 38 20 -3 25 1 19
16 -5 12 -3 14 7 8 8 -5 11 -4 7 2 -4 6 0 13 8 17 18 6 19 2 4 -26 -8 -14 -8
-18 0 -14 6 4 23 -1 38 -10 28 -17 28 -16 -2 9 -32 28 -28 36 8 13 12 -8 33
-13 47 -11 14 1 29 -3 33 -9 5 -6 5 0 1 14 -6 22 -5 23 9 11 9 -7 23 -11 31
-8 16 6 66 -28 66 -44 0 -6 -4 -8 -9 -5 -5 3 -16 -5 -25 -19 -10 -15 -12 -26
-6 -30 6 -4 10 -3 9 2 -5 19 14 41 32 38 10 -2 22 2 25 8 4 7 4 9 -1 5 -10 -9
-40 30 -30 40 3 3 11 0 16 -8 9 -12 10 -12 5 3 -7 22 -1 22 43 -5 26 -16 32
-18 23 -5 -8 9 -22 19 -33 22 -11 4 -17 10 -15 14 3 4 -4 7 -14 7 -10 0 -17
-3 -14 -7 2 -4 -3 -10 -12 -13 -24 -9 -28 -7 -15 8 10 11 8 16 -9 21 -11 3
-18 11 -15 16 4 5 1 9 -4 9 -6 0 -10 -10 -8 -22 1 -17 -3 -23 -17 -23 -11 0
-22 7 -24 15 -5 13 -3 13 11 1 11 -9 17 -10 17 -2 0 6 -5 11 -12 11 -9 0 -9 3
0 12 7 7 12 16 12 21 0 7 -33 -30 -45 -51 -1 -1 -17 -4 -35 -6 -28 -3 -39 2
-63 27 -21 23 -25 32 -15 38 9 6 9 9 1 9 -6 0 -26 -12 -43 -27z m37 -10 c5
-13 -25 -26 -38 -17 -6 3 -5 11 2 20 13 16 31 14 36 -3z m203 -33 c0 -5 -5
-10 -11 -10 -5 0 -7 5 -4 10 3 6 8 10 11 10 2 0 4 -4 4 -10z"/>
<path d="M4830 2910 c0 -5 5 -10 11 -10 5 0 7 5 4 10 -3 6 -8 10 -11 10 -2 0
-4 -4 -4 -10z"/>
<path d="M5874 2912 c3 -5 0 -13 -6 -15 -9 -4 -10 -6 -1 -6 17 -1 25 16 12 25
-7 4 -9 3 -5 -4z"/>
<path d="M5954 2911 c4 -5 0 -11 -6 -14 -7 -3 -3 -4 9 -4 17 1 19 4 11 14 -12
15 -22 18 -14 4z"/>
<path d="M6033 2905 c0 -8 4 -12 9 -9 5 3 6 10 3 15 -9 13 -12 11 -12 -6z"/>
<path d="M6470 2916 c0 -2 8 -10 18 -17 15 -13 16 -12 3 4 -13 16 -21 21 -21
13z"/>
<path d="M8396 2907 c3 -10 9 -15 12 -12 3 3 0 11 -7 18 -10 9 -11 8 -5 -6z"/>
<path d="M390 2900 c0 -5 5 -10 10 -10 6 0 10 5 10 10 0 6 -4 10 -10 10 -5 0
-10 -4 -10 -10z"/>
<path d="M437 2890 c-9 -11 -13 -20 -7 -20 5 0 14 9 20 20 6 11 9 20 8 20 -2
0 -11 -9 -21 -20z"/>
<path d="M590 2890 c6 -11 15 -20 20 -20 6 0 2 9 -7 20 -10 11 -19 20 -21 20
-1 0 2 -9 8 -20z"/>
<path d="M633 2880 c0 -16 2 -28 5 -25 8 8 11 55 3 55 -4 0 -8 -13 -8 -30z"/>
<path d="M1010 2900 c-9 -6 -10 -10 -3 -10 6 0 15 5 18 10 8 12 4 12 -15 0z"/>
<path d="M1069 2892 l24 -19 -24 -8 c-13 -4 -27 -7 -31 -6 -5 1 -8 -4 -8 -10
0 -6 7 -9 15 -6 8 4 17 2 20 -3 4 -6 1 -10 -4 -10 -6 0 -11 -5 -11 -11 0 -8 5
-7 15 1 11 9 13 16 5 24 -7 7 -2 13 16 20 l25 11 -33 18 c-33 19 -33 19 -9 -1z"/>
<path d="M1264 2896 c11 -9 24 -16 30 -16 12 0 7 5 -24 19 -24 11 -24 11 -6
-3z"/>
<path d="M1430 2900 c0 -5 5 -10 10 -10 6 0 10 5 10 10 0 6 -4 10 -10 10 -5 0
-10 -4 -10 -10z"/>
<path d="M1497 2904 c-8 -8 3 -34 15 -34 6 0 4 8 -3 17 -12 15 -12 16 4 10 9
-3 17 -2 17 3 0 11 -23 14 -33 4z"/>
<path d="M1663 2903 c-7 -2 -13 -11 -13 -19 0 -8 -4 -14 -9 -14 -20 0 -21 -35
-1 -63 20 -26 20 -28 3 -25 -10 2 -21 12 -24 23 -3 11 -11 19 -17 18 -16 -4
-15 3 4 33 21 31 12 41 -18 19 -17 -13 -18 -16 -5 -11 12 4 17 2 15 -6 -2 -6
-17 -13 -34 -14 -50 -6 -54 -7 -54 -16 0 -5 8 -7 19 -3 30 9 46 -23 27 -55 -7
-12 -6 -13 4 -3 11 10 16 9 25 -4 10 -13 14 -13 20 -3 5 8 4 11 -2 7 -10 -7
-23 12 -29 42 -1 8 -9 18 -16 22 -10 7 -9 9 3 9 9 0 20 -7 23 -16 3 -8 10 -13
15 -9 5 3 11 -4 13 -16 2 -13 11 -23 22 -25 20 -3 56 16 56 30 0 4 -6 3 -14
-3 -12 -10 -17 -8 -25 7 -10 19 -6 32 10 32 5 0 6 -8 3 -17 -5 -15 -4 -15 4
-3 9 12 13 12 29 -2 19 -16 43 -14 43 4 0 7 -5 6 -14 -1 -11 -9 -13 -6 -13 14
0 21 2 23 13 14 12 -10 13 -9 8 5 -4 10 -13 15 -21 12 -8 -3 -17 -6 -20 -6 -3
0 1 -8 8 -17 12 -15 12 -16 -4 -10 -10 4 -21 7 -23 7 -3 0 -2 6 3 13 4 6 -5 4
-20 -6 -30 -19 -38 -6 -8 15 10 7 19 18 20 23 4 18 11 19 11 2 0 -9 5 -17 10
-17 7 0 7 6 0 20 -6 11 -12 20 -13 19 -1 0 -8 -3 -14 -6z"/>
<path d="M1997 2899 c7 -7 15 -10 18 -7 3 3 -2 9 -12 12 -14 6 -15 5 -6 -5z"/>
<path d="M3050 2906 c0 -2 7 -9 15 -16 13 -11 14 -10 9 4 -5 14 -24 23 -24 12z"/>
<path d="M3350 2900 c0 -5 5 -10 10 -10 6 0 10 5 10 10 0 6 -4 10 -10 10 -5 0
-10 -4 -10 -10z"/>
<path d="M3530 2905 c0 -15 18 -40 24 -34 3 3 -1 14 -9 25 -8 10 -14 15 -15 9z"/>
<path d="M4100 2895 c7 -8 16 -13 20 -10 4 3 10 -2 14 -10 6 -16 36 -21 36 -5
0 5 -7 6 -17 3 -11 -4 -14 -3 -9 5 6 11 -5 17 -26 13 -5 0 -8 4 -8 9 0 6 -5
10 -11 10 -8 0 -8 -5 1 -15z"/>
<path d="M4254 2898 c-7 -11 5 -28 19 -27 9 0 9 2 0 6 -20 7 -15 19 7 20 13 1
18 -2 14 -9 -4 -7 -2 -8 5 -4 6 4 9 11 6 16 -6 10 -45 9 -51 -2z"/>
<path d="M4350 2900 c0 -5 5 -10 10 -10 6 0 10 5 10 10 0 6 -4 10 -10 10 -5 0
-10 -4 -10 -10z"/>
<path d="M4417 2902 c-3 -4 -3 -15 -2 -25 2 -10 -2 -16 -8 -14 -7 3 -11 10 -9
16 1 6 -2 11 -8 11 -13 0 -13 -17 0 -25 6 -4 4 -12 -5 -21 -19 -20 -9 -37 16
-29 15 5 18 3 13 -12 -5 -14 -4 -15 4 -3 15 20 4 32 -21 25 -18 -5 -15 0 11
22 25 22 30 31 21 40 -9 9 -7 12 10 10 14 -1 28 -15 42 -44 11 -24 25 -41 29
-38 5 3 11 0 13 -5 3 -6 4 -5 3 2 -2 7 -8 12 -14 11 -10 -2 -27 43 -23 60 1 5
-3 6 -8 3 -5 -4 -11 -1 -13 6 -5 13 -45 21 -51 10z"/>
<path d="M4590 2901 c0 -6 4 -13 10 -16 6 -3 7 1 4 9 -7 18 -14 21 -14 7z"/>
<path d="M4750 2900 c0 -5 7 -7 15 -4 8 4 15 8 15 10 0 2 -7 4 -15 4 -8 0 -15
-4 -15 -10z"/>
<path d="M5115 2900 c3 -5 8 -10 11 -10 2 0 4 5 4 10 0 6 -5 10 -11 10 -5 0
-7 -4 -4 -10z"/>
<path d="M5190 2899 c0 -5 5 -7 10 -4 6 3 10 8 10 11 0 2 -4 4 -10 4 -5 0 -10
-5 -10 -11z"/>
<path d="M5346 2897 c3 -10 9 -15 12 -12 3 3 0 11 -7 18 -10 9 -11 8 -5 -6z"/>
<path d="M5393 2891 c0 -11 5 -18 9 -15 4 3 5 11 1 19 -7 21 -12 19 -10 -4z"/>
<path d="M5525 2899 c-4 -6 -5 -12 -2 -15 2 -3 7 2 10 11 7 17 1 20 -8 4z"/>
<path d="M5636 2898 c5 -7 2 -9 -9 -5 -11 4 -14 2 -10 -9 4 -11 9 -12 19 -3
12 10 11 29 -2 29 -3 0 -2 -5 2 -12z"/>
<path d="M6347 2901 c9 -10 9 -20 2 -35 -9 -19 -9 -19 4 -4 9 12 17 14 24 7 6
-6 10 -5 10 6 0 8 -3 13 -5 10 -3 -3 -15 3 -26 12 -12 10 -16 11 -9 4z"/>
<path d="M6559 2893 c-13 -16 -12 -17 4 -4 9 7 17 15 17 17 0 8 -8 3 -21 -13z"/>
<path d="M7315 2901 c-3 -5 -2 -12 3 -15 5 -3 9 1 9 9 0 17 -3 19 -12 6z"/>
<path d="M7610 2900 c0 -5 5 -10 11 -10 5 0 7 5 4 10 -3 6 -8 10 -11 10 -2 0
-4 -4 -4 -10z"/>
<path d="M8094 2902 c4 -3 14 -7 22 -8 9 -1 13 0 10 4 -4 3 -14 7 -22 8 -9 1
-13 0 -10 -4z"/>
<path d="M8336 2898 c3 -4 11 -5 19 -1 21 7 19 12 -4 10 -11 0 -18 -5 -15 -9z"/>
<path d="M755 2890 c-3 -5 -2 -18 4 -27 7 -14 9 -12 8 10 -2 30 -3 31 -12 17z"/>
<path d="M854 2892 c-9 -5 -8 -10 1 -19 11 -10 13 -9 12 7 -1 11 -1 20 -2 20
0 0 -5 -4 -11 -8z"/>
<path d="M1188 2893 c6 -2 10 -9 6 -14 -3 -5 -2 -8 3 -7 15 4 53 -22 53 -37 0
-21 -17 -19 -24 3 -4 14 -5 14 -3 -2 3 -25 25 -32 34 -10 4 12 -4 25 -28 45
-19 16 -38 28 -44 28 -5 0 -4 -3 3 -6z"/>
<path d="M1313 2879 c-2 -23 3 -25 10 -4 4 8 3 16 -1 19 -4 3 -9 -4 -9 -15z"/>
<path d="M1356 2885 c-3 -8 -1 -15 4 -15 6 0 10 7 10 15 0 8 -2 15 -4 15 -2 0
-6 -7 -10 -15z"/>
<path d="M1541 2895 c0 -5 3 -16 8 -23 7 -11 9 -10 14 3 4 9 3 14 -2 10 -5 -3
-12 1 -14 7 -3 7 -6 9 -6 3z"/>
<path d="M4632 2884 c-7 -8 -8 -14 -3 -14 10 0 25 19 20 25 -2 1 -10 -3 -17
-11z"/>
<path d="M4670 2891 c0 -10 19 -25 25 -20 1 2 -3 10 -11 17 -8 7 -14 8 -14 3z"/>
<path d="M4730 2891 c0 -7 -4 -10 -8 -7 -4 2 -9 -5 -9 -16 -2 -21 -2 -21 14 1
8 12 12 25 9 28 -3 4 -6 1 -6 -6z"/>
<path d="M4915 2890 c-3 -6 1 -7 9 -4 18 7 21 14 7 14 -6 0 -13 -4 -16 -10z"/>
<path d="M5828 2893 c7 -3 16 -2 19 1 4 3 -2 6 -13 5 -11 0 -14 -3 -6 -6z"/>
<path d="M5995 2890 c-3 -6 1 -7 9 -4 18 7 21 14 7 14 -6 0 -13 -4 -16 -10z"/>
<path d="M6090 2896 c0 -2 8 -10 18 -17 15 -13 16 -12 3 4 -13 16 -21 21 -21
13z"/>
<path d="M6214 2889 c-3 -6 -2 -15 3 -20 5 -5 9 -1 9 11 0 23 -2 24 -12 9z"/>
<path d="M6294 2880 c0 -13 4 -16 10 -10 7 7 7 13 0 20 -6 6 -10 3 -10 -10z"/>
<path d="M6450 2896 c0 -2 8 -10 18 -17 15 -13 16 -12 3 4 -13 16 -21 21 -21
13z"/>
<path d="M6694 2889 c-3 -6 -2 -15 3 -20 5 -5 9 -1 9 11 0 23 -2 24 -12 9z"/>
<path d="M7235 2891 c-3 -5 -2 -12 3 -15 5 -3 9 1 9 9 0 17 -3 19 -12 6z"/>
<path d="M7713 2885 c0 -8 4 -15 9 -15 4 0 8 4 8 9 0 6 -4 12 -8 15 -5 3 -9
-1 -9 -9z"/>
<path d="M8189 2883 c-13 -16 -12 -17 4 -4 9 7 17 15 17 17 0 8 -8 3 -21 -13z"/>
<path d="M206 2878 c3 -4 9 -8 15 -8 5 0 9 4 9 8 0 5 -7 9 -15 9 -8 0 -12 -4
-9 -9z"/>
<path d="M270 2869 c-17 -13 -18 -17 -5 -10 33 17 51 31 40 31 -5 0 -21 -10
-35 -21z"/>
<path d="M362 2877 c10 -8 14 -18 10 -22 -4 -5 -1 -5 6 -1 17 10 15 14 -10 26
-21 10 -21 10 -6 -3z"/>
<path d="M456 2875 c-6 -17 16 -31 33 -21 5 4 9 -2 8 -13 -1 -14 -8 -19 -21
-18 -15 2 -20 -4 -21 -23 0 -16 5 -24 14 -22 9 2 11 -3 7 -15 -6 -17 -5 -17 7
-1 8 10 18 14 22 10 5 -4 5 -2 1 5 -3 6 -15 10 -26 8 -13 -3 -18 2 -17 15 1
13 8 18 21 17 15 -2 20 4 21 23 0 20 -4 24 -22 22 -17 -2 -21 1 -17 12 3 9 4
16 1 16 -3 0 -8 -7 -11 -15z"/>
<path d="M510 2879 c0 -5 4 -8 9 -5 5 3 11 -1 15 -9 3 -8 1 -17 -4 -20 -6 -4
-10 -11 -10 -18 0 -6 7 -2 15 10 9 12 22 20 29 17 19 -7 27 9 14 26 -8 12 -9
12 -5 -2 7 -20 -30 -21 -37 -1 -6 16 -26 17 -26 2z"/>
<path d="M680 2877 c0 -9 -5 -16 -12 -14 -19 4 -21 -31 -2 -55 10 -15 14 -17
11 -6 -4 11 2 23 16 33 12 8 17 15 13 15 -5 0 -18 -7 -28 -17 -17 -15 -18 -15
-18 6 0 12 4 19 10 16 11 -7 26 22 16 32 -3 4 -6 -1 -6 -10z"/>
<path d="M710 2872 c6 -13 16 -20 22 -16 8 5 9 1 5 -10 -4 -10 -3 -15 3 -11 6
3 10 1 10 -6 0 -7 3 -10 6 -7 3 4 0 16 -6 28 -6 12 -14 19 -17 16 -3 -3 -12 2
-20 12 -13 15 -13 15 -3 -6z"/>
<path d="M780 2880 c0 -5 5 -10 10 -10 6 0 10 5 10 10 0 6 -4 10 -10 10 -5 0
-10 -4 -10 -10z"/>
<path d="M895 2879 c-4 -6 -4 -13 0 -17 6 -7 10 -8 36 -11 5 0 7 -5 4 -11 -3
-5 -1 -10 4 -10 6 0 11 4 11 10 0 12 -35 31 -44 23 -3 -3 -6 -1 -6 5 0 5 6 13
13 15 9 4 9 6 0 6 -6 1 -15 -4 -18 -10z"/>
<path d="M960 2880 c-8 -5 -12 -11 -10 -14 3 -2 14 2 24 10 22 15 10 19 -14 4z"/>
<path d="M1020 2880 c-12 -7 -10 -9 8 -7 12 0 22 5 22 9 0 11 -12 10 -30 -2z"/>
<path d="M1133 2873 c-13 -8 -23 -21 -23 -27 0 -7 3 -8 8 0 4 5 18 18 32 27
13 9 20 17 15 16 -6 0 -20 -7 -32 -16z"/>
<path d="M1382 2865 c-17 -21 -21 -23 -32 -10 -11 13 -16 11 -39 -14 -14 -15
-35 -31 -45 -35 -10 -4 -16 -9 -13 -12 8 -8 48 16 68 40 10 12 21 17 25 13 5
-4 4 -11 -1 -15 -15 -11 -41 -47 -29 -39 7 4 14 1 17 -6 7 -18 50 -15 55 4 2
8 0 10 -5 4 -12 -15 -41 -14 -47 1 -7 17 30 43 52 37 10 -2 22 5 30 17 15 24
4 27 -14 3 -7 -10 -15 -15 -19 -11 -4 3 3 16 14 27 12 12 17 21 12 21 -5 0
-18 -11 -29 -25z"/>
<path d="M1477 2866 c10 -13 21 -22 25 -20 4 3 -2 14 -12 24 -27 27 -35 25
-13 -4z"/>
<path d="M2340 2880 c0 -5 5 -10 10 -10 6 0 10 5 10 10 0 6 -4 10 -10 10 -5 0
-10 -4 -10 -10z"/>
<path d="M3657 2865 c-21 -29 -16 -42 20 -56 22 -8 23 -11 12 -26 -12 -14 -12
-16 0 -8 11 6 13 3 9 -13 -4 -12 -2 -20 2 -17 5 3 8 19 8 35 -1 22 -8 32 -30
41 -35 14 -36 27 -3 27 13 0 22 -4 20 -8 -3 -4 2 -11 10 -14 9 -3 19 -16 24
-29 9 -23 41 -34 41 -14 0 5 -7 7 -15 3 -10 -3 -16 1 -16 12 -1 9 -3 24 -3 32
-3 28 -17 60 -28 60 -6 0 -3 -11 6 -25 18 -28 20 -35 7 -35 -5 0 -13 9 -16 21
-5 16 -10 18 -21 8 -17 -14 -19 2 -2 19 7 7 8 12 3 12 -6 0 -18 -12 -28 -25z"/>
<path d="M3892 2874 c-12 -8 -22 -19 -22 -25 0 -5 9 0 21 12 l20 20 36 -36
c20 -20 37 -34 40 -32 3 4 -65 77 -71 77 -1 0 -12 -7 -24 -16z"/>
<path d="M4030 2859 c-38 -45 -38 -45 2 -14 20 17 37 33 37 38 2 15 -15 5 -39
-24z"/>
<path d="M4080 2887 c0 -2 11 -13 25 -25 14 -12 25 -18 25 -13 0 5 -11 16 -25
25 -14 9 -25 15 -25 13z"/>
<path d="M4295 2869 c-16 -10 -24 -19 -17 -19 8 0 25 9 39 20 32 25 18 25 -22
-1z"/>
<path d="M4560 2880 c0 -5 5 -10 10 -10 6 0 10 5 10 10 0 6 -4 10 -10 10 -5 0
-10 -4 -10 -10z"/>
<path d="M4761 2873 c-5 -10 -13 -16 -18 -13 -4 3 -9 -6 -10 -20 -1 -23 -1
-23 4 -2 4 19 7 21 19 11 8 -7 14 -8 13 -3 -4 21 2 35 11 29 6 -3 10 -1 10 4
0 17 -18 13 -29 -6z"/>
<path d="M4810 2886 c0 -2 7 -7 16 -10 8 -3 12 -2 9 4 -6 10 -25 14 -25 6z"/>
<path d="M4850 2880 c0 -5 5 -10 10 -10 6 0 10 5 10 10 0 6 -4 10 -10 10 -5 0
-10 -4 -10 -10z"/>
<path d="M4950 2878 c0 -4 4 -8 9 -8 6 0 12 4 15 8 3 5 -1 9 -9 9 -8 0 -15 -4
-15 -9z"/>
<path d="M5090 2886 c0 -2 7 -7 16 -10 8 -3 12 -2 9 4 -6 10 -25 14 -25 6z"/>
<path d="M5135 2880 c-3 -5 -3 -10 2 -10 4 0 1 -5 -7 -11 -12 -8 -12 -10 -1
-7 8 2 15 12 17 21 3 19 -2 22 -11 7z"/>
<path d="M5176 2876 c6 -15 4 -17 -6 -11 -9 6 -11 4 -5 -4 5 -9 10 -10 18 -2
8 8 7 14 -2 24 -10 10 -11 8 -5 -7z"/>
<path d="M5216 2878 c3 -4 9 -8 15 -8 5 0 9 4 9 8 0 5 -7 9 -15 9 -8 0 -12 -4
-9 -9z"/>
<path d="M5271 2874 c0 -11 3 -14 6 -6 3 7 2 16 -1 19 -3 4 -6 -2 -5 -13z"/>
<path d="M5331 2874 c0 -11 3 -14 6 -6 3 7 2 16 -1 19 -3 4 -6 -2 -5 -13z"/>
<path d="M5495 2880 c-3 -5 -1 -10 4 -10 6 0 11 5 11 10 0 6 -2 10 -4 10 -3 0
-8 -4 -11 -10z"/>
<path d="M5551 2873 c7 -12 15 -20 18 -17 3 2 -3 12 -13 22 -17 16 -18 16 -5
-5z"/>
<path d="M5697 2876 c-4 -11 -1 -13 10 -9 12 5 14 3 8 -7 -5 -9 -4 -11 4 -6 9
6 9 11 0 22 -14 17 -16 17 -22 0z"/>
<path d="M6040 2880 c-9 -6 -10 -10 -3 -10 6 0 15 5 18 10 8 12 4 12 -15 0z"/>
<path d="M6155 2880 c3 -5 8 -10 11 -10 2 0 4 5 4 10 0 6 -5 10 -11 10 -5 0
-7 -4 -4 -10z"/>
<path d="M7030 2881 c0 -6 4 -12 8 -15 5 -3 9 1 9 9 0 8 -4 15 -9 15 -4 0 -8
-4 -8 -9z"/>
<path d="M7675 2880 c3 -5 8 -10 11 -10 2 0 4 5 4 10 0 6 -5 10 -11 10 -5 0
-7 -4 -4 -10z"/>
<path d="M7907 2879 c7 -7 15 -10 18 -7 3 3 -2 9 -12 12 -14 6 -15 5 -6 -5z"/>
<path d="M7950 2886 c0 -2 7 -7 16 -10 8 -3 12 -2 9 4 -6 10 -25 14 -25 6z"/>
<path d="M8017 2875 c-4 -8 -3 -16 1 -19 4 -3 9 4 9 15 2 23 -3 25 -10 4z"/>
<path d="M8140 2880 c-9 -6 -10 -10 -3 -10 6 0 15 5 18 10 8 12 4 12 -15 0z"/>
<path d="M304 2865 c-18 -15 -18 -15 0 -8 14 5 17 3 11 -6 -6 -10 -3 -11 14
-2 25 14 28 23 4 14 -11 -4 -14 -3 -9 5 10 16 4 15 -20 -3z"/>
<path d="M815 2871 c-6 -11 33 -36 43 -27 3 3 0 6 -7 6 -7 0 -9 4 -6 10 4 6
-1 7 -11 3 -12 -4 -15 -3 -10 5 4 7 5 12 2 12 -3 0 -7 -4 -11 -9z"/>
<path d="M1440 2877 c0 -3 7 -13 16 -22 19 -19 11 -33 -10 -16 -11 9 -15 8
-20 -5 -9 -23 -7 -31 3 -15 8 12 12 12 25 2 16 -13 13 -31 -5 -31 -6 0 -7 6
-3 13 4 6 -2 3 -14 -7 -12 -11 -22 -24 -22 -30 0 -6 5 -4 10 4 5 8 10 11 10 6
0 -4 11 -1 25 8 14 9 25 13 25 9 0 -5 5 0 11 10 6 10 8 21 5 24 -3 4 -6 1 -6
-5 0 -7 -5 -12 -11 -12 -6 0 -8 8 -5 18 4 12 -1 26 -14 37 -11 10 -20 15 -20
12z"/>
<path d="M3970 2860 c13 -11 25 -20 28 -20 3 0 -3 9 -13 20 -10 11 -23 20 -28
20 -6 0 0 -9 13 -20z"/>
<path d="M4356 2867 c3 -10 9 -15 12 -12 3 3 0 11 -7 18 -10 9 -11 8 -5 -6z"/>
<path d="M5600 2871 c0 -6 4 -13 10 -16 6 -3 7 1 4 9 -7 18 -14 21 -14 7z"/>
<path d="M6430 2876 c0 -2 8 -10 18 -17 15 -13 16 -12 3 4 -13 16 -21 21 -21
13z"/>
<path d="M130 2860 c0 -5 5 -10 11 -10 5 0 7 5 4 10 -3 6 -8 10 -11 10 -2 0
-4 -4 -4 -10z"/>
<path d="M974 2858 c-5 -8 -2 -9 10 -5 14 6 17 3 12 -8 -3 -9 -2 -13 4 -10 6
3 10 1 10 -6 0 -7 3 -10 6 -7 7 8 -14 48 -26 48 -5 0 -12 -5 -16 -12z"/>
<path d="M1159 2868 c-1 -2 -3 -16 -5 -33 -2 -20 0 -25 5 -16 5 8 7 20 4 28
-4 9 0 11 13 6 12 -4 15 -3 10 5 -6 11 -24 17 -27 10z"/>
<path d="M1284 2862 c-13 -8 -15 -44 -2 -36 5 3 6 9 3 14 -3 4 1 10 7 13 7 2
11 7 8 10 -3 3 -10 3 -16 -1z"/>
<path d="M1525 2860 c-3 -5 -1 -10 4 -10 6 0 11 5 11 10 0 6 -2 10 -4 10 -3 0
-8 -4 -11 -10z"/>
<path d="M3806 2861 c-3 -5 1 -11 9 -14 9 -4 12 -1 8 9 -6 16 -10 17 -17 5z"/>
<path d="M4230 2861 c0 -5 5 -11 11 -13 9 -3 9 -10 0 -26 -6 -12 -9 -22 -7
-22 11 0 26 40 20 54 -7 17 -24 22 -24 7z"/>
<path d="M4331 2865 c0 -5 6 -19 14 -29 8 -11 15 -15 15 -10 0 6 -7 19 -15 30
-8 10 -14 15 -14 9z"/>
<path d="M4442 2858 c-7 -7 -12 -16 -12 -20 0 -12 28 -10 36 3 10 17 -10 31
-24 17z m18 -8 c0 -5 -5 -10 -11 -10 -5 0 -7 5 -4 10 3 6 8 10 11 10 2 0 4 -4
4 -10z"/>
<path d="M4540 2855 c15 -18 0 -20 -20 -2 -12 10 -12 9 -1 -5 9 -12 21 -16 38
-12 17 5 23 3 21 -7 -2 -9 6 -14 22 -14 16 0 24 5 22 14 -2 9 3 11 13 7 9 -3
14 -2 11 3 -3 5 1 12 10 15 9 4 14 9 11 12 -8 9 -58 -27 -51 -37 3 -5 -4 -9
-16 -9 -12 0 -18 4 -15 11 4 6 -2 13 -14 16 -12 3 -21 9 -21 14 0 5 -5 9 -11
9 -8 0 -8 -5 1 -15z"/>
<path d="M4590 2860 c0 -5 5 -10 10 -10 6 0 10 5 10 10 0 6 -4 10 -10 10 -5 0
-10 -4 -10 -10z"/>
<path d="M4790 2859 c-12 -8 -10 -9 9 -4 13 4 21 3 18 -2 -3 -5 -1 -15 4 -23
7 -11 8 -9 6 9 -4 29 -16 35 -37 20z"/>
<path d="M4899 2863 c-1 -4 -1 -11 0 -15 2 -12 -17 -10 -22 2 -3 6 -4 5 -3 -2
2 -7 9 -13 17 -13 8 0 13 6 12 13 -2 6 6 12 17 12 11 0 19 -6 18 -12 -2 -8 7
-13 20 -13 12 0 22 5 21 10 0 6 10 13 23 17 22 7 22 7 -2 5 -14 -1 -24 -8 -22
-15 1 -6 -7 -12 -18 -12 -11 0 -19 6 -17 12 1 7 -8 14 -20 16 -13 2 -24 0 -24
-5z"/>
<path d="M5038 2863 c7 -3 16 -2 19 1 4 3 -2 6 -13 5 -11 0 -14 -3 -6 -6z"/>
<path d="M5081 2864 c11 -3 15 -12 12 -23 -3 -10 -1 -21 4 -24 5 -3 8 7 7 21
0 19 -7 28 -20 29 -14 1 -15 1 -3 -3z"/>
<path d="M5192 2850 c-18 -29 -15 -38 4 -12 9 13 14 25 12 27 -2 2 -9 -5 -16
-15z"/>
<path d="M5310 2865 c0 -5 5 -17 10 -25 5 -8 10 -10 10 -5 0 6 -5 17 -10 25
-5 8 -10 11 -10 5z"/>
<path d="M5350 2861 c0 -6 4 -13 10 -16 6 -3 7 1 4 9 -7 18 -14 21 -14 7z"/>
<path d="M5370 2866 c0 -2 11 -11 25 -20 14 -9 25 -13 25 -8 0 5 -11 14 -25
20 -14 6 -25 10 -25 8z"/>
<path d="M5470 2860 c0 -5 5 -10 11 -10 5 0 7 5 4 10 -3 6 -8 10 -11 10 -2 0
-4 -4 -4 -10z"/>
<path d="M5535 2860 c5 -9 1 -11 -16 -6 -13 3 -18 3 -11 0 6 -3 10 -10 7 -14
-3 -5 0 -12 7 -16 7 -4 10 -4 6 1 -4 4 0 13 9 20 13 9 13 14 3 20 -9 6 -11 4
-5 -5z"/>
<path d="M5875 2861 c-3 -5 0 -13 6 -17 7 -4 9 -3 5 4 -3 5 0 13 6 15 9 4 10
6 1 6 -6 1 -14 -3 -18 -8z"/>
<path d="M5987 2859 c7 -7 15 -10 18 -7 3 3 -2 9 -12 12 -14 6 -15 5 -6 -5z"/>
<path d="M6067 2859 c7 -7 15 -10 18 -7 3 3 -2 9 -12 12 -14 6 -15 5 -6 -5z"/>
<path d="M6600 2855 c-7 -9 -11 -17 -9 -20 3 -2 10 5 17 15 14 24 10 26 -8 5z"/>
<path d="M7065 2860 c-3 -6 1 -7 9 -4 18 7 21 14 7 14 -6 0 -13 -4 -16 -10z"/>
<path d="M8350 2861 c0 -6 4 -13 10 -16 6 -3 7 1 4 9 -7 18 -14 21 -14 7z"/>
<path d="M106 2843 c-6 -14 -5 -15 5 -6 7 7 10 15 7 18 -3 3 -9 -2 -12 -12z"/>
<path d="M156 2843 c-6 -14 -5 -15 5 -6 7 7 10 15 7 18 -3 3 -9 -2 -12 -12z"/>
<path d="M195 2843 c1 -10 -2 -24 -8 -31 -7 -9 -6 -11 5 -7 16 6 22 55 8 55
-5 0 -7 -8 -5 -17z"/>
<path d="M1190 2838 c-29 -44 -31 -48 -21 -48 5 0 13 9 16 20 4 11 10 18 14
16 4 -3 8 4 8 15 2 24 1 24 -17 -3z"/>
<path d="M3880 2830 c-32 -31 -36 -40 -20 -40 6 0 10 7 10 16 0 8 3 13 8 11 4
-3 15 6 25 19 25 33 14 30 -23 -6z"/>
<path d="M4063 2853 c-7 -2 -13 -11 -13 -19 0 -9 -4 -12 -10 -9 -5 3 -10 1
-10 -4 0 -18 19 -12 30 9 6 11 15 18 21 15 5 -4 9 -1 9 4 0 12 -7 13 -27 4z"/>
<path d="M4841 2844 c0 -11 3 -14 6 -6 3 7 2 16 -1 19 -3 4 -6 -2 -5 -13z"/>
<path d="M5442 2840 c-15 -25 -15 -30 0 -30 6 0 8 3 5 7 -4 3 -2 12 5 20 6 7
9 15 7 18 -3 2 -10 -5 -17 -15z"/>
<path d="M6108 2853 c7 -3 16 -2 19 1 4 3 -2 6 -13 5 -11 0 -14 -3 -6 -6z"/>
<path d="M6159 2858 c-4 -12 -5 -57 0 -53 6 6 10 55 4 55 -1 0 -3 -1 -4 -2z"/>
<path d="M6249 2843 c-13 -16 -12 -17 4 -4 9 7 17 15 17 17 0 8 -8 3 -21 -13z"/>
<path d="M6413 2847 c0 -7 9 -14 20 -14 11 -1 18 -1 16 0 -2 2 -11 8 -20 15
-12 9 -16 9 -16 -1z"/>
<path d="M7475 2851 c-3 -5 -2 -12 3 -15 5 -3 9 1 9 9 0 17 -3 19 -12 6z"/>
<path d="M260 2828 c-10 -21 -10 -21 3 -6 8 10 18 14 22 10 5 -4 5 -1 1 6 -10
17 -14 15 -26 -10z"/>
<path d="M350 2840 c0 -6 7 -10 15 -10 8 0 15 2 15 4 0 2 -7 6 -15 10 -8 3
-15 1 -15 -4z"/>
<path d="M430 2840 c-13 -8 -12 -10 3 -10 9 0 17 5 17 10 0 12 -1 12 -20 0z"/>
<path d="M598 2843 c7 -3 16 -2 19 1 4 3 -2 6 -13 5 -11 0 -14 -3 -6 -6z"/>
<path d="M795 2840 c27 -12 43 -12 25 0 -8 5 -22 9 -30 9 -10 0 -8 -3 5 -9z"/>
<path d="M870 2840 c0 -5 5 -10 10 -10 6 0 10 5 10 10 0 6 -4 10 -10 10 -5 0
-10 -4 -10 -10z"/>
<path d="M1091 2839 c-1 -19 23 -42 32 -32 4 3 7 1 7 -5 0 -7 5 -12 11 -12 8
0 8 4 0 14 -6 7 -9 22 -5 32 3 13 1 11 -8 -4 l-14 -23 -12 23 c-7 16 -11 18
-11 7z"/>
<path d="M3837 2836 c-21 -16 -22 -23 -2 -23 8 0 12 4 9 8 -2 4 2 9 8 12 7 2
11 7 8 10 -3 3 -13 0 -23 -7z"/>
<path d="M4096 2834 c-4 -9 -4 -19 -1 -22 2 -3 7 3 11 12 4 9 4 19 1 22 -2 3
-7 -3 -11 -12z"/>
<path d="M4141 2842 c-1 -8 8 -16 19 -19 11 -3 18 -8 16 -12 -3 -4 -1 -13 5
-21 6 -11 9 -12 9 -2 0 8 5 10 13 6 6 -4 3 2 -7 14 -11 12 -25 22 -32 22 -7 0
-15 6 -17 13 -4 9 -6 9 -6 -1z"/>
<path d="M4314 2842 c3 -5 1 -12 -6 -14 -6 -2 -13 -15 -15 -29 -2 -18 -1 -20
6 -9 5 8 7 18 5 22 -3 4 2 8 10 8 19 0 21 16 4 26 -6 4 -8 3 -4 -4z"/>
<path d="M4678 2843 c7 -3 16 -2 19 1 4 3 -2 6 -13 5 -11 0 -14 -3 -6 -6z"/>
<path d="M5010 2835 c0 -8 2 -15 4 -15 2 0 6 7 10 15 3 8 1 15 -4 15 -6 0 -10
-7 -10 -15z"/>
<path d="M5056 2835 c4 -8 8 -15 10 -15 2 0 4 7 4 15 0 8 -4 15 -10 15 -5 0
-7 -7 -4 -15z"/>
<path d="M5150 2840 c0 -5 5 -10 11 -10 5 0 7 5 4 10 -3 6 -8 10 -11 10 -2 0
-4 -4 -4 -10z"/>
<path d="M5220 2841 c0 -9 30 -24 36 -18 2 1 -6 8 -16 15 -11 7 -20 8 -20 3z"/>
<path d="M5252 2846 c2 -1 12 -8 22 -16 11 -8 17 -10 13 -3 -4 6 -1 13 5 16 7
2 0 4 -15 4 -15 0 -27 0 -25 -1z"/>
<path d="M5575 2840 c-6 -9 -4 -11 5 -5 10 6 12 4 6 -11 -4 -10 -4 -15 0 -12
3 4 14 -2 24 -14 13 -17 17 -18 17 -5 0 9 -5 13 -10 10 -7 -4 -8 1 -3 13 4 10
4 15 0 11 -4 -4 -12 1 -19 10 -9 13 -14 13 -20 3z"/>
<path d="M5630 2839 c0 -5 5 -7 10 -4 6 3 10 8 10 11 0 2 -4 4 -10 4 -5 0 -10
-5 -10 -11z"/>
<path d="M5676 2835 c-9 -26 -7 -32 5 -12 6 10 9 21 6 23 -2 3 -7 -2 -11 -11z"/>
<path d="M5932 2841 c-11 -7 -11 -9 0 -14 9 -3 15 1 15 9 0 8 -1 14 -1 14 -1
0 -7 -4 -14 -9z"/>
<path d="M5973 2835 c0 -7 8 -10 19 -7 10 2 18 6 18 7 0 1 -8 5 -18 7 -11 3
-19 0 -19 -7z"/>
<path d="M6051 2834 c0 -11 3 -14 6 -6 3 7 2 16 -1 19 -3 4 -6 -2 -5 -13z"/>
<path d="M6191 2827 c-13 -21 -12 -21 5 -5 10 10 16 20 13 22 -3 3 -11 -5 -18
-17z"/>
<path d="M6277 2832 c-15 -16 -15 -19 -2 -19 8 0 13 3 10 5 -3 3 0 11 6 19 17
20 5 16 -14 -5z"/>
<path d="M6360 2845 c0 -2 6 -8 13 -14 10 -8 14 -7 14 2 0 8 -6 14 -14 14 -7
0 -13 -1 -13 -2z"/>
<path d="M6653 2833 c0 -9 4 -10 12 -3 7 5 15 7 18 3 4 -3 7 -1 7 5 0 6 -8 10
-18 9 -10 0 -19 -7 -19 -14z"/>
<path d="M6933 2835 c0 -8 4 -12 9 -9 4 3 8 9 8 15 0 5 -4 9 -8 9 -5 0 -9 -7
-9 -15z"/>
<path d="M7156 2833 c-6 -14 -5 -15 5 -6 7 7 10 15 7 18 -3 3 -9 -2 -12 -12z"/>
<path d="M7550 2839 c0 -5 5 -7 10 -4 6 3 10 8 10 11 0 2 -4 4 -10 4 -5 0 -10
-5 -10 -11z"/>
<path d="M7630 2846 c0 -2 7 -7 16 -10 8 -3 12 -2 9 4 -6 10 -25 14 -25 6z"/>
<path d="M7713 2835 c0 -8 4 -12 9 -9 5 3 6 10 3 15 -9 13 -12 11 -12 -6z"/>
<path d="M130 2831 c0 -6 4 -13 10 -16 6 -3 7 1 4 9 -7 18 -14 21 -14 7z"/>
<path d="M228 2833 c7 -3 16 -2 19 1 4 3 -2 6 -13 5 -11 0 -14 -3 -6 -6z"/>
<path d="M555 2820 c5 -16 3 -19 -12 -13 -19 6 -18 5 8 -15 13 -10 15 -7 15
18 0 17 -4 30 -8 30 -5 0 -7 -9 -3 -20z"/>
<path d="M900 2826 c-9 -11 -9 -19 0 -33 10 -16 10 -15 5 4 -5 18 -3 22 9 17
8 -3 16 -11 18 -18 2 -7 10 -5 22 8 16 16 16 18 3 13 -21 -8 -49 2 -41 14 8
14 -2 10 -16 -5z"/>
<path d="M3915 2830 c-5 -8 -4 -11 3 -6 6 3 13 -3 17 -14 7 -23 20 -26 31 -7
4 6 4 9 -1 5 -4 -4 -15 2 -25 14 -13 16 -19 18 -25 8z"/>
<path d="M4796 2827 c3 -10 9 -15 12 -12 3 3 0 11 -7 18 -10 9 -11 8 -5 -6z"/>
<path d="M5117 2829 c7 -7 15 -10 18 -7 3 3 -2 9 -12 12 -14 6 -15 5 -6 -5z"/>
<path d="M6511 2827 c-8 -10 -7 -14 2 -14 8 0 14 6 14 14 0 7 -1 13 -2 13 -2
0 -8 -6 -14 -13z"/>
<path d="M293 2813 c-5 -14 27 -46 37 -36 3 2 -3 9 -13 14 -23 13 -22 24 3 26
11 1 18 -2 16 -6 -3 -4 0 -13 5 -21 7 -11 8 -8 6 10 -4 28 -45 38 -54 13z"/>
<path d="M390 2820 c0 -5 5 -10 10 -10 6 0 10 5 10 10 0 6 -4 10 -10 10 -5 0
-10 -4 -10 -10z"/>
<path d="M590 2821 c8 -5 18 -7 24 -4 5 4 7 -1 3 -11 -4 -11 -3 -15 4 -11 16
11 5 28 -22 32 -18 2 -20 1 -9 -6z"/>
<path d="M699 2825 c-8 -34 -1 -50 20 -48 14 2 20 -1 15 -9 -4 -7 -3 -8 5 -4
16 11 2 28 -18 21 -12 -3 -17 1 -17 15 0 15 5 19 21 14 16 -4 17 -3 5 5 -16
12 -29 14 -31 6z"/>
<path d="M775 2820 c3 -5 12 -10 20 -10 8 0 18 -7 23 -16 8 -15 10 -14 16 1 3
10 4 20 1 23 -3 3 -5 0 -5 -7 0 -9 -7 -8 -22 3 -25 18 -42 21 -33 6z"/>
<path d="M853 2804 c2 -26 37 -46 37 -22 0 6 -7 7 -16 4 -12 -4 -14 -1 -9 13
3 11 1 22 -4 25 -6 4 -9 -5 -8 -20z"/>
<path d="M4112 2809 c-8 -12 -9 -18 -4 -15 6 3 12 0 15 -6 2 -7 4 -1 4 15 0
15 0 27 -1 27 -1 0 -7 -9 -14 -21z"/>
<path d="M4470 2824 c0 -5 7 -18 15 -28 8 -11 15 -16 15 -10 0 5 -7 18 -15 28
-8 11 -15 16 -15 10z"/>
<path d="M4667 2824 c7 -3 15 -5 19 -4 4 1 11 -4 16 -12 8 -11 9 -10 6 1 -2 8
-15 15 -29 17 -13 1 -18 0 -12 -2z"/>
<path d="M4750 2820 c0 -5 6 -7 14 -4 11 4 13 -1 10 -18 -4 -21 -3 -21 5 -3 4
11 7 23 4 28 -6 10 -33 9 -33 -3z"/>
<path d="M4847 2807 c-13 -20 -13 -23 2 -23 10 0 16 9 16 23 0 13 -1 23 -1 23
-1 0 -8 -10 -17 -23z"/>
<path d="M4913 2823 c4 -3 1 -13 -6 -21 -10 -13 -9 -14 2 -7 11 6 13 4 9 -7
-4 -8 0 -15 7 -15 9 0 11 6 6 16 -5 9 -6 22 -4 29 3 6 -1 12 -8 12 -7 0 -9 -3
-6 -7z"/>
<path d="M5030 2820 c0 -5 5 -10 10 -10 6 0 10 5 10 10 0 6 -4 10 -10 10 -5 0
-10 -4 -10 -10z"/>
<path d="M5484 2819 c-3 -6 0 -17 8 -25 13 -13 15 -13 15 0 0 8 -5 12 -10 9
-6 -4 -8 0 -4 10 7 19 2 23 -9 6z"/>
<path d="M5717 2813 c3 -7 6 -13 8 -13 2 0 5 6 8 13 3 8 -1 14 -8 14 -7 0 -11
-6 -8 -14z"/>
<path d="M7846 2822 c-3 -5 1 -9 9 -9 8 0 12 4 9 9 -3 4 -7 8 -9 8 -2 0 -6 -4
-9 -8z"/>
<path d="M979 2808 c-1 -7 -1 -17 0 -22 1 -5 -5 -6 -14 -3 -8 4 -15 2 -15 -4
0 -20 33 -4 36 19 2 12 2 22 -1 22 -3 0 -6 -6 -6 -12z"/>
<path d="M1360 2810 c-8 -5 -10 -10 -5 -10 6 0 17 5 25 10 8 5 11 10 5 10 -5
0 -17 -5 -25 -10z"/>
<path d="M1401 2804 c0 -11 3 -14 6 -6 3 7 2 16 -1 19 -3 4 -6 -2 -5 -13z"/>
<path d="M2700 2810 c-13 -8 -12 -11 5 -24 11 -8 23 -12 27 -10 5 3 8 0 8 -7
0 -7 3 -9 6 -6 10 10 -17 38 -29 30 -6 -4 -8 0 -4 10 7 20 7 20 -13 7z"/>
<path d="M3472 2800 c0 -14 2 -19 5 -12 2 6 2 18 0 25 -3 6 -5 1 -5 -13z"/>
<path d="M3500 2805 c14 -17 30 -20 30 -4 0 5 -4 7 -10 4 -5 -3 -10 -1 -10 4
0 6 -5 11 -11 11 -8 0 -8 -5 1 -15z"/>
<path d="M3590 2811 c0 -5 5 -13 10 -16 6 -3 10 -2 10 4 0 5 -4 13 -10 16 -5
3 -10 2 -10 -4z"/>
<path d="M4550 2810 c0 -5 5 -10 11 -10 5 0 7 5 4 10 -3 6 -8 10 -11 10 -2 0
-4 -4 -4 -10z"/>
<path d="M5315 2810 c-4 -6 -11 -8 -16 -5 -5 4 -9 1 -9 -4 0 -15 11 -13 34 4
11 8 15 15 9 15 -7 0 -15 -5 -18 -10z"/>
<path d="M5555 2809 c-4 -6 -5 -12 -2 -15 2 -3 7 2 10 11 7 17 1 20 -8 4z"/>
<path d="M5859 2818 c-5 -18 -6 -38 -1 -34 7 8 12 36 6 36 -2 0 -4 -1 -5 -2z"/>
<path d="M220 2802 c0 -5 7 -9 15 -9 8 0 12 4 9 9 -3 4 -9 8 -15 8 -5 0 -9 -4
-9 -8z"/>
<path d="M360 2799 c0 -5 5 -7 10 -4 6 3 10 8 10 11 0 2 -4 4 -10 4 -5 0 -10
-5 -10 -11z"/>
<path d="M410 2800 c-8 -5 -10 -10 -5 -10 6 0 17 5 25 10 8 5 11 10 5 10 -5 0
-17 -5 -25 -10z"/>
<path d="M586 2797 c3 -10 9 -15 12 -12 3 3 0 11 -7 18 -10 9 -11 8 -5 -6z"/>
<path d="M650 2790 c6 -11 13 -20 16 -20 2 0 0 9 -6 20 -6 11 -13 20 -16 20
-2 0 0 -9 6 -20z"/>
<path d="M750 2800 c0 -6 6 -13 14 -16 8 -3 12 -13 9 -22 -4 -15 -3 -15 6 -2
8 11 7 18 -4 26 -8 6 -12 14 -8 17 3 4 1 7 -5 7 -7 0 -12 -5 -12 -10z"/>
<path d="M1000 2798 c0 -11 12 -10 30 2 12 7 10 9 -8 7 -12 0 -22 -5 -22 -9z"/>
<path d="M1071 2803 c3 -21 -2 -26 -12 -13 -8 12 -10 12 -7 1 5 -17 46 -22 55
-8 3 6 1 7 -5 3 -7 -4 -12 -1 -12 8 0 9 -4 16 -10 16 -5 0 -9 -3 -9 -7z"/>
<path d="M1223 2790 c14 -11 28 -20 32 -20 4 0 -4 9 -18 20 -14 11 -28 20 -32
20 -4 0 4 -9 18 -20z"/>
<path d="M1534 2794 c4 -12 1 -14 -13 -9 -22 7 -37 -10 -20 -21 8 -4 9 -3 5 4
-5 8 0 11 15 9 14 -1 23 4 24 16 2 9 -1 17 -7 17 -6 0 -7 -7 -4 -16z"/>
<path d="M1750 2800 c4 -29 0 -41 -12 -34 -7 5 -8 3 -4 -5 5 -7 10 -10 14 -7
3 3 11 -2 19 -12 13 -15 13 -15 4 5 -14 29 -14 36 2 27 7 -5 7 -1 -3 12 -8 10
-16 21 -18 24 -2 3 -3 -2 -2 -10z"/>
<path d="M3290 2800 c-8 -5 -10 -10 -5 -10 6 0 17 5 25 10 8 5 11 10 5 10 -5
0 -17 -5 -25 -10z"/>
<path d="M3330 2796 c0 -23 16 -27 31 -8 13 16 13 16 -5 2 -18 -14 -19 -13
-13 3 3 9 2 17 -3 17 -6 0 -10 -6 -10 -14z"/>
<path d="M3393 2792 c-17 -13 -20 -21 -12 -32 9 -13 10 -13 6 0 -2 8 8 23 22
32 14 10 22 18 16 18 -5 0 -20 -8 -32 -18z"/>
<path d="M3900 2795 c0 -8 2 -15 4 -15 2 0 6 7 10 15 3 8 1 15 -4 15 -6 0 -10
-7 -10 -15z"/>
<path d="M3995 2799 c-11 -16 -1 -19 13 -3 7 8 8 14 3 14 -5 0 -13 -5 -16 -11z"/>
<path d="M4055 2800 c-3 -6 1 -7 9 -4 18 7 21 14 7 14 -6 0 -13 -4 -16 -10z"/>
<path d="M4260 2795 c0 -8 2 -15 4 -15 2 0 6 7 10 15 3 8 1 15 -4 15 -6 0 -10
-7 -10 -15z"/>
<path d="M4330 2800 c0 -5 5 -10 10 -10 6 0 10 5 10 10 0 6 -4 10 -10 10 -5 0
-10 -4 -10 -10z"/>
<path d="M4435 2799 c-4 -6 -4 -13 -1 -16 3 -4 6 -1 6 6 0 7 5 9 10 6 6 -3 10
-1 10 4 0 14 -17 14 -25 0z"/>
<path d="M4655 2800 c3 -5 8 -10 11 -10 2 0 4 5 4 10 0 6 -5 10 -11 10 -5 0
-7 -4 -4 -10z"/>
<path d="M4993 2803 c4 -3 1 -13 -6 -22 -10 -14 -10 -14 5 -3 10 8 23 10 30 6
10 -6 9 -3 -1 9 -7 9 -18 17 -24 17 -6 0 -7 -3 -4 -7z"/>
<path d="M5054 2798 c-4 -5 -3 -12 0 -15 3 -4 6 -1 6 6 0 7 4 10 9 6 5 -3 12
-2 15 3 3 5 -2 9 -10 9 -8 0 -17 -4 -20 -9z"/>
<path d="M5176 2793 c-6 -14 -5 -15 5 -6 7 7 10 15 7 18 -3 3 -9 -2 -12 -12z"/>
<path d="M5370 2806 c0 -2 7 -7 16 -10 8 -3 12 -2 9 4 -6 10 -25 14 -25 6z"/>
<path d="M5990 2801 c0 -6 4 -13 10 -16 6 -3 7 1 4 9 -7 18 -14 21 -14 7z"/>
<path d="M6354 2802 c4 -3 14 -7 22 -8 9 -1 13 0 10 4 -4 3 -14 7 -22 8 -9 1
-13 0 -10 -4z"/>
<path d="M6695 2800 c3 -5 8 -10 11 -10 2 0 4 5 4 10 0 6 -5 10 -11 10 -5 0
-7 -4 -4 -10z"/>
<path d="M7156 2793 c-6 -14 -5 -15 5 -6 7 7 10 15 7 18 -3 3 -9 -2 -12 -12z"/>
<path d="M7295 2800 c-3 -5 -1 -10 4 -10 6 0 11 5 11 10 0 6 -2 10 -4 10 -3 0
-8 -4 -11 -10z"/>
<path d="M7900 2806 c0 -2 8 -10 18 -17 15 -13 16 -12 3 4 -13 16 -21 21 -21
13z"/>
<path d="M796 2787 c3 -10 9 -15 12 -12 3 3 0 11 -7 18 -10 9 -11 8 -5 -6z"/>
<path d="M3026 2792 c-3 -5 1 -9 9 -9 8 0 15 4 15 9 0 4 -4 8 -9 8 -6 0 -12
-4 -15 -8z"/>
<path d="M3190 2790 c0 -5 7 -7 15 -4 8 4 15 8 15 10 0 2 -7 4 -15 4 -8 0 -15
-4 -15 -10z"/>
<path d="M3425 2787 c-14 -11 -15 -16 -5 -22 9 -5 11 -4 6 3 -4 7 -1 12 8 12
9 0 16 5 16 10 0 13 -3 13 -25 -3z"/>
<path d="M5200 2796 c0 -2 7 -7 16 -10 8 -3 12 -2 9 4 -6 10 -25 14 -25 6z"/>
<path d="M375 2780 c-3 -5 -1 -10 4 -10 6 0 11 5 11 10 0 6 -2 10 -4 10 -3 0
-8 -4 -11 -10z"/>
<path d="M521 2772 c-7 -14 -6 -19 4 -19 7 0 11 7 7 15 -4 11 -1 13 8 7 9 -5
11 -4 6 3 -10 16 -14 15 -25 -6z"/>
<path d="M630 2784 c0 -5 7 -18 15 -28 8 -11 15 -16 15 -10 0 5 -7 18 -15 28
-8 11 -15 16 -15 10z"/>
<path d="M1030 2784 c0 -5 7 -18 15 -28 8 -11 15 -16 15 -10 0 5 -7 18 -15 28
-8 11 -15 16 -15 10z"/>
<path d="M1190 2780 c0 -5 5 -10 10 -10 6 0 10 5 10 10 0 6 -4 10 -10 10 -5 0
-10 -4 -10 -10z"/>
<path d="M1280 2778 c-12 -8 -12 -9 2 -5 9 3 19 1 22 -6 3 -9 5 -9 5 0 1 18
-13 23 -29 11z"/>
<path d="M1699 2783 c-1 -5 -1 -12 0 -17 1 -5 -4 -6 -12 -3 -8 3 -20 1 -28 -5
-12 -8 -12 -9 1 -5 8 2 22 0 32 -4 12 -7 16 -5 14 9 -2 10 5 20 18 24 21 6 20
6 -1 7 -13 1 -24 -2 -24 -6z"/>
<path d="M1996 2773 c-6 -14 -5 -15 5 -6 7 7 10 15 7 18 -3 3 -9 -2 -12 -12z"/>
<path d="M2173 2775 c-3 -9 -3 -19 1 -22 3 -4 6 2 6 12 0 15 2 16 18 4 15 -13
16 -12 3 4 -17 21 -20 21 -28 2z"/>
<path d="M2950 2783 c0 -6 8 -17 18 -24 16 -13 16 -13 2 6 -8 11 -16 22 -17
24 -2 2 -3 0 -3 -6z"/>
<path d="M3233 2771 c0 -11 5 -18 9 -15 4 3 5 11 1 19 -7 21 -12 19 -10 -4z"/>
<path d="M3312 2780 c3 -8 2 -22 -3 -30 -5 -11 -2 -16 11 -16 10 0 16 5 12 11
-4 5 -7 16 -8 23 -2 8 -6 17 -10 20 -4 4 -4 0 -2 -8z"/>
<path d="M3494 2782 c3 -5 1 -12 -6 -14 -8 -3 -9 -6 -1 -11 6 -4 13 0 17 8 3
8 0 17 -6 21 -6 4 -8 3 -4 -4z"/>
<path d="M3640 2781 c15 -4 20 -10 13 -14 -6 -4 -19 -4 -30 -1 -17 5 -17 5 0
-6 14 -9 22 -9 32 0 19 16 10 30 -18 29 -20 -1 -20 -2 3 -8z"/>
<path d="M3870 2780 c-13 -8 -12 -10 3 -10 9 0 17 5 17 10 0 12 -1 12 -20 0z"/>
<path d="M4070 2780 c0 -5 5 -10 10 -10 6 0 10 5 10 10 0 6 -4 10 -10 10 -5 0
-10 -4 -10 -10z"/>
<path d="M4157 2776 c-4 -9 -16 -13 -32 -12 -14 2 -27 0 -30 -4 -2 -4 9 -7 25
-6 29 1 59 21 48 31 -3 3 -8 -1 -11 -9z"/>
<path d="M4233 2775 c0 -8 4 -12 9 -9 4 3 8 9 8 15 0 5 -4 9 -8 9 -5 0 -9 -7
-9 -15z"/>
<path d="M4310 2780 c0 -5 5 -10 11 -10 5 0 7 5 4 10 -3 6 -8 10 -11 10 -2 0
-4 -4 -4 -10z"/>
<path d="M4566 2782 c-3 -5 1 -9 9 -9 8 0 12 4 9 9 -3 4 -7 8 -9 8 -2 0 -6 -4
-9 -8z"/>
<path d="M4628 2772 c4 -11 1 -13 -8 -7 -8 5 -11 4 -7 -3 8 -11 44 -5 53 9 3
5 -3 6 -12 2 -10 -4 -15 -2 -11 4 3 5 0 10 -7 10 -8 0 -12 -7 -8 -15z"/>
<path d="M5120 2780 c-9 -6 -10 -10 -3 -10 6 0 15 5 18 10 8 12 4 12 -15 0z"/>
<path d="M5460 2786 c0 -2 8 -10 18 -17 15 -13 16 -12 3 4 -13 16 -21 21 -21
13z"/>
<path d="M5559 2773 c-13 -16 -12 -17 4 -4 16 13 21 21 13 21 -2 0 -10 -8 -17
-17z"/>
<path d="M5670 2781 c0 -6 4 -13 10 -16 6 -3 7 1 4 9 -7 18 -14 21 -14 7z"/>
<path d="M7036 2778 c3 -4 11 -5 19 -1 21 7 19 12 -4 10 -11 0 -18 -5 -15 -9z"/>
<path d="M7216 2781 c-3 -5 2 -15 12 -22 15 -12 16 -12 5 2 -7 9 -10 19 -6 22
3 4 4 7 0 7 -3 0 -8 -4 -11 -9z"/>
<path d="M7515 2781 c-3 -5 -2 -12 3 -15 5 -3 9 1 9 9 0 17 -3 19 -12 6z"/>
<path d="M1115 2769 c-11 -16 -1 -19 13 -3 7 8 8 14 3 14 -5 0 -13 -5 -16 -11z"/>
<path d="M1470 2765 c0 -8 4 -15 10 -15 5 0 7 7 4 15 -4 8 -8 15 -10 15 -2 0
-4 -7 -4 -15z"/>
<path d="M1893 2761 c0 -11 5 -18 9 -15 4 3 5 11 1 19 -7 21 -12 19 -10 -4z"/>
<path d="M1922 2764 c10 -10 20 -16 22 -13 3 3 -5 11 -17 18 -21 13 -21 12 -5
-5z"/>
<path d="M2330 2770 c-9 -6 -10 -10 -3 -10 6 0 15 5 18 10 8 12 4 12 -15 0z"/>
<path d="M2433 2765 c0 -8 4 -15 9 -15 4 0 8 7 8 15 0 8 -4 15 -8 15 -5 0 -9
-7 -9 -15z"/>
<path d="M2676 2765 c-3 -8 -1 -15 4 -15 6 0 10 7 10 15 0 8 -2 15 -4 15 -2 0
-6 -7 -10 -15z"/>
<path d="M3777 2761 c-4 -17 -3 -21 5 -13 5 5 8 16 6 23 -3 8 -7 3 -11 -10z"/>
<path d="M4693 2767 c0 -8 12 -13 27 -13 15 0 27 5 27 13 0 9 -4 10 -14 2 -9
-8 -17 -8 -26 0 -10 8 -14 7 -14 -2z"/>
<path d="M570 2761 c0 -4 11 -7 25 -7 14 0 25 3 25 7 0 3 -11 7 -25 7 -14 0
-25 -4 -25 -7z"/>
<path d="M676 2762 c-3 -5 1 -9 9 -9 8 0 12 4 9 9 -3 4 -7 8 -9 8 -2 0 -6 -4
-9 -8z"/>
<path d="M815 2761 c-3 -5 -2 -12 3 -15 5 -3 9 1 9 9 0 17 -3 19 -12 6z"/>
<path d="M917 2756 c-3 -8 0 -17 7 -19 10 -4 12 1 9 14 -6 23 -9 24 -16 5z"/>
<path d="M978 2758 c-10 -7 -9 -8 2 -5 8 2 23 0 32 -5 13 -6 16 -5 12 5 -6 16
-27 18 -46 5z"/>
<path d="M1220 2760 c0 -5 5 -10 11 -10 5 0 7 5 4 10 -3 6 -8 10 -11 10 -2 0
-4 -4 -4 -10z"/>
<path d="M1820 2766 c0 -2 7 -7 16 -10 8 -3 12 -2 9 4 -6 10 -25 14 -25 6z"/>
<path d="M1867 2751 c-4 -17 -3 -21 5 -13 5 5 8 16 6 23 -3 8 -7 3 -11 -10z"/>
<path d="M2277 2756 c-3 -8 0 -17 7 -19 10 -4 12 1 9 14 -6 23 -9 24 -16 5z"/>
<path d="M2775 2761 c-4 -7 1 -8 12 -4 15 6 16 4 6 -8 -10 -13 -10 -16 1 -16
16 0 15 29 -1 34 -6 2 -14 -1 -18 -6z"/>
<path d="M2828 2752 c-4 -12 1 -18 13 -18 12 0 15 4 9 12 -6 6 -7 14 -3 17 3
4 2 7 -4 7 -6 0 -13 -8 -15 -18z"/>
<path d="M2926 2761 c-3 -5 1 -11 9 -14 9 -4 12 -1 8 9 -6 16 -10 17 -17 5z"/>
<path d="M3050 2766 c0 -2 7 -7 16 -10 8 -3 12 -2 9 4 -6 10 -25 14 -25 6z"/>
<path d="M3154 2748 c-19 -23 -19 -23 2 -5 11 9 24 14 27 10 4 -3 7 -1 7 5 0
19 -15 14 -36 -10z"/>
<path d="M3431 2750 c-13 -11 -19 -20 -13 -20 5 0 15 7 22 15 7 8 16 12 21 9
5 -3 9 0 9 5 0 16 -12 13 -39 -9z"/>
<path d="M3590 2763 c0 -6 8 -17 18 -24 16 -13 16 -13 2 6 -8 11 -16 22 -17
24 -2 2 -3 0 -3 -6z"/>
<path d="M3948 2748 c-10 -10 -14 -18 -9 -18 10 0 36 29 30 34 -2 1 -12 -6
-21 -16z"/>
<path d="M4004 2763 c4 -4 16 -8 28 -10 12 -2 19 -1 16 2 -3 3 -16 8 -28 10
-12 2 -20 1 -16 -2z"/>
<path d="M4186 2755 c4 -8 11 -15 16 -15 6 0 5 6 -2 15 -7 8 -14 15 -16 15 -2
0 -1 -7 2 -15z"/>
<path d="M4281 2756 c-9 -11 -9 -16 1 -22 7 -4 10 -4 6 1 -4 4 -3 14 3 22 6 7
9 13 6 13 -2 0 -10 -6 -16 -14z"/>
<path d="M4493 2753 c0 -9 4 -10 12 -3 7 5 15 7 18 3 4 -3 7 -1 7 5 0 6 -8 10
-18 9 -10 0 -19 -7 -19 -14z"/>
<path d="M4793 2755 c0 -8 4 -12 9 -9 4 3 8 9 8 15 0 5 -4 9 -8 9 -5 0 -9 -7
-9 -15z"/>
<path d="M4850 2755 c5 -7 6 -16 2 -21 -4 -5 -3 -5 2 -1 15 12 15 34 0 34 -9
0 -11 -4 -4 -12z"/>
<path d="M5006 2758 c3 -5 10 -6 15 -3 13 9 11 12 -6 12 -8 0 -12 -4 -9 -9z"/>
<path d="M5820 2766 c0 -2 8 -10 18 -17 15 -13 16 -12 3 4 -13 16 -21 21 -21
13z"/>
<path d="M5866 2758 c3 -5 10 -6 15 -3 13 9 11 12 -6 12 -8 0 -12 -4 -9 -9z"/>
<path d="M5985 2759 c-3 -4 2 -6 10 -5 21 3 28 13 10 13 -9 0 -18 -4 -20 -8z"/>
<path d="M6099 2768 c-5 -18 -6 -38 -1 -34 7 8 12 36 6 36 -2 0 -4 -1 -5 -2z"/>
<path d="M6256 2758 c3 -5 10 -6 15 -3 13 9 11 12 -6 12 -8 0 -12 -4 -9 -9z"/>
<path d="M7706 2762 c-3 -5 1 -9 9 -9 8 0 12 4 9 9 -3 4 -7 8 -9 8 -2 0 -6 -4
-9 -8z"/>
<path d="M7796 2758 c3 -5 10 -6 15 -3 13 9 11 12 -6 12 -8 0 -12 -4 -9 -9z"/>
<path d="M866 2743 c-6 -14 -5 -15 5 -6 7 7 10 15 7 18 -3 3 -9 -2 -12 -12z"/>
<path d="M1160 2756 c0 -2 7 -7 16 -10 8 -3 12 -2 9 4 -6 10 -25 14 -25 6z"/>
<path d="M1347 2747 c-3 -8 0 -14 7 -14 7 0 13 6 13 14 0 7 -4 13 -8 13 -4 0
-9 -6 -12 -13z"/>
<path d="M1615 2750 c-3 -6 1 -7 9 -4 18 7 21 14 7 14 -6 0 -13 -4 -16 -10z"/>
<path d="M1960 2756 c0 -2 7 -7 16 -10 8 -3 12 -2 9 4 -6 10 -25 14 -25 6z"/>
<path d="M2387 2748 c-3 -8 5 -14 20 -14 13 -1 23 -1 21 0 -2 1 -10 7 -19 14
-13 10 -18 10 -22 0z"/>
<path d="M3834 2746 c1 -8 5 -18 8 -22 4 -3 5 1 4 10 -1 8 -5 18 -8 22 -4 3
-5 -1 -4 -10z"/>
<path d="M1073 2727 c-1 -11 -1 -18 0 -16 2 2 8 11 15 20 9 12 9 16 -1 16 -7
0 -14 -9 -14 -20z"/>
<path d="M1518 2743 c7 -3 16 -2 19 1 4 3 -2 6 -13 5 -11 0 -14 -3 -6 -6z"/>
<path d="M2067 2733 c3 -7 6 -13 8 -13 1 0 7 6 13 13 8 10 6 13 -7 13 -11 0
-17 -6 -14 -13z"/>
<path d="M2197 2733 c3 -7 6 -13 8 -13 2 0 5 6 8 13 3 8 -1 14 -8 14 -7 0 -11
-6 -8 -14z"/>
<path d="M2478 2743 c7 -3 16 -2 19 1 4 3 -2 6 -13 5 -11 0 -14 -3 -6 -6z"/>
<path d="M2520 2740 c8 -5 20 -10 25 -10 6 0 3 5 -5 10 -8 5 -19 10 -25 10 -5
0 -3 -5 5 -10z"/>
<path d="M2628 2743 c7 -3 16 -2 19 1 4 3 -2 6 -13 5 -11 0 -14 -3 -6 -6z"/>
<path d="M2998 2743 c7 -3 16 -2 19 1 4 3 -2 6 -13 5 -11 0 -14 -3 -6 -6z"/>
<path d="M3035 2742 c3 -3 -1 -12 -7 -21 -8 -10 -4 -9 10 3 26 23 26 23 7 23
-8 0 -13 -3 -10 -5z"/>
<path d="M3196 2742 c-3 -5 1 -9 9 -9 8 0 12 4 9 9 -3 4 -7 8 -9 8 -2 0 -6 -4
-9 -8z"/>
<path d="M3660 2740 c-9 -6 -10 -10 -3 -10 6 0 15 5 18 10 8 12 4 12 -15 0z"/>
<path d="M3860 2746 c0 -2 8 -10 18 -17 15 -13 16 -12 3 4 -13 16 -21 21 -21
13z"/>
<path d="M4226 2742 c-2 -4 4 -8 14 -8 10 0 16 4 14 8 -3 4 -9 8 -14 8 -5 0
-11 -4 -14 -8z"/>
<path d="M4420 2745 c0 -2 6 -8 13 -14 10 -8 14 -7 14 2 0 8 -6 14 -14 14 -7
0 -13 -1 -13 -2z"/>
<path d="M5135 2740 c3 -5 8 -10 11 -10 2 0 4 5 4 10 0 6 -5 10 -11 10 -5 0
-7 -4 -4 -10z"/>
<path d="M5890 2740 c0 -5 5 -10 11 -10 5 0 7 5 4 10 -3 6 -8 10 -11 10 -2 0
-4 -4 -4 -10z"/>
<path d="M6053 2729 c-2 -23 3 -25 10 -4 4 8 3 16 -1 19 -4 3 -9 -4 -9 -15z"/>
<path d="M1315 2729 c-4 -6 -5 -12 -2 -15 2 -3 7 2 10 11 7 17 1 20 -8 4z"/>
<path d="M1494 2720 c0 -13 4 -16 10 -10 7 7 7 13 0 20 -6 6 -10 3 -10 -10z"/>
<path d="M1794 2726 c1 -8 5 -18 8 -22 4 -3 5 1 4 10 -1 8 -5 18 -8 22 -4 3
-5 -1 -4 -10z"/>
<path d="M2174 2726 c1 -8 5 -18 8 -22 4 -3 5 1 4 10 -1 8 -5 18 -8 22 -4 3
-5 -1 -4 -10z"/>
<path d="M2355 2730 c-4 -6 -11 -7 -17 -4 -7 4 -8 2 -4 -5 6 -9 11 -9 22 0 14
11 18 19 10 19 -3 0 -8 -5 -11 -10z"/>
<path d="M2910 2737 c0 -2 6 -10 14 -16 11 -9 16 -9 22 1 4 7 4 10 -1 6 -4 -4
-14 -3 -22 3 -7 6 -13 9 -13 6z"/>
<path d="M2970 2737 c0 -2 6 -10 14 -16 11 -9 16 -9 22 1 4 7 4 10 -1 6 -4 -4
-14 -3 -22 3 -7 6 -13 9 -13 6z"/>
<path d="M3275 2730 c-4 -6 -11 -7 -17 -4 -7 4 -8 2 -4 -5 6 -9 11 -9 22 0 14
11 18 19 10 19 -3 0 -8 -5 -11 -10z"/>
<path d="M3369 2723 c-13 -16 -12 -17 4 -4 9 7 17 15 17 17 0 8 -8 3 -21 -13z"/>
<path d="M3975 2731 c-3 -5 -2 -12 3 -15 5 -3 9 1 9 9 0 17 -3 19 -12 6z"/>
<path d="M4013 2725 c0 -8 4 -12 9 -9 5 3 6 10 3 15 -9 13 -12 11 -12 -6z"/>
<path d="M6713 2725 c0 -8 4 -12 9 -9 5 3 6 10 3 15 -9 13 -12 11 -12 -6z"/>
<path d="M1524 2722 c4 -3 14 -7 22 -8 9 -1 13 0 10 4 -4 3 -14 7 -22 8 -9 1
-13 0 -10 -4z"/>
<path d="M1896 2718 c3 -5 10 -6 15 -3 13 9 11 12 -6 12 -8 0 -12 -4 -9 -9z"/>
<path d="M1989 2717 c6 -8 7 -18 3 -22 -4 -5 -1 -5 6 -1 10 6 10 11 1 22 -6 8
-14 14 -16 14 -3 0 0 -6 6 -13z"/>
<path d="M2096 2722 c-3 -5 1 -9 9 -9 8 0 12 4 9 9 -3 4 -7 8 -9 8 -2 0 -6 -4
-9 -8z"/>
<path d="M2513 2715 c0 -8 4 -12 9 -9 5 3 6 10 3 15 -9 13 -12 11 -12 -6z"/>
<path d="M2719 2713 c-13 -16 -12 -17 4 -4 16 13 21 21 13 21 -2 0 -10 -8 -17
-17z"/>
<path d="M2750 2721 c0 -6 4 -12 8 -15 5 -3 9 1 9 9 0 8 -4 15 -9 15 -4 0 -8
-4 -8 -9z"/>
<path d="M4527 2719 c7 -7 15 -10 18 -7 3 3 -2 9 -12 12 -14 6 -15 5 -6 -5z"/>
<path d="M5705 2720 c-3 -6 1 -7 9 -4 18 7 21 14 7 14 -6 0 -13 -4 -16 -10z"/>
<path d="M1235 2711 c-3 -5 -2 -12 3 -15 5 -3 9 1 9 9 0 17 -3 19 -12 6z"/>
<path d="M4053 2705 c0 -8 4 -12 9 -9 5 3 6 10 3 15 -9 13 -12 11 -12 -6z"/>
<path d="M1390 2696 c7 -7 13 -7 20 0 6 6 3 10 -10 10 -13 0 -16 -4 -10 -10z"/>
<path d="M2615 2700 c3 -5 8 -10 11 -10 2 0 4 5 4 10 0 6 -5 10 -11 10 -5 0
-7 -4 -4 -10z"/>
<path d="M3815 2700 c-3 -5 -1 -10 4 -10 6 0 11 5 11 10 0 6 -2 10 -4 10 -3 0
-8 -4 -11 -10z"/>
<path d="M4085 2700 c-3 -6 1 -7 9 -4 18 7 21 14 7 14 -6 0 -13 -4 -16 -10z"/>
<path d="M4135 2700 c3 -5 8 -10 11 -10 2 0 4 5 4 10 0 6 -5 10 -11 10 -5 0
-7 -4 -4 -10z"/>
<path d="M4630 2699 c0 -5 5 -7 10 -4 6 3 10 8 10 11 0 2 -4 4 -10 4 -5 0 -10
-5 -10 -11z"/>
<path d="M3076 2687 c3 -10 9 -15 12 -12 3 3 0 11 -7 18 -10 9 -11 8 -5 -6z"/>
<path d="M3155 2680 c3 -5 8 -10 11 -10 2 0 4 5 4 10 0 6 -5 10 -11 10 -5 0
-7 -4 -4 -10z"/>
<path d="M4373 2675 c0 -8 4 -12 9 -9 5 3 6 10 3 15 -9 13 -12 11 -12 -6z"/>
<path d="M4579 2673 c-13 -16 -12 -17 4 -4 9 7 17 15 17 17 0 8 -8 3 -21 -13z"/>
</g>
</svg>
