<svg version="1.0" xmlns="http://www.w3.org/2000/svg" width="1706.667" height="1706.667" viewBox="0 0 1280 1280"><path d="M1090.2 261c-4.5 4.2-3.6 17 1.3 17 1.5 0 2.5 1 3.4 3.6.7 1.9 1.1 3.7.9 3.8-.4.4-35 13.7-36.1 13.9-.4.1-1.4-1.3-2.2-3.1-1.4-3.2-1.4-3.4.6-3.9 1.7-.5 1.9-1.1 1.3-3.7-1.5-7.1-5.5-11.6-10.4-11.6-3.1 0-4.4.8-6 3.9-2.6 5.1-.4 15.7 3.1 14.8 1.4-.4 2.1.4 3 3 .6 1.9.7 3.8.3 4.3-.9.8-27.3 11-28.5 11-.4 0-1-1.1-1.3-2.4-.3-1.3-.9-3.1-1.2-4-.4-1.1-.1-1.6 1-1.6 3.4 0 .5-9.4-4-12.9-6-4.7-12.4-.9-12.4 7.5 0 6.1 1.8 9.7 4.5 9 1.9-.5 2.4.1 3.4 3.6 1.3 4.2.6 5.7-2.6 5.8-.7 0-2.4 2-3.8 4.5-3.3 5.5-10.8 12.4-17.3 15.8-6.6 3.4-15.5 6.4-45.7 15.2-14.3 4.2-27.3 8-29 8.5-2.7.9-96.7 28.4-107.5 31.5-6 1.7-33.3 9.7-44 12.8-32.7 9.7-69.3 20.4-72 21.1-1.4.4-38.4 11.3-106.5 31.3-15.9 4.7-30.5 8.9-32.3 9.5-3.2.9-9.7-1-24.7-7.2-5.4-2.2-27.4-10-34-12-2.2-.7-4.4-1.5-5-1.9-.5-.3-1.4-.6-2-.7-.5-.1-3.7-1.1-7-2.3-8.2-2.8-28.5-9.2-31-9.7-1.1-.2-3.1-.8-4.5-1.4-1.4-.5-6.8-2.1-12-3.5-5.2-1.5-12.6-3.5-16.5-4.6-6.9-1.9-42.2-10.7-46-11.5-5.3-1-11.9-2.4-21-4.3-5.5-1.2-11.5-2.4-13.4-2.7-1.8-.3-4.3-.8-5.5-1-2.2-.4-4.1-.8-13.6-2.4-14.2-2.4-29.6-4.8-35.5-5.5-2.7-.3-6.1-.8-7.5-1-2.4-.5-4.7-.7-16.5-1.9-2.7-.3-9-1-14-1.5-30.9-3.3-59.5-4.6-104-4.6-31.8 0-60.7.8-73.5 1.9-1.9.2-8 .7-13.5 1-9.4.6-12.4.9-22.8 2.1-2.3.2-7.1.7-10.7 1-3.6.3-7.4.7-8.5 1-1.1.2-2.6.4-3.4.4-3.8.2 3.3 35.7 14.8 73.7 7.9 26.4 26.2 79 38.1 109.9 14.7 38.1 42.8 107.4 49.5 122 .7 1.6 5.2 12 10 23s9.7 22.2 11 25c1.2 2.7 6.5 14.4 11.8 26 5.2 11.5 12.3 26.8 15.7 34 3.4 7.1 7.6 15.9 9.2 19.5 11.9 25.8 43.1 86.4 58.6 113.5 4.7 8.2 10.9 18.7 13.9 23.3 2.9 4.5 5.3 8.5 5.3 8.7 0 1 9.5 14.2 11.4 15.8 1.8 1.6 1.8 1.8.3 1.3-1.2-.4-1.6-.2-1.1.6s.2.9-1.1.5c-.9-.4-2.3-.3-3 .3-.7.6-1.7 1-2.1.9-2-.3-3.4.2-3.4 1.2 0 .8.5.8 1.5-.1.9-.8 1.5-.9 1.5-.2 0 2.1-2.3 2.5-3.7.6-1.2-1.6-1.1-2 .9-3 1.2-.7 2.9-.9 3.7-.6.8.3.4-.5-.8-1.7-1.3-1.3-2.6-2-2.9-1.6-.4.3-.1 1 .7 1.4 1 .6.9 1-.4 1.5-2.3.8-2.7.8-2-.4.3-.6.1-1-.5-1-.7 0-.9.7-.6 1.6.4.9.1 1.4-.6 1.2-1.9-.7-1.7-3.7.4-4.4 1.1-.3 1.7-.8 1.5-1.1-.3-.2-1.4 0-2.5.6-2 1.1-2.3 2.6-.9 4.8.5.8-.2 1.1-2.5 1-2.2-.1-3.2.3-3 1.1.1.6-.2 1.2-.8 1.2-1.3 0-1.3-2.3 0-3.6.6-.6.8-1.8.5-2.7-.5-1.3-1.2-1-3.5 1.6l-2.8 3.2.1-2.8c.1-1.8.6-2.5 1.5-2.2.7.3 1 0 .7-.5-.3-.6-.1-1 .4-1 .6 0 1.1-.4 1.1-.8 0-.5-.7-.9-1.5-.9s-1.3.3-1 .5c.3.3-.7 1.4-2.2 2.5-1.6 1-2 1.7-1 1.3.9-.3 1.7-.2 1.7.3 0 1.6-1.3 2-3.2 1-1.5-.8-1.7-1.3-.7-2.5.7-.8.7-1.4.1-1.4-1.4 0-2.3 2.8-1.2 3.5 1.6 1 1.1 2.1-1 2.1-1.5 0-1.8-.5-1.4-1.8.3-1 0-1.8-.6-1.8s-.8.4-.5 1c.3.5-.3 1-1.4 1-1.2 0-2.1.4-2.1.8s-.9.8-2 .8c-2.1 0-2.2-2-.2-2.2.7-.1 1.8-.2 2.5-.3.8-.1.8-.4-.3-1-.8-.6-1.8-.7-2.2-.5-.4.3-.8 0-.8-.5 0-.6-.5-1.1-1.1-1.1-.8 0-.8.4 0 1.4.9 1.1.5 1.8-2.1 3.4-3.4 2.2-5.6 2-2.6-.2 1-.7 1.4-1.7 1-2.1-.4-.5.2-.5 1.3-.1 1.7.6 1.8.5.7-.6s-1.6-1-2.7.5c-.7 1-1.5 1.4-1.7 1-.3-.4-.3-.3-.2.4.2.7-.5 2.2-1.6 3.5-1.7 2.1-2 2.2-3.5.7-2-1.9-2.9-6.2-1.2-5.6.7.2 1.1 1.1.9 2-.3 2.1 1.7 3.2 3.1 1.8.9-.9.6-1.7-1.3-3.1-1.4-1.1-3.2-1.8-4-1.7-1 .1-1.4-.6-1.3-2.3.2-2.2.2-2.3-.6-.5-.5 1.2-.5 2.5.1 3.2 1.5 1.9-.7 1.7-2.2-.2-1.3-1.6-3-1.1-2.9.8 0 .9.2.8.6-.1.2-.6.9-1 1.3-.7.5.3.7 1.2.4 1.9-.3.8 0 1.7.5 2.1.6.3.9 1.1.6 1.6-.7 1.1-2.6 1.2-2.4.1.1-.4.1-1.3 0-2.1-.1-1.1-.4-1.1-1.8 0-1.4 1.2-1.6 1.2-1.1-.1.3-.8.2-2.2-.3-3.1-1-1.9-5.5-1.9-5.1 0 .2.8-.4 1-1.7.6-1.1-.3-2.2-.1-2.6.5-.3.5-1.1 1-1.8 1-.8 0-.8-.3.1-1.2.7-.7 1.2-1.7 1.2-2.3 0-.5-.5-.2-1.1.7-.6 1.1-1.6 1.5-2.6 1.1-1.3-.5-1.3-.3.3 1.4 1.3 1.4 2.3 1.7 3.2 1 .7-.5 2.2-1 3.5-1.1 1.2-.1 2.1-.7 2-1.3-.3-1.5 3.5-1.2 4.1.3.3.7-.4 2-1.5 3-2.1 1.9-2.7.6-.6-1.5 1-1.1.8-1.1-1 0-1.6.9-1.9 1.7-1.2 2.6.8.9.5 1.1-1 1-1.3-.1-1.9-.6-1.7-1.4.3-.7-.1-1-1-.6-.7.3-1.4.9-1.4 1.5 0 .5-.4.6-1 .3-.5-.3-1-.1-1 .5 0 .7.8.9 2.2.4 1.9-.6 2.1-.4 1.1.7-.9 1.1-.8 1.9.3 3.3.7 1.1 1.7 1.6 2.1 1.2.4-.4 0-1.2-1-1.8-1.4-.7-1.6-1.3-.6-2.4.6-.7 1.5-1.1 2.1-.8.5.3 1.5 0 2.3-.6 1.7-1.4 2 .1.4 1.7-.6.6-1.9.9-2.8.6-.9-.3-.2.4 1.4 1.5 3.2 2.1 4.5 2 4.5-.4 0-.8.5-1.4 1.1-1.4.5 0 .7.5.3 1.2-.4.6-.3.9.2.6.5-.3 2-.1 3.4.5 4.1 1.6 6.2 1.5 6.8-.5.6-2.3 1.5-2.3 3.7.2 1 1.1 1.3 2 .7 2-.7 0-1.2.4-1.2.8 0 .5.7.9 1.5.9s1.2-.4 1-.8c-.3-.4.2-1 1.1-1.3 1.3-.5 1.4-.9.4-2.1-1.5-1.8-.7-1.9 2.1-.4 2 1 2 1.1.2 2.5-1.7 1.4-1.6 1.4.4.4 2.1-1 2.7-.7 2.4 1.2 0 .4.5.5 1.3.2 2-.8-3.1-5.6-6.1-5.8-1.2 0-2.1-.6-1.9-1.1.1-.6 1.2-.8 2.2-.6 3.8.7 4.9.6 4.6-.7-.1-.6.2-1.2.8-1.2 1.3 0 1.3 2.3-.1 3.7-.8.8-.7 1.3.1 1.8.6.4 1.7.2 2.3-.4.6-.6 1.6-1.1 2.1-1.1.6 0 .5.5-.2 1.2s-1.2 1.6-1.2 2.2c0 .5.6.1 1.4-.9.8-1.1 1.3-2.2 1.1-2.6-.2-.3.9-.6 2.4-.6 2 0 2.8.4 2.4 1.4-.3.7-1 1-1.7.6-.6-.4-.5 0 .2.9s2.2 1.5 3.4 1.3c1.4-.3 1.8 0 1.4 1.1-.3.9-.2 1.2.5.9 1.3-.9.6-3-1.1-3-.7 0-1.5-.5-1.7-1.2-.6-1.6 1.8-1.1 5 1 1.5 1 2.7 1.4 2.7.9 0-.5-.9-1.3-2-1.8-2-.9-2-.9.1-2.2 2-1.3 2.1-1.2 1.5.3-.6 1.6-.4 1.6 1.1.4 1.5-1.2 1.6-1.2 1 .4-.9 2.4.5 2.1 2.1-.4.7-1.2 1.6-1.8 1.9-1.5.3.3 0 1.3-.8 2.3-1.2 1.4-1.2 1.6 0 .8 1.1-.6 1.3-.4.8.8-.5 1.2 0 1.4 2.1 1.1 1.5-.3 2.9-.8 3.2-1.1.3-.3-.5-.3-1.8 0-2.8.7-2.8-.4 0-2.9 1.7-1.5 2-1.6 1.6-.3-.5 1.3-.1 1.5 1.9 1.1 1.8-.3 2.4-.1 1.9.7-.4.7.2 1.5 1.6 2 1.8.7 2.8.4 4.6-1.2 1.9-1.8 2.5-1.9 3.2-.7.7 1.2 1.2 1.1 2.9-.4 1.1-1 1.8-2.3 1.4-2.9-.3-.6-.1-.7.5-.3 1.7 1 1.5 1.7-1.4 5-2.3 2.6-2.6 2.7-3.8 1.1-1.1-1.6-1.3-1.6-2.6.2-1.1 1.4-1.1 1.6 0 .6s1.6-.9 2.7.5c1.2 1.6 1.4 1.6 2.6 0 1.1-1.4 1.6-1.5 2.7-.5 1.2 1 1.2.9.2-.4s-.9-1.9.4-3c1.4-1.1 1.5-1 1.2.7-.2 1.5.2 1.8 2 1.7 1.5-.2 2.1.1 1.6.9-.4.7-.3.8.5.4 1.7-1.1.2-2.8-2-2.1-1.4.5-1.7.3-1.3-.9.3-.9 1-1.4 1.4-1.1 1.4.9 2.3-1.5 1.1-2.9-.6-.7-.8-1.6-.4-1.9.9-1 2.5-.9 1.9.1-.2.4-.1 1.4.3 2.1.6 1 1.3 1 2.8.2 1.7-.9 2.4-.5 4.7 2.7 1.4 2 2.6 3.2 2.6 2.6 0-.5-.5-1.5-1.2-2.2-1.9-1.9.2-1.4 2.9.8 2.8 2.2 4.8 1.7 3.8-.9-1.3-3.3-1.4-5.2-.2-4.8.7.2 1.2 1 1.2 1.8 0 1.8 2.5 6.2 3.2 5.6.2-.3-.3-1.6-1.1-3-1.5-2.2-1.5-2.5.1-3.8 1.5-1.2 1.6-1.2 1 .3-.7 1.8 1.6 4.8 3.6 4.8.7 0 .1-1-1.3-2.1-2-1.7-2.1-1.9-.5-1.4 1.1.4 2.6.8 3.3.8.7 0 1.1.6.8 1.4-.8 2 .8 1.5 2.2-.7.7-1.1 1.7-2 2.3-2 .8 0 .8.4 0 1.3-.8 1-.7 1.9.4 3.3.8 1 1.5 1.4 1.5.7 0-.6-.5-1.5-1-1.8-.8-.5-.7-1.1.1-2.1.6-.7 1.6-1.1 2.1-.8.7.4.6.9 0 1.3-.7.4-.8 1.2-.2 2.1.8 1.3 1 1.3 1-.1 0-3.1 3.3-3.2 5.7-.2 1.3 1.5 2.3 2.4 2.3 1.9 0-.6.7-.1 1.5 1 1.4 1.7 1.6 1.7 2.8.3.6-.9 1.7-1.7 2.2-1.9.6-.2 1.8-1.4 2.9-2.8 1.5-1.8 2.1-2.1 2.7-1 .7 1 .9 1 1-.2.1-.8.1-1.8 0-2.3-.1-.9 1.3-.9 2.2 0 .4.3.2 1.2-.5 2-.6.7-.8 1.6-.5 1.9.3.3 1-.3 1.6-1.5.9-1.7.7-2.5-1.6-4.8-1.6-1.5-3.1-2.7-3.6-2.5-.4.1-.7-.2-.7-.8 0-.5-.5-1-1.1-1-.8 0-.9.4 0 1.3.6.8.8 1.7.4 2-1 1.1-4.5.8-3.8-.2.3-.5.1-1.2-.5-1.6-1.4-.9-5.2.4-4.5 1.6 1.1 1.7-3.1.9-5.3-1.1-2.5-2.3-4-2.7-2.2-.5 1.8 2.2-1.5 3.2-3.6 1-1-.9-2.4-1.3-3.3-1-.9.4-2.7.9-4 1.1-2.1.4-2.3.3-1.1-1.1 2-2.4 0-1.8-2.2.7-1.5 1.7-1.8 1.9-1.4.6.5-1.7-2.9-4.6-4.1-3.5-.2.3.5.8 1.6 1.2 2 .6 1.9 3.5-.1 3.5-.5 0-.6-.5-.3-1 .3-.6.1-1-.5-1-.7 0-1 .7-.6 1.5.6 1.7-.2 1.9-2.3.6-.8-.5-.9-1.1-.3-1.5.6-.3 1-1.5.9-2.6-.1-1-.4-1.7-.8-1.4-.4.2-1-.2-1.2-.8-.4-.9-.6-1-.6-.1-.1.6.3 1.5.9 1.8.5.3 1 1.1 1 1.7 0 .7-.6.6-1.5-.2-1-.9-1.5-.9-1.5-.1 0 .6.4 1.1.8 1.1s.8 1 .9 2.1c.2 1.9-.3 1.7-3.1-1.5-1.9-2-4-3.6-4.7-3.6-.8.1-.5.6.7 1.3 2 1.2 2.2 3.7.3 3.7-.6 0-.7-.5-.4-1 .3-.6.1-1-.5-1-.7 0-1 .6-.7 1.4.4 1 0 1.4-1.4 1.3-2.2-.1-2.4-.8-.8-2.4.8-.8.8-1.6 0-3-1-1.6-1.1-1.5-.5.7.6 2.2.5 2.3-1 1.1-.9-.8-1.6-.9-1.6-.3 0 .6.5 1.2 1.1 1.4.6.2.1 1.2-1.2 2.3-2.2 2-2.2 2-1.5-.1.8-2.6-1.2-4.5-4.2-3.9-1.2.2-2.2 0-2.2-.6 0-.5.3-.9.8-.9.4 0 2.2-1.4 4.1-3 1.8-1.7 3.7-2.8 4.2-2.5.5.4.9 0 .9-.7s5.5-6 12.2-11.8c6.7-5.8 15.6-13.6 19.8-17.5 9-8.4 45.2-44.5 53.3-53.3 3.2-3.4 6.3-6 6.8-5.7.5.4.7 0 .4-.7-.2-.7 1.7-3.7 4.4-6.5 2.7-2.9 6.8-7.6 9.2-10.5 2.4-2.9 6-7 7.9-9.2 1.9-2.3 3.8-4.5 4.2-5.1.4-.5 2.2-2.8 4.1-5 4.4-5.3 18.4-23.6 27.2-35.5 3.8-5.2 7.2-9.7 7.5-10 .3-.3 1-1.2 1.5-2.1.6-.9 4.9-7.4 9.6-14.5 11.4-17.2 19.7-30.3 28-44.3 3.8-6.4 7.4-12.3 7.9-13.1.5-.8 2.4-4.4 4.3-8 1.9-3.6 5.4-9.9 7.6-14 8.7-15.7 26.3-51.9 36.1-74 2.3-5.2 5-11.3 6-13.5 1-2.2 3-7.2 4.5-11 1.5-3.9 3.3-8.4 4.1-10 .7-1.7 2.7-6.6 4.4-11 1.7-4.4 3.5-8.9 3.9-10 .5-1.1 1.9-4.7 3.1-8 1.2-3.3 2.6-6.9 3-8 1.4-3.4 8.4-22.8 8.6-23.5 0-.3.3-1.2.6-2 .4-.8 1.8-5.1 3.3-9.5 1.5-4.4 3.1-8.4 3.6-8.9.8-.9 4.3-2 24.4-8.1 4.4-1.3 12.5-3.8 18-5.5 21-6.6 26-8.2 27-8.4 1-.2 5.6-1.6 33-10.1 7.7-2.4 19.2-5.9 25.5-7.9 34.8-10.7 95-29.2 104.5-32.1 34.4-10.7 155.7-47.9 159.5-49 2.5-.7 11.1-3.4 19.2-5.9 21.2-6.7 29.9-6.3 53.2 2.4 12.1 4.4 13.8 4.8 20.2 4.5 3.8-.3 8-.7 9.4-.9 1.4-.3 5-.8 8-1.1 3-.3 6.6-.8 8-1 1.4-.3 5-.7 8-1 3-.3 7.3-.8 9.5-1.1 6.7-.9 8.8-1.2 14.5-1.9 3-.4 6.6-.8 8-1 2-.3 10.8-1.3 16.5-2 .6 0 4.6-.5 9-1s8.2-.9 8.5-1c.3-.1 3.7-.5 7.5-.9 3.9-.5 7.7-1 8.5-1.1.9-.2 4.3-.6 7.5-1 14.2-1.7 23.5-11.9 23.5-25.7 0-5-.9-7.6-17-48.8-3.7-9.6-8.5-22-10.6-27.5-8.5-22.4-14.1-25.2-34.4-17.2-27.2 10.7-28.2 11.1-29.1 9.6-1.4-2.2-1.1-6.6.4-6.2 1.5.6.6-6.1-1.4-9.3-3.9-6.4-8.7-8.1-12.7-4.4zM257 991c0 .5-.4 1-1 1-.5 0-1-.5-1-1 0-.6.5-1 1-1 .6 0 1 .4 1 1zm5.3 1.7c-.1 1.1.4 2.7 1.2 3.3 1.8 1.5 2 3.1.3 2.7-1.6-.3-3.8-2.9-3.2-3.8.4-.8-4.6-.3-5.4.5-.3.4 0 1.2.8 1.9.9.8 1.1.8.6 0-.3-.6-.2-1.4.3-1.7 1.4-.9 2 1.8.6 3.1-.9.8-1.5.9-2.4 0-.8-.8-1.7-.5-3.3 1-3.9 3.5-7.7 0-4.2-3.9 1-1 2.4-1.6 3.2-1.3 1.5.5 7.2-2.1 7.2-3.4 0-.4 1-.8 2.3-.7 1.6.1 2.1.7 2 2.3zm-31.4.6c-.9.7-1.4 1.7-1.2 2.4.2.6-.5 1.6-1.5 2.2-1.5.8-2.1.7-2.6-.4-.3-.8-1.1-1.5-1.8-1.4-1 0-1 .2 0 .6.6.2 1.2 1 1.2 1.6 0 .6-.7.4-1.6-.5-2.5-2.4-.8-4.3 2.1-2.4 1.7 1.2 2.6 1.3 3.1.4.5-.7.2-.8-.7-.3-.8.5-.3-.4 1-1.8 1.4-1.5 2.7-2.4 3-2.1.3.3-.1 1.1-1 1.7zm45.9 1.3c.8.6 1.2 1.6.9 2.1-.4.6-.1 1.3.7 1.6.9.4 1.2 0 .9-1.3-.3-1 0-2.1.5-2.4.6-.3.9.2.7 1.1-.1 1 .2 2.6.7 3.6 1.4 2.8.4 3-2.5.6-1.5-1.1-3.1-1.8-3.6-1.5-.5.4-1.3-.3-1.6-1.5-.5-1.4-1.2-1.8-2.3-1.4-.9.3-.6-.4.8-1.7 1.4-1.3 2.7-1.9 2.9-1.3.2.5 1.1 1.5 1.9 2.1zm20.8-2.4c.9.7 2.4 2.1 3.4 3 1.3 1.2 2 1.3 2.4.5.5-.9.8-.9 1.2.1.5 1 .9.9 2-.5 1.3-1.7 1.5-1.7 2.8-.1.7 1 1.9 1.8 2.6 1.8.7 0 1.9-.8 2.6-1.8 1.3-1.6 1.5-1.6 2.7 0 1.2 1.5 1.4 1.5 2.7-.5 1.2-2 1.2-2.1-.3-.8-1 .7-1.7.9-1.7.3 0-1.2 3-3.7 3.1-2.6.5 3.4.6 5.4.1 4.9-.3-.2-1.1 0-1.8.6-1.6 1.3-3.7.2-2.8-1.3.4-.7.2-.8-.5-.4-.9.6-.9 1.1-.1 2.1 1.1 1.4.3 4.8-1 4-.5-.3-1.4.3-1.9 1.2-1.1 1.7-1.1 1.7-2.2 0-.5-.9-1.4-1.5-1.9-1.2-.5.3-1.1-.4-1.5-1.5-.6-2-1.1-2.2-5-2.4-1.2-.1-1.9-.7-1.7-1.5.3-1.2.1-1.2-1.4 0-1.6 1.3-1.7 1.2-1-.6.7-1.9.6-1.9-1.6.1-2.5 2.3-5.8 2.8-5.8.9 0-.7-.8-1.9-1.7-2.6-1.5-1.1-1.6-1.1-.5.1 1.7 2 1.5 3.5-.3 2-2.3-1.9-1.3-3.3 2.3-3.5 1.7-.1 3.5-.5 3.9-.8.9-.9 1.2-.9 2.9.5zm16.1.8c.2 2.3-1.5 3.6-2.8 2.3-1.2-1.2-.1-4.3 1.5-4.3.6 0 1.2.9 1.3 2zm-118 0c-.2 1.1 1.5 5 2.3 5 .4 0 .6.8.3 1.8-.5 2.2-2.6 2.2-7.2-.1-3.6-1.8-5.1-1.5-5.1 1.1 0 1.3-.2 1.4-1.2.3-1.1-1-1-1.5.4-2.5 1.2-.9 1.4-1.6.7-2.3-.7-.7-.3-1.1 1.5-1.1 1.4 0 2.5.3 2.4.7-.3 2.7.3 3.1 2.5 1.6 1.3-.8 2.6-1.4 2.8-1.3.2.2-.4-.3-1.3-1.1-2.3-1.8-2.3-2.7.1-2.7 1.1 0 1.9.3 1.8.6zm110 .6c.2.5-.6 1-1.7 1-2 0-2.5-.7-1.3-2 .9-.8 2.6-.3 3 1zM201 994c0 .5-.4 1-1 1-.5 0-1-.5-1-1 0-.6.5-1 1-1 .6 0 1 .4 1 1zm84.5.9c-.3.6-1.1.8-1.7.5-.6-.4-.5-.9.3-1.5 1.6-1 2.3-.4 1.4 1zm-74.8 1.8c-.8.7-3.7-.9-3.1-1.9.3-.5 1.2-.4 2 .3.8.6 1.3 1.4 1.1 1.6zm6.9-1.6c.7 1.2-3.2 4.9-5.1 4.8-.5 0-.2-.6.7-1.3 1-.7 1.5-1.6 1.2-1.9-.8-.7.4-2.7 1.6-2.7.5 0 1.2.5 1.6 1.1zm51.4.5c0 .8-.5 1.2-1 .9-.6-.4-.8-1.1-.5-1.6.9-1.4 1.5-1.1 1.5.7zm-48 .9c0 .8-.4 1.5-1 1.5-.5 0-1-.7-1-1.5s.5-1.5 1-1.5c.6 0 1 .7 1 1.5zm20-.5c0 .4-.9 1.5-2 2.5-1.7 1.5-2 1.6-1.5.3.7-1.8-1-3.4-2-1.8-.9 1.4-2.2 1.3-2.2-.3 0-.7 1.5-1.2 3.9-1.3 2.1 0 3.8.2 3.8.6zm-37.5 1.1c-.4.5.1 1.9 1.1 3 .9 1 1.3 1.9.7 1.9-.5 0-1.7-.8-2.6-1.8-1.3-1.4-1.4-2.1-.5-3 1.5-1.5 2.1-1.6 1.3-.1z"/><path d="M248 996.7c-1.3 1.5-1.2 1.6.3 1 1.5-.6 1.7-.3 1.2 1.3-.6 1.8-.3 1.8 2.1-.5 1.5-1.4 2.4-2.8 2.1-3.2-.4-.3-.7-.1-.7.5 0 .7-.7 1.2-1.6 1.2-.8 0-1.2-.5-.9-1 1-1.6-.9-1.1-2.5.7zm26.3-1.2c0 .7.6 1.1 1.4.8.7-.3 1.3-.6 1.3-.8 0-.2-.6-.5-1.3-.8-.8-.3-1.4.1-1.4.8zm20.9-3c.4.4.3 1.6-.3 2.6-.5 1.1-.7 1.9-.5 1.9.3 0 1-.9 1.6-1.9.7-1.5.7-2.2-.2-2.7-.7-.4-1-.4-.6.1zm-2.6 2.2c-.6 1.4-.5 1.5.5.6.7-.7 1-1.5.7-1.8-.3-.3-.9.2-1.2 1.2zM307 996c0 .5.5 1 1.1 1 .5 0 .7-.5.4-1-.3-.6-.8-1-1.1-1-.2 0-.4.4-.4 1zm1.5 3c-.3.6.1.7.9.4.9-.3 1.6-.1 1.6.5s.5 1.1 1.1 1.1c.8 0 .8-.5-.1-1.5-1.4-1.7-2.6-1.9-3.5-.5zm4.5-.6c0 .2.7.7 1.6 1 .8.3 1.2.2.9-.4-.6-1-2.5-1.4-2.5-.6zm-119.2.3c.6.3 1 .9.6 1.4-.8 1.4.2 1.1 1.4-.4.8-1 .6-1.3-1.1-1.4-1.2 0-1.6.1-.9.4zM405.5 976c.3.5.8 1 1.1 1 .2 0 .4-.5.4-1 0-.6-.5-1-1.1-1-.5 0-.7.4-.4 1zm83 0c-.3.6.1.7.9.4 1.8-.7 2.1-1.4.7-1.4-.6 0-1.3.4-1.6 1zm70.8.5c0 .8.4 1.2.9.9.5-.3.6-1 .3-1.5-.9-1.3-1.2-1.1-1.2.6zm-215.7 2.2c-.6 1.4-.5 1.5.5.6.7-.7 1-1.5.7-1.8-.3-.3-.9.2-1.2 1.2zm20-.2c-.9 2.6-.7 3.2.5 1.2.6-1 .9-2.1.6-2.3-.2-.3-.7.2-1.1 1.1zm68 .2c-.6 1.4-.5 1.5.5.6.7-.7 1-1.5.7-1.8-.3-.3-.9.2-1.2 1.2zm31.7-.2c0 .8.4 1.2.9.9.5-.3.6-1 .3-1.5-.9-1.3-1.2-1.1-1.2.6zm136.6-.3c-.5 1.8-.6 3.8-.1 3.4.7-.8 1.2-3.6.6-3.6-.2 0-.4.1-.5.2zm-432.3 1.6c-.3.5.1.9.9.9s1.2-.4.9-.9c-.3-.4-.7-.8-.9-.8-.2 0-.6.4-.9.8zm109.9.2c.3.5.8 1 1.1 1 .2 0 .4-.5.4-1 0-.6-.5-1-1.1-1-.5 0-.7.4-.4 1zm7.5.1c0 .5.5.7 1 .4.6-.3 1-.8 1-1.1 0-.2-.4-.4-1-.4-.5 0-1 .5-1 1.1zm50.6.6c-.6 1.4-.5 1.5.5.6.7-.7 1-1.5.7-1.8-.3-.3-.9.2-1.2 1.2zm70.4-1.3c0 .2.8 1 1.8 1.7 1.5 1.3 1.6 1.2.3-.4s-2.1-2.1-2.1-1.3zm31 .6c0 .5.5 1 1.1 1 .5 0 .7-.5.4-1-.3-.6-.8-1-1.1-1-.2 0-.4.4-.4 1zm158 0c0 .5.5 1 1.1 1 .5 0 .7-.5.4-1-.3-.6-.8-1-1.1-1-.2 0-.4.4-.4 1zm8.6.2c.3.5 1 .6 1.5.3 1.3-.9 1.1-1.2-.6-1.2-.8 0-1.2.4-.9.9zm-60.6.2c0 .2.8 1 1.8 1.7 1.5 1.3 1.6 1.2.3-.4s-2.1-2.1-2.1-1.3zm162.3 1.1c0 .8.4 1.2.9.9.5-.3.6-1 .3-1.5-.9-1.3-1.2-1.1-1.2.6zm42.2-.6c-.3.5-.2 1.2.3 1.5.5.3.9-.1.9-.9 0-1.7-.3-1.9-1.2-.6zM181 982c0 .5.5 1 1.1 1 .5 0 .7-.5.4-1-.3-.6-.8-1-1.1-1-.2 0-.4.4-.4 1zm36.5-.1c-.3.5-.2 1.2.3 1.5.5.3.9-.1.9-.9 0-1.7-.3-1.9-1.2-.6zm65.9.5c.1.8.5 1.8.8 2.2.4.3.5-.1.4-1-.1-.8-.5-1.8-.8-2.2-.4-.3-.5.1-.4 1zm48.5-1.2c-1 3.3.6 4.6 2.8 2.4.4-.4.1-.6-.7-.4-.8.1-1.4-.3-1.2-1 .2-1-.6-1.9-.9-1zm11.7.6c-.3.5.1.9.9.9s1.2-.4.9-.9c-.3-.4-.7-.8-.9-.8-.2 0-.6.4-.9.8zm27.6.2c.2.8-.2 1.4-.9 1.3-1.2-.3-1.2 2.2.1 3.4.4.4.6.1.4-.7-.1-.8.2-1.4.9-1.3 1.2.3 1.2-2.2-.1-3.4-.4-.4-.6-.1-.4.7zm24.1.7c0 .9.4 1 1.4.2.7-.6 1.3-1.2 1.3-1.4 0-.1-.6-.2-1.3-.2-.8 0-1.4.6-1.4 1.4zm15.9-.7c.2.9-.3 1.4-1.2 1.2-.8-.2-1.1 0-.7.4 1.3 1.4 3.5 1.2 3.3-.2-.1-.7-.6-1.7-1-2.1-.4-.4-.6-.1-.4.7zm16.1 1c-.1 1.1.2 2.2.6 2.4.4.3.7-.4.6-1.4-.2-2.7-1-3.3-1.2-1zm4.3-1.2c-.3.5.1.9.9.9s1.2-.4.9-.9c-.3-.4-.7-.8-.9-.8-.2 0-.6.4-.9.8zm31.9.1c-.3.5-.2 1.2.3 1.5.5.3.9-.1.9-.9 0-1.7-.3-1.9-1.2-.6zm69.5.1c0 .5.5 1 1.1 1 .5 0 .7-.5.4-1-.3-.6-.8-1-1.1-1-.2 0-.4.4-.4 1zm24.5-.3c.3.3-.5 1.8-1.7 3.2-2 2.2-2 2.3-.2.8 1.1-.9 2.3-1.4 2.7-1.1.3.3.4-.1.3-1-.1-.8-.5-1.8-.9-2.1-.4-.3-.5-.2-.2.2zm4 .2c-.3.5-.2 1.2.3 1.5.5.3.9-.1.9-.9 0-1.7-.3-1.9-1.2-.6zm83.8.6c0 .8.4 1.2.9.9.5-.3.6-1 .3-1.5-.9-1.3-1.2-1.1-1.2.6zm10.7-.5c-1.2.7-1 .9.7.7 1.2 0 1.9-.5 1.7-.9-.6-1-.6-1-2.4.2zm13.6-.2c-.3.4.4.9 1.5.9 2.3.2 2.5-.3.4-1-.8-.4-1.6-.3-1.9.1zm-472.1 1.3c-.4.6-.5 1.2-.2 1.5.2.3.7-.2 1-1.1.7-1.7.1-2-.8-.4zm80.1.2c.3 1 .9 1.5 1.2 1.2.3-.3 0-1.1-.7-1.8-1-.9-1.1-.8-.5.6zm45.9-.3c-.4.6-1 .8-1.5.5-.4-.3-1.4.3-2.1 1.3-1.2 1.5-1.2 1.6.2.5.9-.7 1.8-1.1 2.1-.8.3.3 1.1-.1 1.8-1 .7-.8 1-1.5.7-1.5-.3 0-.9.5-1.2 1zm28 .1c-.4.6-1.4.8-2.4.4-1.3-.5-1.4-.4-.3.6 1 1.1 1.5 1 2.9-.4 1-.9 1.4-1.7 1.1-1.7-.4 0-1 .5-1.3 1.1zm13.6.2c-.8 1-.7 1.4.2 1.4.8 0 1.4-.6 1.4-1.4 0-.7-.1-1.3-.2-1.3-.2 0-.8.6-1.4 1.3zm24.4-.3c-.4.6-1 .8-1.4.6-.4-.3-.8.5-.8 1.6-.1 1.1-.1 1.9 0 1.7.1-.2 1.1-1.4 2.1-2.7 1.1-1.2 1.6-2.2 1.3-2.2-.3 0-.9.5-1.2 1zm31.5-.6c0 .2.8 1 1.8 1.7 1.5 1.3 1.6 1.2.3-.4s-2.1-2.1-2.1-1.3zm78.3 1.1c0 .8.4 1.2.9.9.5-.3.6-1 .3-1.5-.9-1.3-1.2-1.1-1.2.6zm6.3-.2c.3 1 .9 1.5 1.2 1.2.3-.3 0-1.1-.7-1.8-1-.9-1.1-.8-.5.6zm9.7.2c0 .8.4 1.5.9 1.5.4 0 .8-.4.8-.9 0-.6-.4-1.2-.8-1.5-.5-.3-.9.1-.9.9zm12.4-.8c-1 .9-.9 2.3.1 2.3.5 0 .9-.7.9-1.5 0-1.7-.1-1.8-1-.8zm-388.4 1c.4.3.1 1.3-.6 2.2-1.1 1.4-1 1.4.5.2 1.6-1.2 1.6-3.1.1-3.1-.4 0-.3.3 0 .7zm6 .8c0 .8.4 1.2.9.9.5-.3.6-1 .3-1.5-.9-1.3-1.2-1.1-1.2.6zm6-.8c.4.3.1 1.3-.6 2.2-1.1 1.4-1 1.4.5.2 1.6-1.2 1.6-3.1.1-3.1-.4 0-.3.3 0 .7zm11.7.3c0 .5.5 1 1 1 .6 0 1-.5 1-1 0-.6-.4-1-1-1-.5 0-1 .4-1 1zm36.4.2c-.4.7-.4 1 .1.6.4-.4 1.5-.2 2.4.5 1.4 1.1 1.4 1 .2-.6-1.6-2-1.8-2.1-2.7-.5zm23 .4c.9.6 1.4 1.4 1.1 1.7-.3.4-.2.5.2.2 1.5-1.2 1-3.1-.9-3.1-1.7 0-1.7.2-.4 1.2zm8.4-.2c.4.6.7 1.4.7 1.8 0 1.9 1.1 1.4 1.1-.6 0-1.2-.6-2.3-1.3-2.3-.6 0-.9.5-.5 1.1zm62.9.1c-.4.8-.3 1.6.1 1.9.4.3.9-.4.9-1.5.2-2.3-.3-2.5-1-.4zm16 0c-.4.8-.3 1.6.1 1.9.4.3.9-.4.9-1.5.2-2.3-.3-2.5-1-.4zm46.2.2c-1.3 1.6-1.2 1.7.4.4 1.6-1.3 2.1-2.1 1.3-2.1-.2 0-1 .8-1.7 1.7zm21.1-.7c0 .5.5 1 1.1 1 .5 0 .7-.5.4-1-.3-.6-.8-1-1.1-1-.2 0-.4.4-.4 1zm58.5-.1c-.3.5-.2 1.2.3 1.5.5.3.9-.1.9-.9 0-1.7-.3-1.9-1.2-.6zm7.8.7c0 .9.4 1.1 1.2.4.7-.5 1.4-.9 1.6-.7.2.1.3 0 .1-.2-.7-1.1-2.9-.7-2.9.5zm16.7-.6c-1.2.7-1 .9.7.7 1.2 0 1.9-.5 1.7-.9-.6-1-.6-1-2.4.2zm33.6.7c-.6 1.4-.5 1.5.5.6.7-.7 1-1.5.7-1.8-.3-.3-.9.2-1.2 1.2zm8.3 0c-1.2 1.6-1.2 1.7.2.6.9-.7 2-.9 2.4-.5.5.4.5.1.1-.6-.9-1.6-1.1-1.5-2.7.5zm63.4-.2c0 .8.4 1.2.9.9.5-.3.6-1 .3-1.5-.9-1.3-1.2-1.1-1.2.6zm17.3-.7c-.3.5.1.9.9.9s1.2-.4.9-.9c-.3-.4-.7-.8-.9-.8-.2 0-.6.4-.9.8zm15 0c-.3.5.1.9.9.9s1.2-.4.9-.9c-.3-.4-.7-.8-.9-.8-.2 0-.6.4-.9.8zm17.4.2c0 .5.5 1 1.1 1 .5 0 .7-.5.4-1-.3-.6-.8-1-1.1-1-.2 0-.4.4-.4 1zm26.6-.2c-.3.5.1.9.9.9s1.2-.4.9-.9c-.3-.4-.7-.8-.9-.8-.2 0-.6.4-.9.8zm10 .4c.3.5 1 .6 1.5.3 1.3-.9 1.1-1.2-.6-1.2-.8 0-1.2.4-.9.9zm37.4-.1c0 .5.5.7 1 .4.6-.3 1-.8 1-1.1 0-.2-.4-.4-1-.4-.5 0-1 .5-1 1.1zm39-.1c-.9.6-1 1-.3 1 .6 0 1.5-.5 1.8-1 .8-1.2.4-1.2-1.5 0zm-612.1.5c-.1.3-.2 1-.3 1.5 0 .6-.8 1.5-1.6 2-.9.6-1 1-.3 1 1.3 0 2.6-1.7 2.9-3.8.2-1.1-.5-1.8-.7-.7zm227.5.3c.3.5 0 1.3-.6 1.5-.9.4-1 .6-.1.6 1.7.1 2.5-1.6 1.2-2.5-.7-.4-.9-.3-.5.4zm56.5-.1c-.1.5-.1 1.2 0 1.7s-.5.6-1.3.3c-.9-.4-1.3 0-1.1 1.1.1 1-.7 2-1.9 2.4-1.9.6-1.8.7.4.5 1.4-.1 2.3-.6 2.2-1.1-.2-.5.2-1.2.9-1.7 1.2-.7 2.2-3.9 1.3-3.9-.2 0-.5.3-.5.7zm79.5.1c.3.5 0 1.3-.6 1.5-1 .4-1 .6 0 .6.7.1 1.1.5.7 1-.3.5 0 1.3.7 1.7.7.4 1 .4.6-.1-.4-.4 0-1.4 1-2.2 1.6-1.2 1.6-1.3-.2-.6-1.3.4-1.7.3-1.2-.5.3-.6.1-1.4-.5-1.8-.7-.4-.9-.3-.5.4zm111.5.9c-1.3 1.6-1.2 1.7.4.4 1.6-1.3 2.1-2.1 1.3-2.1-.2 0-1 .8-1.7 1.7zm64.1-1.3c0 .2.8 1 1.8 1.7 1.5 1.3 1.6 1.2.3-.4s-2.1-2.1-2.1-1.3zm102.5.5c-.3.5-.2 1.2.3 1.5.5.3.9-.1.9-.9 0-1.7-.3-1.9-1.2-.6zM103 986.2c0 1.1 1.2 1 3-.2 1.2-.7 1-.9-.8-.7-1.2 0-2.2.5-2.2.9zm15.4 0c-.3.4.5.5 1.7.3 3-.6 3.6-1.4.9-1.2-1.2.1-2.4.5-2.6.9zm8.1-.2c-.3.6.1.7.9.4 1.8-.7 2.1-1.4.7-1.4-.6 0-1.3.4-1.6 1zm4.5.5c.5.7.6 1.6.2 2.1-.4.5-.3.6.2.2.5-.4 1.5 0 2.3 1 1.2 1.5 1.3 1.4.1-.8-.7-1.4-1.2-2.8-1.1-3.1.1-.3-.5-.6-1.2-.6-1 0-1.2.4-.5 1.2zm3.7-.4c.7.7 1.5 1 1.8.7.3-.3-.2-.9-1.2-1.2-1.4-.6-1.5-.5-.6.5zm49.3.4c-.7.9-.8 1.5-.2 1.5.5 0 1.2-.7 1.6-1.5.3-.8.4-1.5.2-1.5s-.9.7-1.6 1.5zm140.5-.5c-.5.9 1 5 1.9 5 .2 0 1-.8 1.7-1.8 1.3-1.6 1.3-1.6-.5-.2-1.8 1.4-1.9 1.3-1.3-.3.5-1.2.3-1.6-.5-1.1s-.9.2-.5-.9c.7-1.8.2-2.3-.8-.7zm10.8.5c0 .8.4 1.2.9.9.4-.3.8-.9.8-1.5 0-.5-.4-.9-.8-.9-.5 0-.9.7-.9 1.5z"/><path d="M346.7 986.6c.4 1.2.3 1.5-.5 1s-1-.1-.5 1.1c.6 1.6.5 1.7-1.3.3-1.4-1-1.6-1.1-.7 0 1.3 1.4.1 4-1.9 4-.6 0-.5-.6.1-1.4 1-1.2.8-1.7-.9-2.6-1.2-.6-2.4-.9-2.8-.6-.3.3 0 .6.8.6.9 0 1 .3.1 1.3-.6.8-.7 1.8-.3 2.2.4.5-.2.5-1.3.1s-1.6-.4-1.2.1c.5.4 2.2.8 3.8.9 2.1.1 3.6-.6 5.4-2.8 2.7-3.2 3-4.3 1.5-5.3-.6-.4-.7.1-.3 1.1zm-5.2 4.4c-.3.5-1.1 1-1.6 1-.6 0-.7-.5-.4-1 .3-.6 1.1-1 1.6-1 .6 0 .7.4.4 1zm10.2-4c-.9 1.1-1.3 2-.7 2 .5 0 1.4-.9 2-2 .6-1.1.9-2 .8-2-.2 0-1.1.9-2.1 2zm86.9-.5c.6 1.4.4 1.6-.7 1-.8-.5-1.1-.4-.6 0 1 1.2 3.7 1.5 3.7.5 0-.4-.7-1.3-1.5-2-1.3-1.1-1.4-1-.9.5zm25-.7c-.3.5.1.9.9.9s1.2-.4.9-.9c-.3-.4-.7-.8-.9-.8-.2 0-.6.4-.9.8zm7.4.1c0 .5.8 1.5 1.8 2.2 1.5 1.2 1.6 1.2.5-.2-.7-.9-1-1.9-.6-2.2.3-.4.1-.7-.5-.7-.7 0-1.2.4-1.2.9zm3.7.2c.7.7 1.5 1 1.8.7.3-.3-.2-.9-1.2-1.2-1.4-.6-1.5-.5-.6.5zm20.9-.3c-.3.5.1.9.9.9s1.2-.4.9-.9c-.3-.4-.7-.8-.9-.8-.2 0-.6.4-.9.8zm42.4-.2c0 .1.6.7 1.4 1.3 1 .9 1.5.8 1.9-.2.3-.8-.3-1.3-1.4-1.3-1.1 0-1.9.1-1.9.2zm30.2.6c-1.5 1.5-1.5 2.8 0 2.8.6 0 .8-.3.5-.7-.4-.3-.2-1.2.4-2 1.4-1.6.7-1.7-.9-.1zm3-.7c.4.4.3 1.4-.4 2.2-.6.7-.9 1.5-.7 1.8.3.2 1-.4 1.7-1.5.9-1.5.9-2.1-.1-2.6-.6-.4-.9-.4-.5.1zm3.7.8c.6.8.7 1.8.3 2.2-.4.5-.1.5.6.1 1-.6 1-1.1.1-2.2-.6-.8-1.4-1.4-1.6-1.4-.3 0 0 .6.6 1.3zm35.7-.5c-.3.5.1.9.9.9s1.5-.4 1.5-.9c0-.4-.4-.8-.9-.8-.6 0-1.2.4-1.5.8zm8.4 0c0 .5.7.9 1.5.9s1.2-.4.9-.9c-.3-.4-.9-.8-1.5-.8-.5 0-.9.4-.9.8zm90.5.2c-.3.5-.1 1 .4 1 .6 0 1.1-.5 1.1-1 0-.6-.2-1-.4-1-.3 0-.8.4-1.1 1zm35.5.1c0 .5.5.7 1 .4.6-.3 1-.8 1-1.1 0-.2-.4-.4-1-.4-.5 0-1 .5-1 1.1zm16.5-.2c-.3.5-.2 1.2.3 1.5.5.3.9-.1.9-.9 0-1.7-.3-1.9-1.2-.6zm23.1.3c.3.5 1 .6 1.5.3 1.3-.9 1.1-1.2-.6-1.2-.8 0-1.2.4-.9.9zm14.4-.3c0 .6.4 1.3 1 1.6.6.3.7-.1.4-.9-.7-1.8-1.4-2.1-1.4-.7zm-727.1.3c-.8 2.6-.5 3.6.9 3.1 1.1-.5 1.3-.3.7.7-.6.9-.4 1.1.5.5 1-.6 1-1.1-.3-2-.9-.7-1.4-1.5-1-1.8.3-.4.3-.7 0-.7-.4 0-.7.1-.8.2zm25.6.7c-.3.6-1.4.8-2.5.6-1.1-.2-2.2 0-2.5.5-.3.5.4.7 1.6.5 1.5-.3 1.9 0 1.5 1-.8 2.3 0 1.8 1.8-1 .9-1.4 1.4-2.5 1.2-2.5-.3 0-.7.4-1.1.9zm12.3.3c1.6 1.6 1.5 3.1 0 2.2-.7-.4-1-.3-.5.1.4.5 1.6 1 2.7 1.2 1.9.3 1.9.2-.2-2.2-1.2-1.4-2.4-2.5-2.7-2.5-.3 0 0 .5.7 1.2zm30.8.1c-1.6 1.2-1.6 1.4-.3 1.4.9 0 1.8-.6 2.1-1.4.3-.7.4-1.3.3-1.3-.2 0-1.1.6-2.1 1.3zm6.9-.4c-.3.5-.2 1.2.3 1.5.5.3.9-.1.9-.9 0-1.7-.3-1.9-1.2-.6zm13.9-.2c.5.9 0 1.3-1.3 1.3-2.4 0-3.6 1.6-2 2.6.8.5.9.3.4-.6-.6-1-.2-1.2 1.7-.8 2.6.5 3.3-1.2 1.3-2.9-.4-.4-.5-.2-.1.4zm3.9.8c0 .8.4 1.2.9.9.5-.3.6-1 .3-1.5-.9-1.3-1.2-1.1-1.2.6zm12.3-.1c.7 1.9 3 2.1 4 .4.4-.7.3-.8-.5-.4-.6.4-1.9.2-2.7-.5-1.2-1-1.3-.9-.8.5zm9.4.1c0 .8.4 1.5.8 1.5.5 0 .9-.7.9-1.5s-.4-1.5-.9-1.5c-.4 0-.8.7-.8 1.5zm10.3.2c0 .8.6.9 1.9.2 1-.5 1.8-1.1 1.8-1.2 0-.2-.8-.3-1.8-.3s-1.9.6-1.9 1.3zm91.5-1c-1 .2-1.8.9-1.8 1.4 0 .6.8.5 2-.1 1.1-.6 2-1.3 2-1.5 0-.3-.1-.4-.2-.4-.2.1-1.1.3-2 .6zm18.9 1.4c.4 1.3.8 1.8 1.1 1 .2-.7-.1-1.8-.6-2.3-.8-.8-.9-.4-.5 1.3zm58.4-.2c-.1 2.3-.2 2.3-1.9.8-1-1-2.2-1.7-2.6-1.7-.5 0 .2.9 1.5 1.9 2.6 2.1 4.4 1.4 3.6-1.5-.4-1.5-.5-1.4-.6.5zm23.3-.1c.2 1-.5 2-1.8 2.4-1.8.6-1.8.7.4.5 1.4-.1 2.4-.8 2.3-1.5-.4-1.6 1.4-1.6 2 0 .4 1 .6 1 .6 0 .1-.8.6-1 1.4-.6.6.4 1 .5.7.1-.3-.3-.9-.6-1.5-.7-.5-.1-1.7-.6-2.7-1.1-1.2-.7-1.6-.5-1.4.9zm35.6-1c0 .7-1.7 2.9-3.8 5-3.1 3.1-3.5 3.8-1.9 3.8 1.1-.1 2.2.6 2.5 1.4.5 1.3.3 1.3-1.4 0-1.8-1.4-1.8-1.4-.5.3.9 1.2 1.7 1.5 2.4.8s.6-1.5-.2-2.5c-1-1.2-.8-2.2 1.5-5.1 1.5-1.9 2.4-3.8 2-4.2-.3-.3-.6-.1-.6.5zm21.2 0c.2.8.8 1.3 1.3 1.3.6 0 1.4.7 1.8 1.5.5.8 1.2 1.2 1.8.9.5-.4.9-.2.9.4 0 .5-.5 1.2-1 1.4-.6.3-.5.4.2.3.7-.2 1.3-.8 1.3-1.4 0-.7-.3-1.1-.7-1-.4.2-1.4-.6-2.2-1.7-.9-1.1-1.6-1.6-1.6-1 0 .5-.5.3-1.1-.5-.7-1-.9-1.1-.7-.2zm5.6-.1c.7.3 1.6.2 1.9-.1.4-.3-.2-.6-1.3-.5-1.1 0-1.4.3-.6.6zm5.6.1c.3.6-.2 1.3-1.1 1.5-1.6.4-1.6.5-.1.6 2.1.1 3.2-1.5 1.7-2.5-.7-.4-.9-.3-.5.4zm48.6-.2c0 1.3 1.8 3.9 2.4 3.4.2-.3-.2-1.4-1-2.4-.8-1.1-1.4-1.6-1.4-1zm3.7.5c.7.7 1.5 1 1.8.7.3-.3-.2-.9-1.2-1.2-1.4-.6-1.5-.5-.6.5zm4 1c.4 1.3.8 1.8 1.1 1 .2-.7-.1-1.8-.6-2.3-.8-.8-.9-.4-.5 1.3zm3.6-.6c-.3.9-.3 1.8-.1 2.1.3.3.8-.4 1.1-1.6.6-2.3-.1-2.7-1-.5zm6.7.7l-2.5 2.1 2.4-.8c1.8-.5 2.2-.4 1.6.6-.5.8-.4 1.1 0 .6.6-.5 1.6-4.9 1.1-4.7-.1.1-1.2 1-2.6 2.2zm18.2-.2c-.9 1.5-.9 2.1.1 2.6.6.4.9.4.5-.1-.4-.4-.3-1.4.4-2.2.6-.7.9-1.5.7-1.8-.3-.2-1 .4-1.7 1.5zm3.4-.7c.3 1 .9 1.5 1.2 1.2.3-.3 0-1.1-.7-1.8-1-.9-1.1-.8-.5.6zm11.1.1c-1.7 1.3-1.7 1.4.1 1.8 1.2.4 1.8-.1 1.8-1.3 0-1.1 0-1.9-.1-1.9 0 0-.8.7-1.8 1.4zm24.6-.1c0 1.9 3.4 1.8 4.9-.1 1.2-1.5 1.1-1.6-.4-.3-1.3 1-2.1 1.1-3.1.2-1-.8-1.4-.7-1.4.2zm11.6.4c-1.3 1.6-1.2 1.7.4.4 1.6-1.3 2.1-2.1 1.3-2.1-.2 0-1 .8-1.7 1.7zm8 0c-1.3 1.6-1.2 1.7.4.4 1.6-1.3 2.1-2.1 1.3-2.1-.2 0-1 .8-1.7 1.7zm50.4-.2c0 .8.4 1.2.9.9.5-.3.6-1 .3-1.5-.9-1.3-1.2-1.1-1.2.6zm120.2-.6c-.3.5-.2 1.2.3 1.5.5.3.9-.1.9-.9 0-1.7-.3-1.9-1.2-.6zm7.8.6c0 .8.4 1.2.9.9.5-.3.6-1 .3-1.5-.9-1.3-1.2-1.1-1.2.6zm28 0c0 .8.4 1.2.9.9.5-.3.6-1 .3-1.5-.9-1.3-1.2-1.1-1.2.6zm15.7-1.1c0 .2.8 1 1.8 1.7 1.5 1.3 1.6 1.2.3-.4s-2.1-2.1-2.1-1.3zm-776 1.1c0 .7 3 1.3 3.4.7.3-.4-.4-.9-1.5-.9-1-.1-1.9 0-1.9.2zm18.6.7c.3.5 1 .6 1.5.3 1.3-.9 1.1-1.2-.6-1.2-.8 0-1.2.4-.9.9zm10.9-.2c-.3.6.1.7.9.4 1.8-.7 2.1-1.4.7-1.4-.6 0-1.3.4-1.6 1zm4.1.2c.3.4.9.8 1.5.8.5 0 .9-.4.9-.8 0-.5-.7-.9-1.5-.9s-1.2.4-.9.9zm6.4-.2c0 .5.5 1 1 1 .6 0 1-.5 1-1 0-.6-.4-1-1-1-.5 0-1 .4-1 1zm34.7.4c-.5 1.3 3.1 4.6 5 4.6.4 0-.4-.8-1.8-1.8-1.4-.9-2.4-2.3-2.2-3 .6-1.7-.4-1.5-1 .2zm47.3-.3c0 .7.3 1 .6.6.3-.3 1.8-.1 3.3.4 1.5.6 2.2.6 1.6.1-1.8-1.7-5.5-2.4-5.5-1.1zm34.3.4c0 .8.4 1.5.9 1.5.4 0 .8-.7.8-1.5s-.4-1.5-.8-1.5c-.5 0-.9.7-.9 1.5zm10.1-.3c-.4.7-.3.8.4.4s1.2-.2 1.2.3c0 .6.5 1.1 1 1.1 1.5 0 1.2-1.7-.5-2.3-.8-.4-1.7-.1-2.1.5zm32.8.1c1 .8 1.5 1.7 1.1 2.1-.4.4.1.4 1 0 2-.7 2-.7-1.3-2.3-2.2-1.1-2.3-1-.8.2zm16.8-.2c0 .5.5.7 1 .4.6-.3 1-.8 1-1.1 0-.2-.4-.4-1-.4-.5 0-1 .5-1 1.1zm10-.6c0 .7 3 1.3 3.4.7.3-.4-.4-.9-1.5-.9-1-.1-1.9 0-1.9.2zm19.1 1.1c0 1.1.3 1.4.6.6.3-.7.2-1.6-.1-1.9-.3-.4-.6.2-.5 1.3zm5.3-.5c-.4.7-.3.9.4.5.5-.3 1.3 0 1.5.6.4.9.6 1 .6.1.1-1.7-1.6-2.5-2.5-1.2zm6.4-.4c.7.3 1.6.2 1.9-.1.4-.3-.2-.6-1.3-.5-1.1 0-1.4.3-.6.6zm9.6.4c-.4.7-.3.9.4.5.5-.3 1.3 0 1.5.6.4.9.6 1 .6.1.1-1.7-1.6-2.5-2.5-1.2zm6.3 0c.7.7 1.5 1 1.8.7.3-.3-.2-.9-1.2-1.2-1.4-.6-1.5-.5-.6.5zm36.1 1.9c.9 1.6 2.1 3 2.5 3 .5 0-.1-1.4-1.3-3-2.7-3.9-3.4-3.9-1.2 0zm2.4-1.7c1 .8 1.5 1.7 1.1 2.1-.4.4.1.4 1.2 0 1.8-.7 1.8-.6.6.9-.9 1.1-1 1.7-.2 1.7.6 0 1.1-.5 1.1-1.1 0-.5.5-.7 1.2-.3.8.5.6 1.1-.6 2-.9.6-1.3 1.4-.9 1.7.5.3 1.4-.3 2-1.3 1.3-2-.1-3.7-4.7-5.9-2.2-1.1-2.3-1-.8.2zm10.4 0c.3 1 .9 1.5 1.2 1.2.3-.3 0-1.1-.7-1.8-1-.9-1.1-.8-.5.6zm6.8-.4c.3.5-.1 1.2-.9 1.5-1.4.5-1.4.9 0 3.5.8 1.6 1.2 3.6.9 4.4-.3.8-.1 1.8.5 2.2.7.4.8-.1.4-1.2-.5-1.5-.4-1.6.8-.7 1.1.9 1.7.9 2.8-.3 1.2-1.3 1.1-1.4-.8-.8-1.9.6-3.1-.8-1.3-1.8.4-.2.1-.2-.6 0-.8.1-1.2-.3-.9-.9.2-.7 1.3-1.2 2.3-1 1.8.2 1.8.2 0-.9-1.4-.9-2-.8-2.6.1-.6.9-.9.9-1.2-.1-.3-.8.4-1.9 1.5-2.5 1.7-1 1.8-1.2.3-1.7-1-.4-1.5-.3-1.2.2z"/><path d="M379.6 988.5c-.9 2.6-.7 3.2.5 1.2.6-1 .9-2.1.6-2.3-.2-.3-.7.2-1.1 1.1zm4.1.1c.3.9 0 1.4-.7 1.2-.7-.2-1.4.3-1.5 1-.2.7-.1.8.2.2.7-1.5 2.3-.1 1.6 1.5-.6 1.7 2.2 2.1 3.2.5.3-.5 0-.7-.9-.4-1 .4-1.3 0-1.1-1.3.2-1 .4-2.2.4-2.6.1-.5.7-.5 1.4-.1.6.4.8.3.4-.1-1.3-1.5-3.6-1.4-3 .1zm17.8-.6c-.3.5-.3 1 .1 1s-.1.6-1.2 1.4c-1.3 1-1.6 1.8-.8 2.5.7.8 1.6.7 3-.5 1.8-1.5 1.8-1.5-.3-.4-1.4.6-2.3.7-2.3.1 0-.5.5-1.1 1.2-1.3.6-.2 1.2-1.2 1.4-2.1.3-1.9-.2-2.2-1.1-.7zm2.6.6c0 1.1.3 1.4.6.6.3-.7.2-1.6-.1-1.9-.3-.4-.6.2-.5 1.3zm3.4-.5c-.4.6-.5 1.2-.2 1.5.2.3.7-.2 1-1.1.7-1.7.1-2-.8-.4zm5.9.1c-.4.7-.4 1 .1.6.4-.4 1.9.5 3.3 2 1.8 1.8 2.4 2.1 1.9.8-.5-1.4-.3-1.7.8-1.3.8.4 1.7.2 1.9-.2.3-.5-.5-.7-1.7-.7-1.2.1-2.9-.4-3.9-1.2-1.3-1.1-1.7-1.1-2.4 0zm6.4-.5c.7.3 1.6.2 1.9-.1.4-.3-.2-.6-1.3-.5-1.1 0-1.4.3-.6.6zm11.2.3c0 .6.7 1 1.5 1s1.5-.2 1.5-.4-.7-.6-1.5-1c-.8-.3-1.5-.1-1.5.4zm30.4.5c.1.8.6 1.8 1.1 2.2.4.4.5.3.2-.4-.4-.6-.2-1.3.5-1.5.8-.3.6-.6-.4-1s-1.5-.2-1.4.7zm4.5-.4c-1.2.8-1.2 1 .1.8 3-.3 4.1.1 3.4 1.3-.4.7-.3.8.4.4 1.6-1 1.5-1.4-.6-2.5-1.2-.6-2.3-.6-3.3 0zm21.1.6c.6 1.3 1.5 2.3 2 2.3 1.5 0 2.1-1.8.9-2.6-.8-.4-.9-.3-.5.4 1.1 1.9-.5 1.4-2.1-.6-1.3-1.5-1.3-1.5-.3.5zm5-.7c.8.5 2 1 2.5 1 .6 0 .3-.5-.5-1s-1.9-1-2.5-1c-.5 0-.3.5.5 1zm8.4.1c-.3.6-.2 1.5.4 2.1.6.6 1.2.6 1.7-.3.6-.8.4-1-.5-.4-1 .6-1.2.4-.7-.8.7-1.9.2-2.3-.9-.6zm31.6-.1c-.9.6-1 1-.3 1 .6 0 1.5-.5 1.8-1 .8-1.2.4-1.2-1.5 0zm3-.6c0 .2.7.7 1.6 1 .8.3 1.2.2.9-.4-.6-1-2.5-1.4-2.5-.6zm101 .1c0 .2.6.8 1.3 1.4 1 .8 1.4.7 1.4-.2 0-.8-.6-1.4-1.4-1.4-.7 0-1.3.1-1.3.2zm17.6 1.2c-.6 1.4-.5 1.5.5.6.7-.7 1-1.5.7-1.8-.3-.3-.9.2-1.2 1.2zm6.4-1.3c0 .2.8 1 1.8 1.7 1.5 1.3 1.6 1.2.3-.4s-2.1-2.1-2.1-1.3zm25.5.6c-.3.5-.1 1 .4 1 .6 0 1.1-.5 1.1-1 0-.6-.2-1-.4-1-.3 0-.8.4-1.1 1zm16 0c-.3.5-.1 1 .4 1 .6 0 1.1-.5 1.1-1 0-.6-.2-1-.4-1-.3 0-.8.4-1.1 1zm18.1.2c.3.5 1 .6 1.5.3 1.3-.9 1.1-1.2-.6-1.2-.8 0-1.2.4-.9.9zm98 0c.3.5 1 .6 1.5.3 1.3-.9 1.1-1.2-.6-1.2-.8 0-1.2.4-.9.9zm124.8-.4c.4.3 1.4.7 2.2.8.9.1 1.3 0 1-.4-.4-.3-1.4-.7-2.2-.8-.9-.1-1.3 0-1 .4zm-708.8 1.1c-.4.5.3.7 1.4.4 2.3-.6 2.6-1.3.6-1.3-.8 0-1.7.4-2 .9zm95.4 1.8c-2.6 2.1-3.3 2.4-4.1 1.2-.5-.8-.9-1.8-.9-2.3 0-.5-.3-.7-.6-.4-1.1 1.1 1.7 4.9 3.4 4.6 1.1-.2 1.8.5 2 2.1.2 1.4 0 2.1-.7 1.7-.5-.4-1.5.2-2 1.3-1.4 2.6-1.4 2.8.5 3.5 1.3.5 1.4.3.6-.7-1-1.2-.2-4 1.2-3.8 2 .3 2.5-.1 1.9-1.6-.5-1.2-.3-1.4.7-.8.8.5 1.1.4.7-.2-.4-.6 0-1.3.8-1.7 1.8-.6 1.9-.2.4 2.6-.8 1.4-.8 1.8 0 1.4.6-.4 2.3.1 3.8 1 2.8 1.7 2.8 1.6-.2-.9-3.2-2.8-2.8-3.6.8-1.3 1.2.8 3.3 1.3 4.7 1.1 1.4-.1 2.9.3 3.3.9.5.6.5 0 .1-1.4-.6-2.2-.5-2.3.9-1.1.9.7 2.3 1.1 3.1.8 1.6-.6 6.6 2.8 6.6 4.4 0 .6-.4.8-.9.5-.5-.3-1.6.5-2.5 1.9-1 1.5-1.2 2.6-.6 3 .6.4 1 .3.9-.2-.5-1.9 1.4-4.1 3.2-3.8 1 .2 2.2-.2 2.5-.8.4-.7.4-.9-.1-.5-1 .9-4-3-3-4 .3-.3 1.1 0 1.6.8.9 1.2 1 1.2.5-.3-.7-2.2-.1-2.2 4.3.5 2.6 1.6 3.2 1.8 2.3.5-.8-.9-2.2-1.9-3.3-2.2-1.1-.4-1.7-1-1.5-1.4.3-.4-.4-.7-1.4-.7-1 0-1.7.3-1.4.7.2.4-.3 1-1.2 1.3-2.4.9-2.8.7-1.5-.8 1-1.1.8-1.6-.9-2.1-1.1-.3-1.8-1.1-1.5-1.6.4-.5.1-.9-.4-.9-.6 0-1 1-.8 2.2.1 1.7-.3 2.3-1.7 2.3-1.1 0-2.2-.7-2.4-1.5-.5-1.3-.3-1.3 1.1-.1 1.1.9 1.7 1 1.7.2 0-.6-.5-1.1-1.2-1.1-.9 0-.9-.3 0-1.2.7-.7 1.2-1.6 1.2-2.1 0-.7-3.3 3-4.5 5.1-.1.1-1.7.4-3.5.6-2.8.3-3.9-.2-6.3-2.7-2.1-2.3-2.5-3.2-1.5-3.8.9-.6.9-.9.1-.9-.6 0-2.6 1.2-4.3 2.7zm3.7 1c.5 1.3-2.5 2.6-3.8 1.7-.6-.3-.5-1.1.2-2 1.3-1.6 3.1-1.4 3.6.3zM353 995c0 .5-.5 1-1.1 1-.5 0-.7-.5-.4-1 .3-.6.8-1 1.1-1 .2 0 .4.4.4 1zm130-6c0 .5.5 1 1.1 1 .5 0 .7-.5.4-1-.3-.6-.8-1-1.1-1-.2 0-.4.4-.4 1zm104.4-.2c.3.5 0 1.3-.6 1.5-.9.4-1 .6-.1.6 1.7.1 2.5-1.6 1.2-2.5-.7-.4-.9-.3-.5.4zm8 .1c.4.5 0 1.1-.6 1.4-.7.3-.3.4.9.4 1.7-.1 1.9-.4 1.1-1.4-1.2-1.5-2.2-1.8-1.4-.4zm7.9.6c0 .8.4 1.2.9.9.5-.3.6-1 .3-1.5-.9-1.3-1.2-1.1-1.2.6zm43.7-1.1c0 .2.8 1 1.8 1.7 1.5 1.3 1.6 1.2.3-.4s-2.1-2.1-2.1-1.3zm192.6.9c.3 1 .9 1.5 1.2 1.2.3-.3 0-1.1-.7-1.8-1-.9-1.1-.8-.5.6zM39 990c0 .5.5 1 1 1 .6 0 1-.5 1-1 0-.6-.4-1-1-1-.5 0-1 .4-1 1zm4.7 1c-.9 1.1-1.3 2-.7 2 .5 0 1.4-.9 2-2 .6-1.1.9-2 .8-2-.2 0-1.1.9-2.1 2zm15.3 0c.6 1.1 1.5 2 2 2 .6 0 .2-.9-.7-2-1-1.1-1.9-2-2.1-2-.1 0 .2.9.8 2zm4.3 1c0 1.6.2 2.8.5 2.5.8-.8 1.1-5.5.3-5.5-.4 0-.8 1.3-.8 3zm37.7-2c-.9.6-1 1-.3 1 .6 0 1.5-.5 1.8-1 .8-1.2.4-1.2-1.5 0zm5.9.8l2.4 1.9-2.4.8c-1.3.4-2.7.7-3.1.6-.5-.1-.8.4-.8 1s.7.9 1.5.6c.8-.4 1.7-.2 2 .3.4.6.1 1-.4 1-.6 0-1.1.5-1.1 1.1 0 .8.5.7 1.5-.1 1.1-.9 1.3-1.6.5-2.4-.7-.7-.2-1.3 1.6-2l2.5-1.1-3.3-1.8c-3.3-1.9-3.3-1.9-.9.1zm19.5-.4c1.1.9 2.4 1.6 3 1.6 1.2 0 .7-.5-2.4-1.9-2.4-1.1-2.4-1.1-.6.3zm16.6-.4c0 .5.5 1 1 1 .6 0 1-.5 1-1 0-.6-.4-1-1-1-.5 0-1 .4-1 1zm6.7-.4c-.8.8.3 3.4 1.5 3.4.6 0 .4-.8-.3-1.7-1.2-1.5-1.2-1.6.4-1 .9.3 1.7.2 1.7-.3 0-1.1-2.3-1.4-3.3-.4zm16.6.1c-.7.2-1.3 1.1-1.3 1.9 0 .8-.4 1.4-.9 1.4-2 0-2.1 3.5-.1 6.3 2 2.6 2 2.8.3 2.5-1-.2-2.1-1.2-2.4-2.3-.3-1.1-1.1-1.9-1.7-1.8-1.6.4-1.5-.3.4-3.3 2.1-3.1 1.2-4.1-1.8-1.9-1.7 1.3-1.8 1.6-.5 1.1 1.2-.4 1.7-.2 1.5.6-.2.6-1.7 1.3-3.4 1.4-5 .6-5.4.7-5.4 1.6 0 .5.8.7 1.9.3 3-.9 4.6 2.3 2.7 5.5-.7 1.2-.6 1.3.4.3 1.1-1 1.6-.9 2.5.4 1 1.3 1.4 1.3 2 .3.5-.8.4-1.1-.2-.7-1 .7-2.3-1.2-2.9-4.2-.1-.8-.9-1.8-1.6-2.2-1-.7-.9-.9.3-.9.9 0 2 .7 2.3 1.6.3.8 1 1.3 1.5.9.5-.3 1.1.4 1.3 1.6.2 1.3 1.1 2.3 2.2 2.5 2 .3 5.6-1.6 5.6-3 0-.4-.6-.3-1.4.3-1.2 1-1.7.8-2.5-.7-1-1.9-.6-3.2 1-3.2.5 0 .6.8.3 1.7-.5 1.5-.4 1.5.4.3.9-1.2 1.3-1.2 2.9.2 1.9 1.6 4.3 1.4 4.3-.4 0-.7-.5-.6-1.4.1-1.1.9-1.3.6-1.3-1.4 0-2.1.2-2.3 1.3-1.4 1.2 1 1.3.9.8-.5-.4-1-1.3-1.5-2.1-1.2-.8.3-1.7.6-2 .6-.3 0 .1.8.8 1.7 1.2 1.5 1.2 1.6-.4 1-1-.4-2.1-.7-2.3-.7-.3 0-.2-.6.3-1.3.4-.6-.5-.4-2 .6-3 1.9-3.8.6-.8-1.5 1-.7 1.9-1.8 2-2.3.4-1.8 1.1-1.9 1.1-.2 0 .9.5 1.7 1 1.7.7 0 .7-.6 0-2-.6-1.1-1.2-2-1.3-1.9-.1 0-.8.3-1.4.6zm33.4.4c.7.7 1.5 1 1.8.7.3-.3-.2-.9-1.2-1.2-1.4-.6-1.5-.5-.6.5zm105.3-.7c0 .2.7.9 1.5 1.6 1.3 1.1 1.4 1 .9-.4-.5-1.4-2.4-2.3-2.4-1.2z"/><path d="M335 990c0 .5.5 1 1 1 .6 0 1-.5 1-1 0-.6-.4-1-1-1-.5 0-1 .4-1 1zm18-.5c0 1.5 1.8 4 2.4 3.4.3-.3-.1-1.4-.9-2.5-.8-1-1.4-1.5-1.5-.9zm57 1c.7.8 1.6 1.3 2 1 .4-.3 1 .2 1.4 1 .6 1.6 3.6 2.1 3.6.5 0-.5-.7-.6-1.7-.3-1.1.4-1.4.3-.9-.5.6-1.1-.5-1.7-2.6-1.3-.5 0-.8-.4-.8-.9 0-.6-.5-1-1.1-1-.8 0-.8.5.1 1.5zm15.4-.3c-.7 1.1.5 2.8 1.9 2.7.9 0 .9-.2 0-.6-2-.7-1.5-1.9.7-2 1.3-.1 1.8.2 1.4.9-.4.7-.2.8.5.4.6-.4.9-1.1.6-1.6-.6-1-4.5-.9-5.1.2zm9.6-.2c0 .5.5 1 1 1 .6 0 1-.5 1-1 0-.6-.4-1-1-1-.5 0-1 .4-1 1zm6.7-.2c-.3.4-.3 1.5-.2 2.5.2 1-.2 1.6-.8 1.4-.7-.3-1.1-1-.9-1.6.1-.6-.2-1.1-.8-1.1-1.3 0-1.3 1.7 0 2.5.6.4.4 1.2-.5 2.1-1.9 2-.9 3.7 1.6 2.9 1.5-.5 1.8-.3 1.3 1.2-.5 1.4-.4 1.5.4.3 1.5-2 .4-3.2-2.1-2.5-1.8.5-1.5 0 1.1-2.2 2.5-2.2 3-3.1 2.1-4-.9-.9-.7-1.2 1-1 1.4.1 2.8 1.5 4.2 4.4 1.1 2.4 2.5 4.1 2.9 3.8.5-.3 1.1 0 1.3.5.3.6.4.5.3-.2-.2-.7-.8-1.2-1.4-1.1-1 .2-2.7-4.3-2.3-6 .1-.5-.3-.6-.8-.3-.5.4-1.1.1-1.3-.6-.5-1.3-4.5-2.1-5.1-1zm17.3.1c0 .6.4 1.3 1 1.6.6.3.7-.1.4-.9-.7-1.8-1.4-2.1-1.4-.7zm16 .1c0 .5.7.7 1.5.4.8-.4 1.5-.8 1.5-1 0-.2-.7-.4-1.5-.4s-1.5.4-1.5 1zm36.5 0c.3.5.8 1 1.1 1 .2 0 .4-.5.4-1 0-.6-.5-1-1.1-1-.5 0-.7.4-.4 1zm7.5.1c0 .5.5.7 1 .4.6-.3 1-.8 1-1.1 0-.2-.4-.4-1-.4-.5 0-1 .5-1 1.1zm15.6.2c.3 1 .9 1.5 1.2 1.2.3-.3 0-1.1-.7-1.8-1-.9-1.1-.8-.5.6zm4.7.6c0 1.1.5 1.8.9 1.5.4-.3.5-1.1.1-1.9-.7-2.1-1.2-1.9-1 .4zm13.2-.8c-.4.6-.5 1.2-.2 1.5.2.3.7-.2 1-1.1.7-1.7.1-2-.8-.4zm11.1.1c.5.7.2.9-.9.5s-1.4-.2-1 .9c.4 1.1.9 1.2 1.9.3 1.2-1 1.1-2.9-.2-2.9-.3 0-.2.5.2 1.2zm71.1-.3c.9 1 .9 2 .2 3.5-.9 1.9-.9 1.9.4.4.9-1.2 1.7-1.4 2.4-.7.6.6 1 .5 1-.6 0-.8-.3-1.3-.5-1-.3.3-1.5-.3-2.6-1.2-1.2-1-1.6-1.1-.9-.4zm21.2.8c-1.3 1.6-1.2 1.7.4.4.9-.7 1.7-1.5 1.7-1.7 0-.8-.8-.3-2.1 1.3zm75.6-.8c-.3.5-.2 1.2.3 1.5.5.3.9-.1.9-.9 0-1.7-.3-1.9-1.2-.6zm29.5.1c0 .5.5 1 1.1 1 .5 0 .7-.5.4-1-.3-.6-.8-1-1.1-1-.2 0-.4.4-.4 1zm48.4-.2c.4.3 1.4.7 2.2.8.9.1 1.3 0 1-.4-.4-.3-1.4-.7-2.2-.8-.9-.1-1.3 0-1 .4zm24.2.4c.3.4 1.1.5 1.9.1 2.1-.7 1.9-1.2-.4-1-1.1 0-1.8.5-1.5.9zm-758.1.8c-.3.5-.2 1.8.4 2.7.7 1.4.9 1.2.8-1-.2-3-.3-3.1-1.2-1.7zm9.9-.2c-.9.5-.8 1 .1 1.9 1.1 1 1.3.9 1.2-.7-.1-1.1-.1-2-.2-2 0 0-.5.4-1.1.8zm33.4-.1c.6.2 1 .9.6 1.4-.3.5-.2.8.3.7 1.5-.4 5.3 2.2 5.3 3.7 0 2.1-1.7 1.9-2.4-.3-.4-1.4-.5-1.4-.3.2.3 2.5 2.5 3.2 3.4 1 .4-1.2-.4-2.5-2.8-4.5-1.9-1.6-3.8-2.8-4.4-2.8-.5 0-.4.3.3.6zm12.5 1.4c-.2 2.3.3 2.5 1 .4.4-.8.3-1.6-.1-1.9-.4-.3-.9.4-.9 1.5zm4.3-.6c-.3.8-.1 1.5.4 1.5.6 0 1-.7 1-1.5s-.2-1.5-.4-1.5-.6.7-1 1.5zm18.5-1c0 .5.3 1.6.8 2.3.7 1.1.9 1 1.4-.3.4-.9.3-1.4-.2-1-.5.3-1.2-.1-1.4-.7-.3-.7-.6-.9-.6-.3zm309.1 1.1c-.7.8-.8 1.4-.3 1.4 1 0 2.5-1.9 2-2.5-.2-.1-1 .3-1.7 1.1zm3.8-.7c0 1 1.9 2.5 2.5 2 .1-.2-.3-1-1.1-1.7s-1.4-.8-1.4-.3zm6 0c0 .7-.4 1-.8.7-.4-.2-.9.5-.9 1.6-.2 2.1-.2 2.1 1.4-.1.8-1.2 1.2-2.5.9-2.8-.3-.4-.6-.1-.6.6zm18.5.1c-.3.6.1.7.9.4 1.8-.7 2.1-1.4.7-1.4-.6 0-1.3.4-1.6 1zm91.3-.3c.7.3 1.6.2 1.9-.1.4-.3-.2-.6-1.3-.5-1.1 0-1.4.3-.6.6zm16.7.3c-.3.6.1.7.9.4 1.8-.7 2.1-1.4.7-1.4-.6 0-1.3.4-1.6 1zm9.5-.6c0 .2.8 1 1.8 1.7 1.5 1.3 1.6 1.2.3-.4s-2.1-2.1-2.1-1.3zm12.4.7c-.3.6-.2 1.5.3 2s.9.1.9-1.1c0-2.3-.2-2.4-1.2-.9zm8 .9c0 1.3.4 1.6 1 1 .7-.7.7-1.3 0-2-.6-.6-1-.3-1 1zm15.6-1.6c0 .2.8 1 1.8 1.7 1.5 1.3 1.6 1.2.3-.4s-2.1-2.1-2.1-1.3zm24.4.7c-.3.6-.2 1.5.3 2s.9.1.9-1.1c0-2.3-.2-2.4-1.2-.9zm54.1-.2c-.3.5-.2 1.2.3 1.5.5.3.9-.1.9-.9 0-1.7-.3-1.9-1.2-.6zm47.8.6c0 .8.4 1.5.9 1.5.4 0 .8-.4.8-.9 0-.6-.4-1.2-.8-1.5-.5-.3-.9.1-.9.9zm47.6.2c-1.3 1.6-1.2 1.7.4.4.9-.7 1.7-1.5 1.7-1.7 0-.8-.8-.3-2.1 1.3zm-798.3.5c.3.4.9.8 1.5.8.5 0 .9-.4.9-.8 0-.5-.7-.9-1.5-.9s-1.2.4-.9.9zm6.4.9c-1.7 1.3-1.8 1.7-.5 1 3.3-1.7 5.1-3.1 4-3.1-.5 0-2.1 1-3.5 2.1zm9.2-.8c1 .8 1.4 1.8 1 2.2-.4.5-.1.5.6.1 1.7-1 1.5-1.4-1-2.6-2.1-1-2.1-1-.6.3zm9.4.2c-.6 1.7 1.6 3.1 3.3 2.1.5-.4.9.2.8 1.3-.1 1.4-.8 1.9-2.1 1.8-1.5-.2-2 .4-2.1 2.3 0 1.6.5 2.4 1.4 2.2.9-.2 1.1.3.7 1.5-.6 1.7-.5 1.7.7.1.8-1 1.8-1.4 2.2-1 .5.4.5.2.1-.5-.3-.6-1.5-1-2.6-.8-1.3.3-1.8-.2-1.7-1.5.1-1.3.8-1.8 2.1-1.7 1.5.2 2-.4 2.1-2.3 0-2-.4-2.4-2.2-2.2-1.7.2-2.1-.1-1.7-1.2.3-.9.4-1.6.1-1.6-.3 0-.8.7-1.1 1.5zm5.4-.4c0 .5.4.8.9.5.5-.3 1.1.1 1.5.9.3.8.1 1.7-.4 2-.6.4-1 1.1-1 1.8 0 .6.7.2 1.5-1 .9-1.2 2.2-2 2.9-1.7 1.9.7 2.7-.9 1.4-2.6-.8-1.2-.9-1.2-.5.2.7 2-3 2.1-3.7.1-.6-1.6-2.6-1.7-2.6-.2zm17 .2c0 .9-.5 1.6-1.2 1.4-1.9-.4-2.1 3.1-.2 5.5 1 1.5 1.4 1.7 1.1.6-.4-1.1.2-2.3 1.6-3.3 1.2-.8 1.7-1.5 1.3-1.5-.5 0-1.8.7-2.8 1.7-1.7 1.5-1.8 1.5-1.8-.6 0-1.2.4-1.9 1-1.6 1.1.7 2.6-2.2 1.6-3.2-.3-.4-.6.1-.6 1zm3 .5c.6 1.3 1.6 2 2.2 1.6.8-.5.9-.1.5 1-.4 1-.3 1.5.3 1.1.6-.3 1-.1 1 .6s.3 1 .6.7c.3-.4 0-1.6-.6-2.8-.6-1.2-1.4-1.9-1.7-1.6-.3.3-1.2-.2-2-1.2-1.3-1.5-1.3-1.5-.3.6zm7-.8c0 .5.5 1 1 1 .6 0 1-.5 1-1 0-.6-.4-1-1-1-.5 0-1 .4-1 1zm11.5.1c-.4.6-.4 1.3 0 1.7.6.7 1 .8 3.6 1.1.5 0 .7.5.4 1.1-.3.5-.1 1 .4 1 .6 0 1.1-.4 1.1-1 0-1.2-3.5-3.1-4.4-2.3-.3.3-.6.1-.6-.5 0-.5.6-1.3 1.3-1.5.9-.4.9-.6 0-.6-.6-.1-1.5.4-1.8 1zm6.5-.1c-.8.5-1.2 1.1-1 1.4.3.2 1.4-.2 2.4-1 2.2-1.5 1-1.9-1.4-.4zm6 0c-1.2.7-1 .9.8.7 1.2 0 2.2-.5 2.2-.9 0-1.1-1.2-1-3 .2zm11.3.7c-1.3.8-2.3 2.1-2.3 2.7 0 .7.3.8.8 0 .4-.5 1.8-1.8 3.2-2.7 1.3-.9 2-1.7 1.5-1.6-.6 0-2 .7-3.2 1.6z"/><path d="M138.2 993.5c-1.7 2.1-2.1 2.3-3.2 1-1.1-1.3-1.6-1.1-3.9 1.4-1.4 1.5-3.5 3.1-4.5 3.5-1 .4-1.6.9-1.3 1.2.8.8 4.8-1.6 6.8-4 1-1.2 2.1-1.7 2.5-1.3.5.4.4 1.1-.1 1.5-1.5 1.1-4.1 4.7-2.9 3.9.7-.4 1.4-.1 1.7.6.7 1.8 5 1.5 5.5-.4.2-.8 0-1-.5-.4-1.2 1.5-4.1 1.4-4.7-.1-.7-1.7 3-4.3 5.2-3.7 1 .2 2.2-.5 3-1.7 1.5-2.4.4-2.7-1.4-.3-.7 1-1.5 1.5-1.9 1.1-.4-.3.3-1.6 1.4-2.7 1.2-1.2 1.7-2.1 1.2-2.1s-1.8 1.1-2.9 2.5zm9.5-.1c1 1.3 2.1 2.2 2.5 2 .4-.3-.2-1.4-1.2-2.4-2.7-2.7-3.5-2.5-1.3.4zM234 992c0 .5.5 1 1 1 .6 0 1-.5 1-1 0-.6-.4-1-1-1-.5 0-1 .4-1 1zm131.7 1.5c-2.1 2.9-1.6 4.2 2 5.6 2.2.8 2.3 1.1 1.2 2.6-1.2 1.4-1.2 1.6 0 .8 1.1-.6 1.3-.3.9 1.3-.4 1.2-.2 2 .2 1.7.5-.3.8-1.9.8-3.5-.1-2.2-.8-3.2-3-4.1-3.5-1.4-3.6-2.7-.3-2.7 1.3 0 2.2.4 2 .8-.3.4.2 1.1 1 1.4.9.3 1.9 1.6 2.4 2.9.9 2.3 4.1 3.4 4.1 1.4 0-.5-.7-.7-1.5-.3-1 .3-1.6-.1-1.6-1.2-.1-.9-.3-2.4-.3-3.2-.3-2.8-1.7-6-2.8-6-.6 0-.3 1.1.6 2.5 1.8 2.8 2 3.5.7 3.5-.5 0-1.3-.9-1.6-2.1-.5-1.6-1-1.8-2.1-.8-1.7 1.4-1.9-.2-.2-1.9.7-.7.8-1.2.3-1.2-.6 0-1.8 1.2-2.8 2.5zm23.5-.9c-1.2.8-2.2 1.9-2.2 2.5 0 .5.9 0 2.1-1.2l2-2 3.6 3.6c2 2 3.7 3.4 4 3.2.3-.4-6.5-7.7-7.1-7.7-.1 0-1.2.7-2.4 1.6zm13.8 1.5c-3.8 4.5-3.8 4.5.2 1.4 2-1.7 3.7-3.3 3.7-3.8.2-1.5-1.5-.5-3.9 2.4zm5-2.8c0 .2 1.1 1.3 2.5 2.5s2.5 1.8 2.5 1.3-1.1-1.6-2.5-2.5c-1.4-.9-2.5-1.5-2.5-1.3zm21.5 1.8c-1.6 1-2.4 1.9-1.7 1.9.8 0 2.5-.9 3.9-2 3.2-2.5 1.8-2.5-2.2.1zM456 992c0 .5.5 1 1 1 .6 0 1-.5 1-1 0-.6-.4-1-1-1-.5 0-1 .4-1 1zm20.1.7c-.5 1-1.3 1.6-1.8 1.3-.4-.3-.9.6-1 2-.1 2.3-.1 2.3.4.2.4-1.9.7-2.1 1.9-1.1.8.7 1.4.8 1.3.3-.4-2.1.2-3.5 1.1-2.9.6.3 1 .1 1-.4 0-1.7-1.8-1.3-2.9.6zm4.9-1.3c0 .2.7.7 1.6 1 .8.3 1.2.2.9-.4-.6-1-2.5-1.4-2.5-.6zm4 .6c0 .5.5 1 1 1 .6 0 1-.5 1-1 0-.6-.4-1-1-1-.5 0-1 .4-1 1zm10 .2c0 .4.4.8.9.8.6 0 1.2-.4 1.5-.8.3-.5-.1-.9-.9-.9s-1.5.4-1.5.9zm14-.8c0 .2.7.7 1.6 1 .8.3 1.2.2.9-.4-.6-1-2.5-1.4-2.5-.6zm4.5.6c-.3.5-.3 1 .2 1 .4 0 .1.5-.7 1.1-1.2.8-1.2 1-.1.7.8-.2 1.5-1.2 1.7-2.1.3-1.9-.2-2.2-1.1-.7zm4.1.4c.6 1.5.4 1.7-.6 1.1-.9-.6-1.1-.4-.5.4.5.9 1 1 1.8.2s.7-1.4-.2-2.4c-1-1-1.1-.8-.5.7zm4-.2c.3.4.9.8 1.5.8.5 0 .9-.4.9-.8 0-.5-.7-.9-1.5-.9s-1.2.4-.9.9zm5.5.4c0 1.1.3 1.4.6.6.3-.7.2-1.6-.1-1.9-.3-.4-.6.2-.5 1.3zm6 0c0 1.1.3 1.4.6.6.3-.7.2-1.6-.1-1.9-.3-.4-.6.2-.5 1.3zm16.4-.6c-.3.5-.1 1 .4 1 .6 0 1.1-.5 1.1-1 0-.6-.2-1-.4-1-.3 0-.8.4-1.1 1zm5.6.7c.7 1.2 1.5 2 1.8 1.7.3-.2-.3-1.2-1.3-2.2-1.7-1.6-1.8-1.6-.5.5zm14.6-.3c-.4 1.1-.1 1.3 1 .9 1.2-.5 1.4-.3.8.7-.5.9-.4 1.1.4.6.9-.6.9-1.1 0-2.2-1.4-1.7-1.6-1.7-2.2 0zm34.3-.4c-.9.6-1 1-.3 1 .6 0 1.5-.5 1.8-1 .8-1.2.4-1.2-1.5 0zm11.5 0c.3.5.8 1 1.1 1 .2 0 .4-.5.4-1 0-.6-.5-1-1.1-1-.5 0-.7.4-.4 1zm87.5-.1c0 .6.4 1.2.8 1.5.5.3.9-.1.9-.9s-.4-1.5-.9-1.5c-.4 0-.8.4-.8.9zm64.5.1c.3.5.8 1 1.1 1 .2 0 .4-.5.4-1 0-.6-.5-1-1.1-1-.5 0-.7.4-.4 1zm23.2.1c.7.7 1.5 1 1.8.7.3-.3-.2-.9-1.2-1.2-1.4-.6-1.5-.5-.6.5zm4.3-.7c0 .2.7.7 1.6 1 .8.3 1.2.2.9-.4-.6-1-2.5-1.4-2.5-.6zm6.7 1.1c-.4.8-.3 1.6.1 1.9.4.3.9-.4.9-1.5.2-2.3-.3-2.5-1-.4zm12.3-.5c-.9.6-1 1-.3 1 .6 0 1.5-.5 1.8-1 .8-1.2.4-1.2-1.5 0zm-783.6 1.5c-1.8 1.5-1.8 1.5 0 .8 1.4-.5 1.7-.3 1.1.6-.6 1-.3 1.1 1.4.2 2.5-1.4 2.8-2.3.4-1.4-1.1.4-1.4.3-.9-.5 1-1.6.4-1.5-2 .3zm51.1-.6c-.6 1.1 3.3 3.6 4.3 2.7.3-.3 0-.6-.7-.6s-.9-.4-.6-1c.4-.6-.1-.7-1.1-.3-1.2.4-1.5.3-1-.5.4-.7.5-1.2.2-1.2s-.7.4-1.1.9zm62.5-.6c0 .3.7 1.3 1.6 2.2 1.9 1.9 1.1 3.3-1 1.6-1.1-.9-1.5-.8-2 .5-.9 2.3-.7 3.1.3 1.5.8-1.2 1.2-1.2 2.5-.2 1.6 1.3 1.3 3.1-.5 3.1-.6 0-.7-.6-.3-1.3.4-.6-.2-.3-1.4.7-1.2 1.1-2.2 2.4-2.2 3 0 .6.5.4 1-.4s1-1.1 1-.6c0 .4 1.1.1 2.5-.8s2.5-1.3 2.5-.9c0 .5.5 0 1.1-1 .6-1 .8-2.1.5-2.4-.3-.4-.6-.1-.6.5 0 .7-.5 1.2-1.1 1.2-.6 0-.8-.8-.5-1.8.4-1.2-.1-2.6-1.4-3.7-1.1-1-2-1.5-2-1.2zm253 1.7c1.3 1.1 2.5 2 2.8 2 .3 0-.3-.9-1.3-2s-2.3-2-2.8-2c-.6 0 0 .9 1.3 2zm38.6-.7c.3 1 .9 1.5 1.2 1.2.3-.3 0-1.1-.7-1.8-1-.9-1.1-.8-.5.6zm124.4-.4c0 .6.4 1.3 1 1.6.6.3.7-.1.4-.9-.7-1.8-1.4-2.1-1.4-.7zm83-.5c0 .2.8 1 1.8 1.7 1.5 1.3 1.6 1.2.3-.4s-2.1-2.1-2.1-1.3zM13 994c0 .5.5 1 1.1 1 .5 0 .7-.5.4-1-.3-.6-.8-1-1.1-1-.2 0-.4.4-.4 1zm84.4.2c-.5.8-.2.9 1 .5 1.4-.6 1.7-.3 1.2.8-.3.9-.2 1.3.4 1 .6-.3 1-.1 1 .6s.3 1 .6.7c.7-.8-1.4-4.8-2.6-4.8-.5 0-1.2.5-1.6 1.2zm18.5-1c-.1.2-.3 1.6-.5 3.3-.2 2 0 2.5.5 1.6.5-.8.7-2 .4-2.8-.4-.9 0-1.1 1.3-.6 1.2.4 1.5.3 1-.5-.6-1.1-2.4-1.7-2.7-1zm12.5.6c-1.3.8-1.5 4.4-.2 3.6.5-.3.6-.9.3-1.4-.3-.4.1-1 .7-1.3.7-.2 1.1-.7.8-1-.3-.3-1-.3-1.6.1zm24.1.2c-.3.5-.1 1 .4 1 .6 0 1.1-.5 1.1-1 0-.6-.2-1-.4-1-.3 0-.8.4-1.1 1zm228.1-.1c-.3.5.1 1.1.9 1.4.9.4 1.2.1.8-.9-.6-1.6-1-1.7-1.7-.5zm42.4 0c0 .5.5 1.1 1.1 1.3.9.3.9 1 0 2.6-.6 1.2-.9 2.2-.7 2.2 1.1 0 2.6-4 2-5.4-.7-1.7-2.4-2.2-2.4-.7zm10.1-.4c0 .5.6 1.9 1.4 2.9.8 1.1 1.5 1.5 1.5 1 0-.6-.7-1.9-1.5-3-.8-1-1.4-1.5-1.4-.9zm11.1.7c-.7.7-1.2 1.6-1.2 2 0 1.2 2.8 1 3.6-.3 1-1.7-1-3.1-2.4-1.7zm1.8.8c0 .5-.5 1-1.1 1-.5 0-.7-.5-.4-1 .3-.6.8-1 1.1-1 .2 0 .4.4.4 1z"/><path d="M454 994.5c1.5 1.8 0 2-2 .2-1.2-1-1.2-.9-.1.5.9 1.2 2.1 1.6 3.8 1.2 1.7-.5 2.3-.3 2.1.7-.2.9.6 1.4 2.2 1.4s2.4-.5 2.2-1.4c-.2-.9.3-1.1 1.3-.7.9.3 1.4.2 1.1-.3-.3-.5.1-1.2 1-1.5.9-.4 1.4-.9 1.1-1.2-.8-.9-5.8 2.7-5.1 3.7.3.5-.4.9-1.6.9-1.2 0-1.8-.4-1.5-1.1.4-.6-.2-1.3-1.4-1.6-1.2-.3-2.1-.9-2.1-1.4 0-.5-.5-.9-1.1-.9-.8 0-.8.5.1 1.5z"/><path d="M459 994c0 .5.5 1 1 1 .6 0 1-.5 1-1 0-.6-.4-1-1-1-.5 0-1 .4-1 1zm20 .1c-1.2.8-1 .9.9.4 1.3-.4 2.1-.3 1.8.2-.3.5-.1 1.5.4 2.3.7 1.1.8.9.6-.9-.4-2.9-1.6-3.5-3.7-2zm10.9-.4c-.1.4-.1 1.1 0 1.5.2 1.2-1.7 1-2.2-.2-.3-.6-.4-.5-.3.2.2.7.9 1.3 1.7 1.3.8 0 1.3-.6 1.2-1.3-.2-.6.6-1.2 1.7-1.2s1.9.6 1.8 1.2c-.2.8.7 1.3 2 1.3 1.2 0 2.2-.5 2.1-1 0-.6 1-1.3 2.3-1.7 2.2-.7 2.2-.7-.2-.5-1.4.1-2.4.8-2.2 1.5.1.6-.7 1.2-1.8 1.2s-1.9-.6-1.7-1.2c.1-.7-.8-1.4-2-1.6-1.3-.2-2.4 0-2.4.5zm13.9 0c.7.3 1.6.2 1.9-.1.4-.3-.2-.6-1.3-.5-1.1 0-1.4.3-.6.6zm4.3-.1c1.1.3 1.5 1.2 1.2 2.3-.3 1-.1 2.1.4 2.4.5.3.8-.7.7-2.1 0-1.9-.7-2.8-2-2.9-1.4-.1-1.5-.1-.3.3zm11.1 1.4c-1.8 2.9-1.5 3.8.4 1.2.9-1.3 1.4-2.5 1.2-2.7-.2-.2-.9.5-1.6 1.5zm11.8-1.5c0 .5.5 1.7 1 2.5s1 1 1 .5c0-.6-.5-1.7-1-2.5s-1-1.1-1-.5zm4 .4c0 .6.4 1.3 1 1.6.6.3.7-.1.4-.9-.7-1.8-1.4-2.1-1.4-.7zm2-.5c0 .2 1.1 1.1 2.5 2 1.4.9 2.5 1.3 2.5.8s-1.1-1.4-2.5-2c-1.4-.6-2.5-1-2.5-.8zm10 .6c0 .5.5 1 1.1 1 .5 0 .7-.5.4-1-.3-.6-.8-1-1.1-1-.2 0-.4.4-.4 1zm6.5 0c.5.9.1 1.1-1.6.6-1.3-.3-1.8-.3-1.1 0 .6.3 1 1 .7 1.4-.3.5 0 1.2.7 1.6.7.4 1 .4.6-.1-.4-.4 0-1.3.9-2 1.3-.9 1.3-1.4.3-2-.9-.6-1.1-.4-.5.5zm34-.1c-.3.5 0 1.3.6 1.7.7.4.9.3.5-.4-.3-.5 0-1.3.6-1.5.9-.4 1-.6.1-.6-.6-.1-1.4.3-1.8.8zm11.2.2c.7.7 1.5 1 1.8.7.3-.3-.2-.9-1.2-1.2-1.4-.6-1.5-.5-.6.5zm8 0c.7.7 1.5 1 1.8.7.3-.3-.2-.9-1.2-1.2-1.4-.6-1.5-.5-.6.5zm53.3.4c-.7.9-1.1 1.7-.9 2 .3.2 1-.5 1.7-1.5 1.4-2.4 1-2.6-.8-.5zm46.5-.5c-.3.6.1.7.9.4 1.8-.7 2.1-1.4.7-1.4-.6 0-1.3.4-1.6 1zm128.5-.1c0 .6.4 1.3 1 1.6.6.3.7-.1.4-.9-.7-1.8-1.4-2.1-1.4-.7zm-824.4 1.8c-.6 1.4-.5 1.5.5.6.7-.7 1-1.5.7-1.8-.3-.3-.9.2-1.2 1.2zm5 0c-.6 1.4-.5 1.5.5.6.7-.7 1-1.5.7-1.8-.3-.3-.9.2-1.2 1.2zm3.9 0c.1 1-.2 2.4-.8 3.1-.7.9-.6 1.1.5.7 1.6-.6 2.2-5.5.8-5.5-.5 0-.7.8-.5 1.7zm99.5.5c-2.9 4.4-3.1 4.8-2.1 4.8.5 0 1.3-.9 1.6-2 .4-1.1 1-1.8 1.4-1.6.4.3.8-.4.8-1.5.2-2.4.1-2.4-1.7.3zm269 .8c-3.2 3.1-3.6 4-2 4 .6 0 1-.7 1-1.6 0-.8.3-1.3.8-1.1.4.3 1.5-.6 2.5-1.9 2.5-3.3 1.4-3-2.3.6zm18.3-2.3c-.7.2-1.3 1.1-1.3 1.9 0 .9-.4 1.2-1 .9-.5-.3-1-.1-1 .4 0 1.8 1.9 1.2 3-.9.6-1.1 1.5-1.8 2.1-1.5.5.4.9.1.9-.4 0-1.2-.7-1.3-2.7-.4zm77.8.9c0 1.1.3 1.4.6.6.3-.7.2-1.6-.1-1.9-.3-.4-.6.2-.5 1.3zm60.1.4c-1.5 2.5-1.5 3 0 3 .6 0 .8-.3.5-.7-.4-.3-.2-1.2.5-2 .6-.7.9-1.5.7-1.8-.3-.2-1 .5-1.7 1.5zm66.6-1.3c.7.3 1.6.2 1.9-.1.4-.3-.2-.6-1.3-.5-1.1 0-1.4.3-.6.6zm5.1-.5c-.4 1.2-.5 5.7 0 5.3.6-.6 1-5.5.4-5.5-.1 0-.3.1-.4.2zm9 1.5c-1.3 1.6-1.2 1.7.4.4.9-.7 1.7-1.5 1.7-1.7 0-.8-.8-.3-2.1 1.3zm16.4-.4c0 .7.9 1.4 2 1.4 1.1.1 1.8.1 1.6 0-.2-.2-1.1-.8-2-1.5-1.2-.9-1.6-.9-1.6.1zm106.2-.4c-.3.5-.2 1.2.3 1.5.5.3.9-.1.9-.9 0-1.7-.3-1.9-1.2-.6zM26 997.2c-1 2.1-1 2.1.3.6.8-1 1.8-1.4 2.2-1 .5.4.5.1.1-.6-1-1.7-1.4-1.5-2.6 1zm9-1.2c0 .6.7 1 1.5 1s1.5-.2 1.5-.4-.7-.6-1.5-1c-.8-.3-1.5-.1-1.5.4zm8 0c-1.3.8-1.2 1 .3 1 .9 0 1.7-.5 1.7-1 0-1.2-.1-1.2-2 0zm16.8-.3c.7.3 1.6.2 1.9-.1.4-.3-.2-.6-1.3-.5-1.1 0-1.4.3-.6.6zm19.7.3c2.7 1.2 4.3 1.2 2.5 0-.8-.5-2.2-.9-3-.9-1 0-.8.3.5.9zm7.5 0c0 .5.5 1 1 1 .6 0 1-.5 1-1 0-.6-.4-1-1-1-.5 0-1 .4-1 1zm22.1.1c-.1 1.9 2.3 4.2 3.2 3.2.4-.3.7-.1.7.5 0 .7.5 1.2 1.1 1.2.8 0 .8-.4 0-1.4-.6-.7-.9-2.2-.5-3.2.3-1.3.1-1.1-.8.4l-1.4 2.3-1.2-2.3c-.7-1.6-1.1-1.8-1.1-.7zm274.6.3c-2.1 1.6-2.2 2.3-.2 2.3.8 0 1.2-.4.9-.8-.2-.4.2-.9.8-1.2.7-.2 1.1-.7.8-1-.3-.3-1.3 0-2.3.7zm25.9.2c-.4.9-.4 1.9-.1 2.2.2.3.7-.3 1.1-1.2.4-.9.4-1.9.1-2.2-.2-.3-.7.3-1.1 1.2zm4.5-.8c-.1.8.8 1.6 1.9 1.9 1.1.3 1.8.8 1.6 1.2-.3.4-.1 1.3.5 2.1.6 1.1.9 1.2.9.2 0-.8.5-1 1.3-.6.6.4.3-.2-.7-1.4-1.1-1.2-2.5-2.2-3.2-2.2-.7 0-1.5-.6-1.7-1.3-.4-.9-.6-.9-.6.1zm17.3 0c.3.5.1 1.2-.6 1.4-.6.2-1.3 1.5-1.5 2.9-.2 1.8-.1 2 .6.9.5-.8.7-1.8.5-2.2-.3-.4.2-.8 1-.8 1.9 0 2.1-1.6.4-2.6-.6-.4-.8-.3-.4.4zm36.4-.1c.7.3 1.6.2 1.9-.1.4-.3-.2-.6-1.3-.5-1.1 0-1.4.3-.6.6zm33.2.8c0 .8.2 1.5.4 1.5s.6-.7 1-1.5c.3-.8.1-1.5-.4-1.5-.6 0-1 .7-1 1.5zm4.6 0c.4.8.8 1.5 1 1.5.2 0 .4-.7.4-1.5s-.4-1.5-1-1.5c-.5 0-.7.7-.4 1.5zm9.4-.5c0 .5.5 1 1.1 1 .5 0 .7-.5.4-1-.3-.6-.8-1-1.1-1-.2 0-.4.4-.4 1zm7-.1c0 .9 3 2.4 3.6 1.8.2-.1-.6-.8-1.6-1.5-1.1-.7-2-.8-2-.3zm3.2-.5c.2.1 1.2.8 2.2 1.6 1.1.8 1.7 1 1.3.3-.4-.6-.1-1.3.5-1.6.7-.2 0-.4-1.5-.4s-2.7 0-2.5.1zm32.3.6c-.6.9-.4 1.1.5.5 1-.6 1.2-.4.6 1.1-.4 1-.4 1.5 0 1.2.3-.4 1.4.2 2.4 1.4 1.3 1.7 1.7 1.8 1.7.5 0-.9-.5-1.3-1-1-.7.4-.8-.1-.3-1.3.4-1 .4-1.5 0-1.1-.4.4-1.2-.1-1.9-1-.9-1.3-1.4-1.3-2-.3zm5.5.1c0 .5.5.7 1 .4.6-.3 1-.8 1-1.1 0-.2-.4-.4-1-.4-.5 0-1 .5-1 1.1zm4.6.4c-.9 2.6-.7 3.2.5 1.2.6-1 .9-2.1.6-2.3-.2-.3-.7.2-1.1 1.1zm25.6-.6c-1.1.7-1.1.9 0 1.4.9.3 1.5-.1 1.5-.9s-.1-1.4-.1-1.4c-.1 0-.7.4-1.4.9zm4.1.6c0 .7.8 1 1.9.7 1-.2 1.8-.6 1.8-.7 0-.1-.8-.5-1.8-.7-1.1-.3-1.9 0-1.9.7zm7.8.1c0 1.1.3 1.4.6.6.3-.7.2-1.6-.1-1.9-.3-.4-.6.2-.5 1.3zm14 .7c-1.3 2.1-1.2 2.1.5.5 1-1 1.6-2 1.3-2.2-.3-.3-1.1.5-1.8 1.7zm8.6-.5c-1.5 1.6-1.5 1.9-.2 1.9.8 0 1.3-.3 1-.5-.3-.3 0-1.1.6-1.9 1.7-2 .5-1.6-1.4.5zm8.3-1.3c0 .2.6.8 1.3 1.4 1 .8 1.4.7 1.4-.2 0-.8-.6-1.4-1.4-1.4-.7 0-1.3.1-1.3.2zm29.3 1.2c0 .9.4 1 1.2.3.7-.5 1.5-.7 1.8-.3.4.3.7.1.7-.5s-.8-1-1.8-.9c-1 0-1.9.7-1.9 1.4zm28-.2c0 .8.4 1.2.9.9.4-.3.8-.9.8-1.5 0-.5-.4-.9-.8-.9-.5 0-.9.7-.9 1.5zm22.3.2c-.6 1.4-.5 1.5.5.6.7-.7 1-1.5.7-1.8-.3-.3-.9.2-1.2 1.2zm39.4-.6c0 .5.5.7 1 .4.6-.3 1-.8 1-1.1 0-.2-.4-.4-1-.4-.5 0-1 .5-1 1.1zm8-.7c0 .2.7.7 1.6 1 .8.3 1.2.2.9-.4-.6-1-2.5-1.4-2.5-.6zm8.3 1.1c0 .8.4 1.2.9.9.5-.3.6-1 .3-1.5-.9-1.3-1.2-1.1-1.2.6zm-758.3.4c0 .6.4 1.3 1 1.6.6.3.7-.1.4-.9-.7-1.8-1.4-2.1-1.4-.7zm9.8-.2c.7.3 1.6.2 1.9-.1.4-.3-.2-.6-1.3-.5-1.1 0-1.4.3-.6.6zm32.7 1.3c.5 1.6.3 1.9-1.2 1.3-1.9-.6-1.8-.5.8 1.5 1.3 1 1.5.7 1.5-1.8 0-1.7-.4-3-.8-3-.5 0-.7.9-.3 2zm34.5-.6c-.9 1.1-.9 1.9 0 3.3 1 1.6 1 1.5.5-.4-.5-1.8-.3-2.2.9-1.7.8.3 1.6 1.1 1.8 1.8.2.7 1 .5 2.2-.8 1.6-1.6 1.6-1.8.3-1.3-2.1.8-4.9-.2-4.1-1.4.8-1.4-.2-1-1.6.5zm301.5-.4c-.5.8-.4 1.1.3.6.6-.3 1.3.3 1.7 1.4.7 2.3 2 2.6 3.1.7.4-.6.4-.9-.1-.5-.4.4-1.5-.2-2.5-1.4-1.3-1.6-1.9-1.8-2.5-.8zm88.1.3c.3 1 .9 1.5 1.2 1.2.3-.3 0-1.1-.7-1.8-1-.9-1.1-.8-.5.6zm32.1-.2c.7.7 1.5 1 1.8.7.3-.3-.2-.9-1.2-1.2-1.4-.6-1.5-.5-.6.5zm139.4.2c-.8 1-.7 1.4.2 1.4.8 0 1.4-.6 1.4-1.4 0-.7-.1-1.3-.2-1.3-.2 0-.8.6-1.4 1.3zm-621.8 1.4c-.5 1.4 2.7 4.6 3.7 3.6.3-.2-.3-.9-1.3-1.4-2.3-1.3-2.2-2.4.3-2.6 1.1-.1 1.8.2 1.6.6-.3.4 0 1.3.5 2.1.7 1.1.8.8.6-1-.4-2.8-4.5-3.8-5.4-1.3zm9.7-.7c0 .5.5 1 1 1 .6 0 1-.5 1-1 0-.6-.4-1-1-1-.5 0-1 .4-1 1zm20-.1c.8.5 1.8.7 2.4.4.5-.4.7.1.3 1.1-.4 1.1-.3 1.5.4 1.1 1.6-1.1.5-2.8-2.2-3.2-1.8-.2-2-.1-.9.6zm10.9-.4c-.8 3.4-.1 5 2 4.8 1.4-.2 2 .1 1.5.9-.4.7-.3.8.5.4 1.6-1.1.2-2.8-1.8-2.1-1.2.3-1.7-.1-1.7-1.5 0-1.5.5-1.9 2.1-1.4 1.6.4 1.7.3.5-.5-1.6-1.2-2.9-1.4-3.1-.6zm7.6.5c.3.5 1.2 1 2 1s1.8.7 2.3 1.6c.8 1.5 1 1.4 1.6-.1.3-1 .4-2 .1-2.3-.3-.3-.5 0-.5.7 0 .9-.7.8-2.2-.3-2.5-1.8-4.2-2.1-3.3-.6zm7.8 1.6c.2 2.6 3.7 4.6 3.7 2.2 0-.6-.7-.7-1.6-.4-1.2.4-1.4.1-.9-1.3.3-1.1.1-2.2-.4-2.5-.6-.4-.9.5-.8 2zm325.9-.5c-.8 1.2-.9 1.8-.4 1.5.6-.3 1.2 0 1.5.6.2.7.4.1.4-1.5 0-1.5 0-2.7-.1-2.7s-.7.9-1.4 2.1zm35.8-1.5c0 .5.7 1.8 1.5 2.8.8 1.1 1.5 1.6 1.5 1 0-.5-.7-1.8-1.5-2.8-.8-1.1-1.5-1.6-1.5-1zm19.7 0c.7.3 1.5.5 1.9.4.4-.1 1.1.4 1.6 1.2.8 1.1.9 1 .6-.1-.2-.8-1.5-1.5-2.9-1.7-1.3-.1-1.8 0-1.2.2zm8.3.4c0 .5.6.7 1.4.4 1.1-.4 1.3.1 1 1.8-.4 2.1-.3 2.1.5.3.4-1.1.7-2.3.4-2.8-.6-1-3.3-.9-3.3.3zm9.7 1.3c-1.3 2-1.3 2.3.2 2.3 1 0 1.6-.9 1.6-2.3 0-1.3-.1-2.3-.1-2.3-.1 0-.8 1-1.7 2.3zm6.6-1.6c.4.3.1 1.3-.6 2.1-1 1.3-.9 1.4.2.7 1.1-.6 1.3-.4.9.7-.4.8 0 1.5.7 1.5.9 0 1.1-.6.6-1.6-.5-.9-.6-2.2-.4-2.9.3-.6-.1-1.2-.8-1.2-.7 0-.9.3-.6.7zm11.7.3c0 .5.5 1 1 1 .6 0 1-.5 1-1 0-.6-.4-1-1-1-.5 0-1 .4-1 1zm45.4.1c-.3.6 0 1.7.8 2.5 1.3 1.3 1.5 1.3 1.5 0 0-.8-.5-1.2-1-.9-.6.4-.8 0-.4-1 .7-1.9.2-2.3-.9-.6zm23.3.6c.3.7.6 1.3.8 1.3.2 0 .5-.6.8-1.3.3-.8-.1-1.4-.8-1.4-.7 0-1.1.6-.8 1.4zm212.9-.9c-.3.5.1.9.9.9s1.2-.4.9-.9c-.3-.4-.7-.8-.9-.8-.2 0-.6.4-.9.8zm-686.7 1.4c-.1.7-.1 1.7 0 2.2.1.5-.5.6-1.4.3-.8-.4-1.5-.2-1.5.4 0 2 3.3.4 3.6-1.9.2-1.2.2-2.2-.1-2.2-.3 0-.6.6-.6 1.2zm38.1-.2c-.8.5-1 1-.5 1 .6 0 1.7-.5 2.5-1s1.1-1 .5-1c-.5 0-1.7.5-2.5 1zm4.1.6c0 1.1.3 1.4.6.6.3-.7.2-1.6-.1-1.9-.3-.4-.6.2-.5 1.3zM270 999c-1.3.8-1.2 1.1.5 2.4 1.1.8 2.3 1.2 2.7 1 .5-.3.8 0 .8.7s.3.9.6.6c1-1-1.7-3.8-2.9-3-.6.4-.8 0-.4-1 .7-2 .7-2-1.3-.7zm77.2 1c0 1.4.2 1.9.5 1.2.2-.6.2-1.8 0-2.5-.3-.6-.5-.1-.5 1.3zm2.8-.5c1.4 1.7 3 2 3 .4 0-.5-.4-.7-1-.4-.5.3-1 .1-1-.4 0-.6-.5-1.1-1.1-1.1-.8 0-.8.5.1 1.5zm9-.6c0 .5.5 1.3 1 1.6.6.3 1 .2 1-.4 0-.5-.4-1.3-1-1.6-.5-.3-1-.2-1 .4zm96 .1c0 .5.5 1 1.1 1 .5 0 .7-.5.4-1-.3-.6-.8-1-1.1-1-.2 0-.4.4-.4 1zm76.5 0c-.4.6-1.1.8-1.6.5-.5-.4-.9-.1-.9.4 0 1.5 1.1 1.3 3.4-.4 1.1-.8 1.5-1.5.9-1.5-.7 0-1.5.5-1.8 1zm24 .1c-.4.6-.5 1.2-.2 1.5.2.3.7-.2 1-1.1.7-1.7.1-2-.8-.4zm30.4-.9c-.5 1.8-.6 3.8-.1 3.4.7-.8 1.2-3.6.6-3.6-.2 0-.4.1-.5.2zM22 999.8c0 .5.7.9 1.5.9s1.2-.4.9-.9c-.3-.4-.9-.8-1.5-.8-.5 0-.9.4-.9.8zm14 .3c0 .5.5.7 1 .4.6-.3 1-.8 1-1.1 0-.2-.4-.4-1-.4-.5 0-1 .5-1 1.1zm5-.1c-.8.5-1 1-.5 1 .6 0 1.7-.5 2.5-1s1.1-1 .5-1c-.5 0-1.7.5-2.5 1zm17.6.3c.3 1 .9 1.5 1.2 1.2.3-.3 0-1.1-.7-1.8-1-.9-1.1-.8-.5.6zm6.4.7c.6 1.1 1.3 2 1.6 2 .2 0 0-.9-.6-2s-1.3-2-1.6-2c-.2 0 0 .9.6 2zm10-1c0 .6.6 1.3 1.4 1.6.8.3 1.2 1.3.9 2.2-.4 1.5-.3 1.5.6.2.8-1.1.7-1.8-.4-2.6-.8-.6-1.2-1.4-.8-1.7.3-.4.1-.7-.5-.7-.7 0-1.2.5-1.2 1zm25 .2c0 1.1 1.2 1 3-.2 1.2-.7 1-.9-.8-.7-1.2 0-2.2.5-2.2.9zm7.1-.5c.3 2.1-.2 2.6-1.2 1.3-.8-1.2-1-1.2-.7-.1.5 1.7 4.6 2.2 5.5.8.3-.6.1-.7-.5-.3-.7.4-1.2.1-1.2-.8s-.4-1.6-1-1.6c-.5 0-.9.3-.9.7zm15.2 1.3c1.4 1.1 2.8 2 3.2 2 .4 0-.4-.9-1.8-2s-2.8-2-3.2-2c-.4 0 .4.9 1.8 2zm31.1-.4c.4 1.2.1 1.4-1.3.9-2.2-.7-3.7 1-2 2.1.8.4.9.3.5-.4-.5-.8 0-1.1 1.5-.9 1.4.1 2.3-.4 2.4-1.6.2-.9-.1-1.7-.7-1.7s-.7.7-.4 1.6zm21.6-.6c.4 2.9 0 4.1-1.2 3.4-.7-.5-.8-.3-.4.5.5.7 1 1 1.4.7.3-.3 1.1.2 1.9 1.2 1.3 1.5 1.3 1.5.4-.5-1.4-2.9-1.4-3.6.2-2.7.7.5.7.1-.3-1.2-.8-1-1.6-2.1-1.8-2.4-.2-.3-.3.2-.2 1zm154 0c-.8.5-1 1-.5 1 .6 0 1.7-.5 2.5-1s1.1-1 .5-1c-.5 0-1.7.5-2.5 1zm4 .4c0 2.3 1.6 2.7 3.1.8 1.3-1.6 1.3-1.6-.5-.2-1.8 1.4-1.9 1.3-1.3-.3.3-.9.2-1.7-.3-1.7-.6 0-1 .6-1 1.4zm6.3.4c-1.7 1.3-2 2.1-1.2 3.2.9 1.3 1 1.3.6 0-.2-.8.8-2.3 2.2-3.2 1.4-1 2.2-1.8 1.6-1.8-.5 0-2 .8-3.2 1.8zm50.7-.3c0 .8.2 1.5.4 1.5s.6-.7 1-1.5c.3-.8.1-1.5-.4-1.5-.6 0-1 .7-1 1.5zm9.5-.4c-1.1 1.6-.1 1.9 1.3.3.7-.8.8-1.4.3-1.4s-1.3.5-1.6 1.1zm6-.1c-.3.6.1.7.9.4 1.8-.7 2.1-1.4.7-1.4-.6 0-1.3.4-1.6 1zm20.5.5c0 .8.2 1.5.4 1.5s.6-.7 1-1.5c.3-.8.1-1.5-.4-1.5-.6 0-1 .7-1 1.5zm7-.5c0 .5.5 1 1 1 .6 0 1-.5 1-1 0-.6-.4-1-1-1-.5 0-1 .4-1 1zm10.5.1c-.4.6-.4 1.3-.1 1.6.3.4.6.1.6-.6s.5-.9 1-.6c.6.3 1 .1 1-.4 0-1.4-1.7-1.4-2.5 0zm22-.1c.3.5.8 1 1.1 1 .2 0 .4-.5.4-1 0-.6-.5-1-1.1-1-.5 0-.7.4-.4 1zm33.8-.3c.4.3.1 1.3-.6 2.2-1 1.4-1 1.4.5.3 1-.8 2.3-1 3-.6 1 .6.9.3-.1-.9-.7-.9-1.8-1.7-2.4-1.7-.6 0-.7.3-.4.7zm6.1.5c-.4.5-.3 1.2 0 1.5.3.4.6.1.6-.6s.4-1 .9-.6c.5.3 1.2.2 1.5-.3.3-.5-.2-.9-1-.9s-1.7.4-2 .9zm12.2.5c-.6 1.4-.5 1.5.5.6.7-.7 1-1.5.7-1.8-.3-.3-.9.2-1.2 1.2zm19.4-1.3c0 .2.7.7 1.6 1 .8.3 1.2.2.9-.4-.6-1-2.5-1.4-2.5-.6zm62 .5c0 .6.4 1.3 1 1.6.6.3.7-.1.4-.9-.7-1.8-1.4-2.1-1.4-.7zm36.4-.1c.4.3 1.4.7 2.2.8.9.1 1.3 0 1-.4-.4-.3-1.4-.7-2.2-.8-.9-.1-1.3 0-1 .4zm34.1.2c.3.5.8 1 1.1 1 .2 0 .4-.5.4-1 0-.6-.5-1-1.1-1-.5 0-.7.4-.4 1zm46.1.7c-.6 1.4-.5 1.5.5.6.7-.7 1-1.5.7-1.8-.3-.3-.9.2-1.2 1.2zm13.9-.7c-.3.5-.1 1 .4 1 .6 0 1.1-.5 1.1-1 0-.6-.2-1-.4-1-.3 0-.8.4-1.1 1zm60.5-.6c0 .2.8 1 1.8 1.7 1.5 1.3 1.6 1.2.3-.4s-2.1-2.1-2.1-1.3zm-710.4 1.9c.3 1 .9 1.5 1.2 1.2.3-.3 0-1.1-.7-1.8-1-.9-1.1-.8-.5.6zm223-.5c-.3.5.1.9.9.9s1.5-.4 1.5-.9c0-.4-.4-.8-.9-.8-.6 0-1.2.4-1.5.8zm16.4.2c0 .5.7.7 1.5.4.8-.4 1.5-.8 1.5-1 0-.2-.7-.4-1.5-.4s-1.5.4-1.5 1zm23.5.3c-1.4 1.1-1.5 1.6-.5 2.2.9.5 1.1.4.6-.3-.4-.7-.1-1.2.8-1.2s1.6-.5 1.6-1c0-1.3-.3-1.3-2.5.3zm177.5-.9c0 .2.7.7 1.6 1 .8.3 1.2.2.9-.4-.6-1-2.5-1.4-2.5-.6zM37.5 1002c-.3.5-.1 1 .4 1 .6 0 1.1-.5 1.1-1 0-.6-.2-1-.4-1-.3 0-.8.4-1.1 1zm14.6.8c-.7 1.4-.6 1.9.4 1.9.7 0 1.1-.7.7-1.5-.4-1.1-.1-1.3.8-.7.9.5 1.1.4.6-.3-1-1.6-1.4-1.5-2.5.6zm10.9-1.2c0 .5.7 1.8 1.5 2.8.8 1.1 1.5 1.6 1.5 1 0-.5-.7-1.8-1.5-2.8-.8-1.1-1.5-1.6-1.5-1zm40 0c0 .5.7 1.8 1.5 2.8.8 1.1 1.5 1.6 1.5 1 0-.5-.7-1.8-1.5-2.8-.8-1.1-1.5-1.6-1.5-1zm16 .4c0 .5.5 1 1 1 .6 0 1-.5 1-1 0-.6-.4-1-1-1-.5 0-1 .4-1 1zm9 .2c-1.2.8-1.2.9.2.5.9-.3 1.9-.1 2.2.6.3.9.5.9.5 0 .1-1.8-1.3-2.3-2.9-1.1z"/><path d="M169.9 1001.7c-.1.5-.1 1.2 0 1.7s-.4.6-1.2.3c-.8-.3-2-.1-2.8.5-1.2.8-1.2.9.1.5.8-.2 2.2 0 3.2.4 1.2.7 1.6.5 1.4-.9-.2-1 .5-2 1.8-2.4 2.1-.6 2-.6-.1-.7-1.3-.1-2.4.2-2.4.6zm29.7 1c-.6 1.4-.5 1.5.5.6.7-.7 1-1.5.7-1.8-.3-.3-.9.2-1.2 1.2zm17.7-.2c-.3.9-.3 1.9.1 2.2.3.4.6-.2.6-1.2 0-1.5.2-1.6 1.8-.4 1.5 1.3 1.6 1.2.3-.4-1.7-2.1-2-2.1-2.8-.2zm77.7-.8c0 .6.8 1.7 1.8 2.4 1.6 1.3 1.6 1.3.2-.6-.8-1.1-1.6-2.2-1.7-2.4-.2-.2-.3 0-.3.6zm28.3 1.2c0 1.1.5 1.8.9 1.5.4-.3.5-1.1.1-1.9-.7-2.1-1.2-1.9-1 .4zm7.9-.9c.3.8.2 2.2-.3 3-.5 1.1-.2 1.6 1.1 1.6 1 0 1.6-.5 1.2-1.1-.4-.5-.7-1.6-.8-2.3-.2-.8-.6-1.7-1-2-.4-.4-.4 0-.2.8zm18.2-.2c.3.5.1 1.2-.6 1.4-.8.3-.9.6-.1 1.1.6.4 1.3 0 1.7-.8.3-.8 0-1.7-.6-2.1-.6-.4-.8-.3-.4.4zm14.6.1c1.5.4 2 1 1.3 1.4-.6.4-1.9.4-3 .1-1.7-.5-1.7-.5 0 .6 1.4.9 2.2.9 3.2 0 1.9-1.6 1-3-1.8-2.9-2 .1-2 .2.3.8zm23 .1c-1.3.8-1.2 1 .3 1 .9 0 1.7-.5 1.7-1 0-1.2-.1-1.2-2 0zm20 0c0 .5.5 1 1 1 .6 0 1-.5 1-1 0-.6-.4-1-1-1-.5 0-1 .4-1 1zm8.7.4c-.4.9-1.6 1.3-3.2 1.2-1.4-.2-2.7 0-3 .4-.2.4.9.7 2.5.6 2.9-.1 5.9-2.1 4.8-3.1-.3-.3-.8.1-1.1.9zm7.6.1c0 .8.4 1.2.9.9.4-.3.8-.9.8-1.5 0-.5-.4-.9-.8-.9-.5 0-.9.7-.9 1.5zm7.7-.5c0 .5.5 1 1.1 1 .5 0 .7-.5.4-1-.3-.6-.8-1-1.1-1-.2 0-.4.4-.4 1zm25.6-.2c-.3.5.1.9.9.9s1.2-.4.9-.9c-.3-.4-.7-.8-.9-.8-.2 0-.6.4-.9.8zm6.2 1c.4 1.1.1 1.3-.8.7-.8-.5-1.1-.4-.7.3.8 1.1 4.4.5 5.3-.9.3-.5-.3-.6-1.2-.2-1 .4-1.5.2-1.1-.4.3-.5 0-1-.7-1-.8 0-1.2.7-.8 1.5zm49.2-.8c-.9.6-1 1-.3 1 .6 0 1.5-.5 1.8-1 .8-1.2.4-1.2-1.5 0zm34-.6c0 .2.8 1 1.8 1.7 1.5 1.3 1.6 1.2.3-.4s-2.1-2.1-2.1-1.3zm9.9 1.3c-1.3 1.6-1.2 1.7.4.4 1.6-1.3 2.1-2.1 1.3-2.1-.2 0-1 .8-1.7 1.7zm11.1-.8c0 .6.4 1.3 1 1.6.6.3.7-.1.4-.9-.7-1.8-1.4-2.1-1.4-.7zm136.6.3c.3.4 1.1.5 1.9.1 2.1-.7 1.9-1.2-.4-1-1.1 0-1.8.5-1.5.9zm18-.3c-.3.5.2 1.5 1.2 2.2 1.5 1.2 1.6 1.2.5-.2-.7-.9-1-1.9-.6-2.2.3-.4.4-.7 0-.7-.3 0-.8.4-1.1.9zm29.9 0c-.3.5-.2 1.2.3 1.5.5.3.9-.1.9-.9 0-1.7-.3-1.9-1.2-.6zm-640 1.2c-1.1 1.6-.1 1.9 1.3.3.7-.8.8-1.4.3-1.4s-1.3.5-1.6 1.1zm35.5.4c0 .8.4 1.5 1 1.5.5 0 .7-.7.4-1.5-.4-.8-.8-1.5-1-1.5-.2 0-.4.7-.4 1.5zm42.3.4c0 1.1.5 1.8.9 1.5.4-.3.5-1.1.1-1.9-.7-2.1-1.2-1.9-1 .4zm2.9-.3c1 1 2 1.6 2.2 1.3.3-.3-.5-1.1-1.7-1.8-2.1-1.3-2.1-1.2-.5.5zm40.8-.6c-.9.6-1 1-.3 1 .6 0 1.5-.5 1.8-1 .8-1.2.4-1.2-1.5 0zm10.3.5c0 .8.4 1.5.9 1.5.4 0 .8-.7.8-1.5s-.4-1.5-.8-1.5c-.5 0-.9.7-.9 1.5zm24.3 0c-.3.8-.1 1.5.4 1.5.6 0 1-.7 1-1.5s-.2-1.5-.4-1.5-.6.7-1 1.5zm110.1.4c-.4 1.7-.3 2.1.5 1.3.5-.5.8-1.6.6-2.3-.3-.8-.7-.3-1.1 1zm91.6-.6c0 .8 1.2 1.3 2.7 1.3 1.5 0 2.7-.5 2.7-1.3 0-.9-.4-1-1.4-.2-.9.8-1.7.8-2.6 0-1-.8-1.4-.7-1.4.2zm-412.3.6c0 .4 1.1.7 2.5.7s2.5-.3 2.5-.7c0-.3-1.1-.7-2.5-.7s-2.5.4-2.5.7zm10.6-.1c-.3.5.1.9.9.9s1.2-.4.9-.9c-.3-.4-.7-.8-.9-.8-.2 0-.6.4-.9.8zm13.9.1c-.3.5-.2 1.2.3 1.5.5.3.9-.1.9-.9 0-1.7-.3-1.9-1.2-.6zm10.2.5c-.3.8 0 1.7.7 1.9 1 .4 1.2-.1.9-1.4-.6-2.3-.9-2.4-1.6-.5zm6.1-.2c-1 .7-.9.8.2.5.8-.2 2.3 0 3.2.5 1.3.6 1.6.5 1.2-.5-.6-1.6-2.7-1.8-4.6-.5zm24.2-.2c0 .5.5 1 1.1 1 .5 0 .7-.5.4-1-.3-.6-.8-1-1.1-1-.2 0-.4.4-.4 1zm60-.6c0 .2.7.7 1.6 1 .8.3 1.2.2.9-.4-.6-1-2.5-1.4-2.5-.6zm4.7 1.5c-.4 1.7-.3 2.1.5 1.3.5-.5.8-1.6.6-2.3-.3-.8-.7-.3-1.1 1zm41-.5c-.3.8 0 1.7.7 1.9 1 .4 1.2-.1.9-1.4-.6-2.3-.9-2.4-1.6-.5zm49.8-.5c-.4.7.1.8 1.2.4 1.5-.6 1.6-.4.6.8-1 1.3-1 1.6.1 1.6 1.6 0 1.5-2.9-.1-3.4-.6-.2-1.4.1-1.8.6zm5.3.9c-.4 1.2.1 1.8 1.3 1.8s1.5-.4.9-1.2c-.6-.6-.7-1.4-.3-1.7.3-.4.2-.7-.4-.7-.6 0-1.3.8-1.5 1.8zm9.8-.9c-.3.5.1 1.1.9 1.4.9.4 1.2.1.8-.9-.6-1.6-1-1.7-1.7-.5zm12.4-.5c0 .2.7.7 1.6 1 .8.3 1.2.2.9-.4-.6-1-2.5-1.4-2.5-.6zm10.4 1.8c-1.9 2.3-1.9 2.3.2.5 1.1-.9 2.4-1.4 2.7-1 .4.3.7.1.7-.5 0-1.9-1.5-1.4-3.6 1zm27.7-.2c-1.3 1.1-1.9 2-1.3 2 .5 0 1.5-.7 2.2-1.5.7-.8 1.6-1.2 2.1-.9.5.3.9 0 .9-.5 0-1.6-1.2-1.3-3.9.9zm15.9-1.3c0 .6.8 1.7 1.8 2.4 1.6 1.3 1.6 1.3.2-.6-.8-1.1-1.6-2.2-1.7-2.4-.2-.2-.3 0-.3.6zm35.8 1.5c-1 1-1.4 1.8-.9 1.8 1 0 3.6-2.9 3-3.4-.2-.1-1.2.6-2.1 1.6zm5.6-1.5c.4.4 1.6.8 2.8 1 1.2.2 1.9.1 1.6-.2-.3-.3-1.6-.8-2.8-1-1.2-.2-2-.1-1.6.2zm18.2.8c.4.8 1.1 1.5 1.6 1.5.6 0 .5-.6-.2-1.5-.7-.8-1.4-1.5-1.6-1.5-.2 0-.1.7.2 1.5zm9.5-.1c-.9 1.1-.9 1.6.1 2.2.7.4 1 .4.6-.1-.4-.4-.3-1.4.3-2.2.6-.7.9-1.3.6-1.3-.2 0-1 .6-1.6 1.4zm21.2.3c0 .9.4 1 1.2.3.7-.5 1.5-.7 1.8-.3.4.3.7.1.7-.5s-.8-1-1.8-.9c-1 0-1.9.7-1.9 1.4zm30-.2c0 .8.4 1.2.9.9.4-.3.8-.9.8-1.5 0-.5-.4-.9-.8-.9-.5 0-.9.7-.9 1.5zm5.7 0c.5.7.6 1.6.2 2.1-.4.5-.3.5.2.1 1.5-1.2 1.5-3.4 0-3.4-.9 0-1.1.4-.4 1.2zm15.6-.3c.3.5 1 .6 1.5.3 1.3-.9 1.1-1.2-.6-1.2-.8 0-1.2.4-.9.9zm81.4-.8c0 .2.8 1 1.8 1.7 1.5 1.3 1.6 1.2.3-.4s-2.1-2.1-2.1-1.3zm4.6.8c.3.5 1 .6 1.5.3 1.3-.9 1.1-1.2-.6-1.2-.8 0-1.2.4-.9.9zm11.9-.1c-.3.4.2.6 1 .5 2.1-.3 2.8-1.3 1-1.3-.9 0-1.8.4-2 .8zm11.4-.9c-.5 1.8-.6 3.8-.1 3.4.7-.8 1.2-3.6.6-3.6-.2 0-.4.1-.5.2zm15.7 1c.3.5 1 .6 1.5.3 1.3-.9 1.1-1.2-.6-1.2-.8 0-1.2.4-.9.9zm145-.4c-.3.5.1.9.9.9s1.2-.4.9-.9c-.3-.4-.7-.8-.9-.8-.2 0-.6.4-.9.8zm9 .4c.3.5 1 .6 1.5.3 1.3-.9 1.1-1.2-.6-1.2-.8 0-1.2.4-.9.9zm-693 1.5c-.6 1.4-.5 1.5.5.6.7-.7 1-1.5.7-1.8-.3-.3-.9.2-1.2 1.2zm29.4-1.3c0 .2.7.7 1.6 1 .8.3 1.2.2.9-.4-.6-1-2.5-1.4-2.5-.6zm18.7.9c-.3.8 0 1.4.7 1.4s1.3-.6 1.3-1.4c0-.7-.4-1.3-.8-1.3s-.9.6-1.2 1.3zm26.8-.3c-.3.6.1.7.9.4 1.8-.7 2.1-1.4.7-1.4-.6 0-1.3.4-1.6 1zm34.5-.6c0 .2.7.7 1.6 1 .8.3 1.2.2.9-.4-.6-1-2.5-1.4-2.5-.6zm42.7.8c-.3.8.5 1.4 2 1.4 1.3.1 2.3.1 2.1 0-.2-.1-1-.7-1.9-1.4-1.3-1-1.8-1-2.2 0zm144.7.2c.1.8.5 1.8.8 2.2.4.3.5-.1.4-1-.1-.8-.5-1.8-.8-2.2-.4-.3-.5.1-.4 1zm-276.1 1.9c-.1 1.1-.1 1.8 0 1.6.2-.2.8-1.1 1.5-2 .9-1.2.9-1.6-.1-1.6-.7 0-1.4.9-1.4 2zm44.5-1.6c.7.3 1.6.2 1.9-.1.4-.3-.2-.6-1.3-.5-1.1 0-1.4.3-.6.6zm54.9 1c.3.7.6 1.3.8 1.3.1 0 .7-.6 1.3-1.3.8-1 .6-1.3-.7-1.3-1.1 0-1.7.6-1.4 1.3zm13 0c.3.7.6 1.3.8 1.3.2 0 .5-.6.8-1.3.3-.8-.1-1.4-.8-1.4-.7 0-1.1.6-.8 1.4zm28.1-1c.7.3 1.6.2 1.9-.1.4-.3-.2-.6-1.3-.5-1.1 0-1.4.3-.6.6zm4.2.3c.8.5 2 1 2.5 1 .6 0 .3-.5-.5-1s-1.9-1-2.5-1c-.5 0-.3.5.5 1zm10.8-.3c.7.3 1.6.2 1.9-.1.4-.3-.2-.6-1.3-.5-1.1 0-1.4.3-.6.6zm37 0c.7.3 1.6.2 1.9-.1.4-.3-.2-.6-1.3-.5-1.1 0-1.4.3-.6.6zm3.7.1c.3.3-.1 1.2-.7 2.1-.8 1-.4.9 1-.3 2.6-2.3 2.6-2.3.7-2.3-.8 0-1.3.3-1 .5zm16.1 0c-.3.5.1.9.9.9s1.2-.4.9-.9c-.3-.4-.7-.8-.9-.8-.2 0-.6.4-.9.8zm46.4.2c-.9.6-1 1-.3 1 .6 0 1.5-.5 1.8-1 .8-1.2.4-1.2-1.5 0zm20-.6c0 .2.8 1 1.8 1.7 1.5 1.3 1.6 1.2.3-.4s-2.1-2.1-2.1-1.3zm36.6.4c-.2.4.4.8 1.4.8 1 0 1.6-.4 1.4-.8-.3-.4-.9-.8-1.4-.8-.5 0-1.1.4-1.4.8zm19.4-.3c0 .2.6.8 1.3 1.4 1 .8 1.4.7 1.4-.2 0-.8-.6-1.4-1.4-1.4-.7 0-1.3.1-1.3.2zm71.5.5c.3.5.8 1 1.1 1 .2 0 .4-.5.4-1 0-.6-.5-1-1.1-1-.5 0-.7.4-.4 1zm75.5 0c0 .5.5 1 1.1 1 .5 0 .7-.5.4-1-.3-.6-.8-1-1.1-1-.2 0-.4.4-.4 1zm16.3 1.1c-.2 2.3.3 2.5 1 .4.4-.8.3-1.6-.1-1.9-.4-.3-.9.4-.9 1.5zm-473.8 0c-.4.6-.5 1.2-.2 1.5.2.3.7-.2 1-1.1.7-1.7.1-2-.8-.4zm17.9.9c0 1.3.4 1.6 1 1 .7-.7.7-1.3 0-2-.6-.6-1-.3-1 1zm30-.6c.1.8.5 1.8.8 2.2.4.3.5-.1.4-1-.1-.8-.5-1.8-.8-2.2-.4-.3-.5.1-.4 1zm38 0c.1.8.5 1.8.8 2.2.4.3.5-.1.4-1-.1-.8-.5-1.8-.8-2.2-.4-.3-.5.1-.4 1zm18.1-.4c-.4.6-1.1.7-1.7.4-.7-.4-.8-.2-.4.5.6.9 1.1.9 2.2 0 1.4-1.1 1.8-1.9 1-1.9-.3 0-.8.5-1.1 1zm55.5-.7c0 .2.6 1 1.4 1.6 1.1.9 1.6.9 2.2-.1.4-.7.4-1-.1-.6-.4.4-1.4.3-2.2-.3-.7-.6-1.3-.9-1.3-.6zm6 0c0 .2.6 1 1.4 1.6 1.1.9 1.6.9 2.2-.1.4-.7.4-1-.1-.6-.4.4-1.4.3-2.2-.3-.7-.6-1.3-.9-1.3-.6zm30.5.7c-.4.6-1.1.7-1.7.4-.7-.4-.8-.2-.4.5.6.9 1.1.9 2.2 0 1.4-1.1 1.8-1.9 1-1.9-.3 0-.8.5-1.1 1zm9.4.7c-1.3 1.6-1.2 1.7.4.4.9-.7 1.7-1.5 1.7-1.7 0-.8-.8-.3-2.1 1.3zm60.6-.8c-.3.5-.2 1.2.3 1.5.5.3.9-.1.9-.9 0-1.7-.3-1.9-1.2-.6zm3.8.6c0 .8.4 1.2.9.9.5-.3.6-1 .3-1.5-.9-1.3-1.2-1.1-1.2.6zm270 0c0 .8.4 1.2.9.9.5-.3.6-1 .3-1.5-.9-1.3-1.2-1.1-1.2.6zm-518.9.3c.4.3 1.4.7 2.2.8.9.1 1.3 0 1-.4-.4-.3-1.4-.7-2.2-.8-.9-.1-1.3 0-1 .4zm37.2.4c.3.5 1 .6 1.5.3 1.3-.9 1.1-1.2-.6-1.2-.8 0-1.2.4-.9.9zm9.3.1c.6.8.7 1.8.3 2.2-.4.5-.1.5.6.1 1-.6 1-1.1.1-2.2-.6-.8-1.4-1.4-1.6-1.4-.3 0 0 .6.6 1.3zm10.7-.5c-.3.5.1.9.9.9s1.2-.4.9-.9c-.3-.4-.7-.8-.9-.8-.2 0-.6.4-.9.8zm41.7.7c0 .8.4 1.2.9.9.5-.3.6-1 .3-1.5-.9-1.3-1.2-1.1-1.2.6zm20.6.2c-1.3 1.6-1.2 1.7.4.4 1.6-1.3 2.1-2.1 1.3-2.1-.2 0-1 .8-1.7 1.7zm3.1-.8c0 .6.4 1.2.8 1.5.5.3.9-.1.9-.9s-.4-1.5-.9-1.5c-.4 0-.8.4-.8.9zm177.7.2c.7.7 1.5 1 1.8.7.3-.3-.2-.9-1.2-1.2-1.4-.6-1.5-.5-.6.5zm117.8-.1c-.3.6.1.7.9.4 1.8-.7 2.1-1.4.7-1.4-.6 0-1.3.4-1.6 1zm-447 .9c-.3.5-.2 1.2.3 1.5.5.3.9-.1.9-.9 0-1.7-.3-1.9-1.2-.6zm281.8.6c0 .8.4 1.2.9.9.5-.3.6-1 .3-1.5-.9-1.3-1.2-1.1-1.2.6zm-266.3.9c.7.7 1.3.7 2 0 .6-.6.3-1-1-1s-1.6.4-1 1zm122.5-.4c.3.5.8 1 1.1 1 .2 0 .4-.5.4-1 0-.6-.5-1-1.1-1-.5 0-.7.4-.4 1zm120 0c-.3.5-.1 1 .4 1 .6 0 1.1-.5 1.1-1 0-.6-.2-1-.4-1-.3 0-.8.4-1.1 1zm27 0c-.3.6.1.7.9.4 1.8-.7 2.1-1.4.7-1.4-.6 0-1.3.4-1.6 1zm5 0c.3.5.8 1 1.1 1 .2 0 .4-.5.4-1 0-.6-.5-1-1.1-1-.5 0-.7.4-.4 1zm49.5.1c0 .5.5.7 1 .4.6-.3 1-.8 1-1.1 0-.2-.4-.4-1-.4-.5 0-1 .5-1 1.1zm-155.4 1.2c.3 1 .9 1.5 1.2 1.2.3-.3 0-1.1-.7-1.8-1-.9-1.1-.8-.5.6zm7.9.7c.3.5.8 1 1.1 1 .2 0 .4-.5.4-1 0-.6-.5-1-1.1-1-.5 0-.7.4-.4 1zm121.8.5c0 .8.4 1.2.9.9.5-.3.6-1 .3-1.5-.9-1.3-1.2-1.1-1.2.6zm20.6.2c-1.3 1.6-1.2 1.7.4.4.9-.7 1.7-1.5 1.7-1.7 0-.8-.8-.3-2.1 1.3z"/></svg>